SplineFontDB: 2.0
FontName: THBaijam-Bold
FullName: THBaijam-Bold
FamilyName: TH Baijam
Weight: Bold
Copyright: Copyright (c) 2006 by Department of Intellectual Property (DIP), Ministry of Commerce and Software Industry Promotion Agency (Public Organization) (SIPA). All rights reserved.
Version: 1.1
ItalicAngle: 0
UnderlinePosition: -35
UnderlineWidth: 30
Ascent: 800
Descent: 200
Order2: 1
XUID: [1021 375 425136265 6626681]
FSType: 0
OS2Version: 3
OS2_WeightWidthSlopeOnly: 0
OS2_UseTypoMetrics: 1
CreationTime: 1154326861
ModificationTime: 1196256359
PfmFamily: 17
TTFWeight: 700
TTFWidth: 5
LineGap: 60
VLineGap: 0
Panose: 2 0 5 6 0 0 0 2 0 4
OS2TypoAscent: 0
OS2TypoAOffset: 1
OS2TypoDescent: 0
OS2TypoDOffset: 1
OS2TypoLinegap: 0
OS2WinAscent: 0
OS2WinAOffset: 1
OS2WinDescent: -104
OS2WinDOffset: 1
HheadAscent: 0
HheadAOffset: 1
HheadDescent: 104
HheadDOffset: 1
OS2SubXSize: 700
OS2SubYSize: 650
OS2SubXOff: 0
OS2SubYOff: 140
OS2SupXSize: 700
OS2SupYSize: 650
OS2SupXOff: 0
OS2SupYOff: 477
OS2StrikeYSize: 30
OS2StrikeYPos: 250
OS2FamilyClass: 773
OS2Vendor: 'IPTH'
Lookup: 4 0 0 "'frac' Diagonal Fractions in Latin lookup 0"  {"'frac' Diagonal Fractions in Latin lookup 0 subtable"  } ['frac' ('latn' <'dflt' > ) ]
Lookup: 6 0 0 "'liga' Standard Ligatures in Latin lookup 1"  {"'liga' Standard Ligatures in Latin lookup 1 subtable"  } ['liga' ('latn' <'dflt' > ) ]
Lookup: 6 0 0 "'liga' Standard Ligatures in Latin lookup 2"  {"'liga' Standard Ligatures in Latin lookup 2 subtable"  } ['liga' ('latn' <'dflt' > ) ]
Lookup: 6 0 0 "'liga' Standard Ligatures in Latin lookup 3"  {"'liga' Standard Ligatures in Latin lookup 3 subtable"  } ['liga' ('latn' <'dflt' > ) ]
Lookup: 6 0 0 "'liga' Standard Ligatures in Latin lookup 4"  {"'liga' Standard Ligatures in Latin lookup 4 subtable"  } ['liga' ('latn' <'dflt' > ) ]
Lookup: 6 0 0 "'liga' Standard Ligatures in Latin lookup 5"  {"'liga' Standard Ligatures in Latin lookup 5 subtable"  } ['liga' ('latn' <'dflt' > ) ]

StartChar: .notdef
Encoding: 65536 -1 0
Width: 813
VWidth: 1507
Flags: W
HStem: 0 103<208 594> 971 98<208 594>
VStem: 90 118<103 971> 594 119<103 971>
Fore
594 103 m 1,0,-1
 594 971 l 1,1,-1
 208 971 l 1,2,-1
 208 103 l 1,3,-1
 594 103 l 1,0,-1
713 0 m 1,4,-1
 90 0 l 1,5,-1
 90 1069 l 1,6,-1
 713 1069 l 1,7,-1
 713 0 l 1,4,-1
EndSplineSet
EndChar
StartChar: numbersign
Encoding: 35 35 4
Width: 713
VWidth: 1507
Flags: W
HStem: 0 21G<173 280 437 543> 197 85<51 173 280 437 543 654> 464 86<51 173 280 437 543 654>
VStem: 173 107<0 197 282 464 550 730> 437 106<0 197 282 464 550 730>
Fore
437 197 m 1,0,-1
 280 197 l 1,1,-1
 280 0 l 1,2,-1
 173 0 l 1,3,-1
 173 197 l 1,4,-1
 51 197 l 1,5,-1
 51 282 l 1,6,-1
 173 282 l 1,7,-1
 173 464 l 1,8,-1
 51 464 l 1,9,-1
 51 550 l 1,10,-1
 173 550 l 1,11,-1
 173 730 l 1,12,-1
 280 730 l 1,13,-1
 280 550 l 1,14,-1
 437 550 l 1,15,-1
 437 730 l 1,16,-1
 543 730 l 1,17,-1
 543 550 l 1,18,-1
 654 550 l 1,19,-1
 654 464 l 1,20,-1
 543 464 l 1,21,-1
 543 282 l 1,22,-1
 654 282 l 1,23,-1
 654 197 l 1,24,-1
 543 197 l 1,25,-1
 543 0 l 1,26,-1
 437 0 l 1,27,-1
 437 197 l 1,0,-1
280 282 m 1,28,-1
 437 282 l 1,29,-1
 437 464 l 1,30,-1
 280 464 l 1,31,-1
 280 282 l 1,28,-1
EndSplineSet
EndChar
StartChar: dollar
Encoding: 36 36 5
Width: 595
VWidth: 1507
Flags: W
HStem: 0 90<155.268 250 357 373.351> 641 89<191.454 250 357 414.763>
VStem: 20 110<114.26 173> 44 111<496.75 606.663> 250 107<-78 0 90 301 437 641 730 805> 439 111<556 616.896> 454 110<151.569 238.692>
Fore
250 0 m 1,0,-1
 213 0 l 2,1,2
 172 0 172 0 136.5 12 c 128,-1,3
 101 24 101 24 75.5 46.5 c 128,-1,4
 50 69 50 69 35 101.5 c 128,-1,5
 20 134 20 134 20 173 c 1,6,-1
 130 173 l 1,7,8
 130 133 130 133 154.5 111.5 c 128,-1,9
 179 90 179 90 213 90 c 2,10,-1
 250 90 l 1,11,-1
 250 345 l 1,12,-1
 178 374 l 2,13,14
 99 409 99 409 71.5 455.5 c 128,-1,15
 44 502 44 502 44 550 c 0,16,17
 44 591 44 591 61 623.5 c 128,-1,18
 78 656 78 656 107.5 680 c 128,-1,19
 137 704 137 704 174 717 c 128,-1,20
 211 730 211 730 250 730 c 1,21,-1
 250 805 l 1,22,-1
 357 805 l 1,23,-1
 357 730 l 1,24,25
 398 730 398 730 432.5 717.5 c 128,-1,26
 467 705 467 705 493.5 683.5 c 128,-1,27
 520 662 520 662 535 629.5 c 128,-1,28
 550 597 550 597 550 556 c 1,29,-1
 439 556 l 1,30,31
 439 597 439 597 415.5 619 c 128,-1,32
 392 641 392 641 357 641 c 1,33,-1
 357 393 l 1,34,35
 375 386 375 386 394 378.5 c 128,-1,36
 413 371 413 371 430 363 c 0,37,38
 472 345 472 345 497.5 327 c 128,-1,39
 523 309 523 309 538 287 c 128,-1,40
 553 265 553 265 558.5 241 c 128,-1,41
 564 217 564 217 564 188 c 0,42,43
 564 154 564 154 548 120.5 c 128,-1,44
 532 87 532 87 503.5 60 c 128,-1,45
 475 33 475 33 437 16.5 c 128,-1,46
 399 0 399 0 357 0 c 1,47,-1
 357 -78 l 1,48,-1
 250 -78 l 1,49,-1
 250 0 l 1,0,-1
357 301 m 1,50,-1
 357 90 l 1,51,52
 368 90 368 90 384.5 98.5 c 128,-1,53
 401 107 401 107 417 120.5 c 128,-1,54
 433 134 433 134 443.5 151.5 c 128,-1,55
 454 169 454 169 454 187 c 0,56,57
 454 226 454 226 442 247 c 128,-1,58
 430 268 430 268 396 283 c 1,59,-1
 398 283 l 1,60,-1
 357 301 l 1,50,-1
155 552 m 0,61,62
 155 523 155 523 164 496.5 c 128,-1,63
 173 470 173 470 210 454 c 0,64,65
 219 449 219 449 228.5 446 c 128,-1,66
 238 443 238 443 250 437 c 1,67,-1
 250 641 l 1,68,69
 216 641 216 641 185.5 615 c 128,-1,70
 155 589 155 589 155 552 c 0,61,62
EndSplineSet
EndChar
StartChar: percent
Encoding: 37 37 6
Width: 943
VWidth: 1507
Flags: W
HStem: 734 20G<596.46 716>
VStem: 262 103<427.017 454 464 513 513 599.134>
Fore
197 -24 m 1,0,-1
 607 754 l 1,1,-1
 716 754 l 1,2,-1
 309 -24 l 1,3,-1
 197 -24 l 1,0,-1
200 692 m 2,4,5
 173 692 173 692 148.5 680.5 c 128,-1,6
 124 669 124 669 105 651 c 128,-1,7
 86 633 86 633 75.5 609 c 128,-1,8
 65 585 65 585 65 561 c 2,9,-1
 65 436 l 2,10,11
 65 383 65 383 98 353.5 c 128,-1,12
 131 324 131 324 191 324 c 2,13,-1
 226 324 l 2,14,15
 255 324 255 324 279.5 334.5 c 128,-1,16
 304 345 304 345 323 363 c 128,-1,17
 342 381 342 381 353.5 404.5 c 128,-1,18
 365 428 365 428 365 454 c 2,19,-1
 365 583 l 2,20,21
 365 635 365 635 332.5 663.5 c 128,-1,22
 300 692 300 692 237 692 c 2,23,-1
 200 692 l 2,4,5
169 549 m 2,24,25
 169 571 169 571 183 589 c 128,-1,26
 197 607 197 607 220 607 c 1,27,-1
 232 601 l 1,28,29
 268 601 268 601 268 562 c 2,30,-1
 262 464 l 2,31,32
 262 443 262 443 247 426.5 c 128,-1,33
 232 410 232 410 211 410 c 2,34,-1
 205 410 l 2,35,36
 169 410 169 410 169 451 c 2,37,-1
 169 549 l 2,24,25
654 372 m 2,38,39
 627 372 627 372 602 361 c 128,-1,40
 577 350 577 350 559 331 c 128,-1,41
 541 312 541 312 530.5 288.5 c 128,-1,42
 520 265 520 265 520 241 c 2,43,-1
 520 115 l 2,44,45
 520 65 520 65 552.5 35.5 c 128,-1,46
 585 6 585 6 645 6 c 2,47,-1
 678 6 l 2,48,49
 707 6 707 6 732.5 16.5 c 128,-1,50
 758 27 758 27 777 44.5 c 128,-1,51
 796 62 796 62 807.5 85.5 c 128,-1,52
 819 109 819 109 819 134 c 2,53,-1
 819 264 l 2,54,55
 819 315 819 315 786.5 343.5 c 128,-1,56
 754 372 754 372 690 372 c 2,57,-1
 654 372 l 2,38,39
623 229 m 2,58,59
 623 252 623 252 637 270 c 128,-1,60
 651 288 651 288 672 288 c 2,61,-1
 678 288 l 2,62,63
 716 288 716 288 716 250 c 2,64,-1
 716 146 l 2,65,66
 716 124 716 124 701 107 c 128,-1,67
 686 90 686 90 665 90 c 2,68,-1
 659 90 l 2,69,70
 623 90 623 90 623 131 c 2,71,-1
 623 229 l 2,58,59
EndSplineSet
EndChar
StartChar: ampersand
Encoding: 38 38 7
Width: 711
VWidth: 1507
Flags: W
HStem: -9 90<240.355 371.515> 644 86<270.009 403.952>
VStem: 48 112<165.877 250.476> 130 110<521.781 613.018> 422 109<512.207 624.405>
Fore
617 338 m 1,0,1
 617 288 617 288 601.5 237.5 c 128,-1,2
 586 187 586 187 559 143 c 1,3,4
 582 116 582 116 604 91 c 128,-1,5
 626 66 626 66 644 45 c 0,6,7
 665 21 665 21 684 0 c 1,8,-1
 558 2 l 1,9,10
 550 8 550 8 541 17 c 0,11,12
 534 24 534 24 522.5 36 c 128,-1,13
 511 48 511 48 496 66 c 1,14,15
 458 32 458 32 410 11.5 c 128,-1,16
 362 -9 362 -9 306 -9 c 2,17,-1
 261 -9 l 2,18,19
 222 -9 222 -9 183.5 8.5 c 128,-1,20
 145 26 145 26 114.5 53.5 c 128,-1,21
 84 81 84 81 66 116.5 c 128,-1,22
 48 152 48 152 48 188 c 2,23,-1
 48 222 l 2,24,25
 48 250 48 250 61 276.5 c 128,-1,26
 74 303 74 303 96 325.5 c 128,-1,27
 118 348 118 348 145.5 367 c 128,-1,28
 173 386 173 386 205 402 c 1,29,-1
 185 425 l 2,30,31
 163 448 163 448 146.5 476.5 c 128,-1,32
 130 505 130 505 130 540 c 2,33,-1
 130 550 l 2,34,35
 130 588 130 588 145 620.5 c 128,-1,36
 160 653 160 653 187 677 c 128,-1,37
 214 701 214 701 249.5 715.5 c 128,-1,38
 285 730 285 730 326 730 c 2,39,-1
 366 730 l 2,40,41
 401 730 401 730 431 718.5 c 128,-1,42
 461 707 461 707 483 687.5 c 128,-1,43
 505 668 505 668 518 641 c 128,-1,44
 531 614 531 614 531 582 c 2,45,-1
 531 567 l 2,46,47
 531 531 531 531 516.5 503 c 128,-1,48
 502 475 502 475 478 452.5 c 128,-1,49
 454 430 454 430 422 411.5 c 128,-1,50
 390 393 390 393 354 378 c 1,51,-1
 374 356 l 2,52,53
 402 321 402 321 425 294 c 128,-1,54
 448 267 448 267 482 229 c 1,55,56
 493 255 493 255 499 283.5 c 128,-1,57
 505 312 505 312 505 338 c 1,58,-1
 617 338 l 1,0,1
262 336 m 1,59,60
 223 314 223 314 191.5 285 c 128,-1,61
 160 256 160 256 160 222 c 2,62,-1
 160 188 l 2,63,64
 160 170 160 170 169 151.5 c 128,-1,65
 178 133 178 133 193 117 c 128,-1,66
 208 101 208 101 225.5 91 c 128,-1,67
 243 81 243 81 261 81 c 2,68,-1
 306 81 l 2,69,70
 341 81 341 81 372.5 99.5 c 128,-1,71
 404 118 404 118 430 146 c 1,72,-1
 262 336 l 1,59,60
314 457 m 2,73,74
 357 476 357 476 389.5 502 c 128,-1,75
 422 528 422 528 422 567 c 2,76,-1
 422 580 l 2,77,78
 422 606 422 606 404.5 625 c 128,-1,79
 387 644 387 644 363 644 c 2,80,-1
 326 644 l 2,81,82
 289 644 289 644 264.5 616.5 c 128,-1,83
 240 589 240 589 240 550 c 2,84,-1
 240 541 l 2,85,86
 240 528 240 528 246 515.5 c 128,-1,87
 252 503 252 503 259 494 c 2,88,-1
 273 473 l 1,89,90
 273 472 273 472 294 448 c 1,91,-1
 295 448 l 1,92,-1
 314 457 l 2,73,74
EndSplineSet
EndChar
StartChar: quotesingle
Encoding: 39 39 8
Width: 214
VWidth: 1507
Flags: W
HStem: 535 21G<44 158>
VStem: 44 114<535 776 535 776 535 535>
Fore
44 776 m 1,0,-1
 158 776 l 1,1,-1
 158 535 l 1,2,-1
 44 535 l 1,3,-1
 44 776 l 1,0,-1
EndSplineSet
EndChar
StartChar: parenleft
Encoding: 40 40 9
Width: 361
VWidth: 1507
Flags: W
VStem: 63 110<91.2158 441.595>
Fore
211 -205 m 1,0,1
 142 -96 142 -96 102.5 22 c 128,-1,2
 63 140 63 140 63 262 c 0,3,4
 63 390 63 390 99.5 505 c 128,-1,5
 136 620 136 620 211 730 c 1,6,-1
 330 730 l 1,7,8
 252 617 252 617 212.5 502 c 128,-1,9
 173 387 173 387 173 262 c 0,10,11
 173 142 173 142 215.5 23 c 128,-1,12
 258 -96 258 -96 329 -205 c 1,13,-1
 211 -205 l 1,0,1
EndSplineSet
EndChar
StartChar: parenright
Encoding: 41 41 10
Width: 361
VWidth: 1507
Flags: W
VStem: 211 109<93.2033 442.255>
Fore
54 -205 m 1,0,1
 125 -95 125 -95 168 23.5 c 128,-1,2
 211 142 211 142 211 262 c 0,3,4
 211 389 211 389 171 503 c 128,-1,5
 131 617 131 617 53 730 c 1,6,-1
 172 730 l 1,7,8
 247 620 247 620 283.5 505 c 128,-1,9
 320 390 320 390 320 262 c 0,10,11
 320 140 320 140 280.5 22 c 128,-1,12
 241 -96 241 -96 172 -205 c 1,13,-1
 54 -205 l 1,0,1
EndSplineSet
EndChar
StartChar: asterisk
Encoding: 42 42 11
Width: 515
VWidth: 1507
Flags: W
VStem: 202 95<448 574 719 849 448 849 448 448>
Fore
202 718 m 1,0,-1
 202 849 l 1,1,-1
 297 849 l 1,2,-1
 297 719 l 1,3,-1
 415 785 l 1,4,5
 422 773 422 773 430 763 c 256,6,7
 437 752 437 752 444 741.5 c 128,-1,8
 451 731 451 731 458 719 c 1,9,-1
 333 648 l 1,10,-1
 458 579 l 1,11,-1
 416 510 l 1,12,-1
 297 574 l 1,13,-1
 297 448 l 1,14,-1
 202 448 l 1,15,-1
 202 576 l 1,16,-1
 84 511 l 1,17,-1
 42 580 l 1,18,-1
 164 648 l 1,19,-1
 42 716 l 1,20,21
 50 727 50 727 56 739 c 0,22,23
 68 760 68 760 84 784 c 1,24,-1
 202 718 l 1,0,-1
EndSplineSet
EndChar
StartChar: plus
Encoding: 43 43 12
Width: 624
VWidth: 1507
Flags: W
HStem: 297 86<48 255 362 567>
VStem: 255 107<98 297 383 580>
Fore
362 297 m 1,0,-1
 362 98 l 1,1,-1
 255 98 l 1,2,-1
 255 297 l 1,3,-1
 48 297 l 1,4,-1
 48 383 l 1,5,-1
 255 383 l 1,6,-1
 255 580 l 1,7,-1
 362 580 l 1,8,-1
 362 383 l 1,9,-1
 567 383 l 1,10,-1
 567 297 l 1,11,-1
 362 297 l 1,0,-1
EndSplineSet
EndChar
StartChar: comma
Encoding: 44 44 13
Width: 260
VWidth: 1507
Flags: W
HStem: -130 246<62 92 92 92>
VStem: 92 104<23.7499 116>
Fore
92 116 m 1,0,-1
 196 116 l 1,1,-1
 196 65 l 2,2,3
 196 26 196 26 186 -1.5 c 128,-1,4
 176 -29 176 -29 161 -49 c 128,-1,5
 146 -69 146 -69 128 -82.5 c 128,-1,6
 110 -96 110 -96 95 -107 c 2,7,-1
 62 -130 l 1,8,-1
 11 -59 l 1,9,-1
 39 -35 l 2,10,11
 59 -21 59 -21 75.5 0 c 128,-1,12
 92 21 92 21 92 65 c 2,13,-1
 92 116 l 1,0,-1
EndSplineSet
EndChar
StartChar: hyphen
Encoding: 45 45 14
Width: 393
VWidth: 1507
Flags: W
HStem: 279 92<33 353 33 353 33 33>
Fore
33 279 m 1,0,-1
 33 371 l 1,1,-1
 353 371 l 1,2,-1
 353 279 l 1,3,-1
 33 279 l 1,0,-1
EndSplineSet
EndChar
StartChar: period
Encoding: 46 46 15
Width: 304
VWidth: 1507
Flags: W
HStem: -8 127<102.144 208.825>
VStem: 81 150<11.0804 100.951>
Fore
81 57 m 0,0,1
 81 84 81 84 101.5 101.5 c 128,-1,2
 122 119 122 119 155 119 c 256,3,4
 188 119 188 119 209.5 101.5 c 128,-1,5
 231 84 231 84 231 57 c 0,6,7
 231 29 231 29 209.5 10.5 c 128,-1,8
 188 -8 188 -8 155 -8 c 256,9,10
 122 -8 122 -8 101.5 10.5 c 128,-1,11
 81 29 81 29 81 57 c 0,0,1
EndSplineSet
EndChar
StartChar: slash
Encoding: 47 47 16
Width: 495
VWidth: 1507
Flags: W
HStem: 734 20G<381.486 502>
Fore
-17 -24 m 1,0,-1
 392 754 l 1,1,-1
 502 754 l 1,2,-1
 96 -24 l 1,3,-1
 -17 -24 l 1,0,-1
EndSplineSet
EndChar
StartChar: zero
Encoding: 48 48 17
Width: 624
VWidth: 1507
Flags: W
HStem: -8 83<202.976 361.578> 656 83<251.907 413.093>
VStem: 42 110<129.427 504.164> 464 110<192.484 520 520 601.113>
Fore
338 739 m 2,0,1
 452 739 452 739 513 678.5 c 128,-1,2
 574 618 574 618 574 520 c 2,3,-1
 574 255 l 2,4,5
 574 205 574 205 553 157.5 c 128,-1,6
 532 110 532 110 496 73 c 128,-1,7
 460 36 460 36 412.5 14 c 128,-1,8
 365 -8 365 -8 312 -8 c 2,9,-1
 277 -8 l 2,10,11
 164 -8 164 -8 103 53.5 c 128,-1,12
 42 115 42 115 42 214 c 2,13,-1
 42 470 l 2,14,15
 42 520 42 520 62.5 567.5 c 128,-1,16
 83 615 83 615 117.5 653.5 c 128,-1,17
 152 692 152 692 198 715.5 c 128,-1,18
 244 739 244 739 295 739 c 2,19,-1
 338 739 l 2,0,1
152 214 m 2,20,21
 152 155 152 155 184 115 c 128,-1,22
 216 75 216 75 276 75 c 2,23,-1
 301 75 l 2,24,25
 333 75 333 75 362.5 91 c 128,-1,26
 392 107 392 107 414.5 133.5 c 128,-1,27
 437 160 437 160 450.5 191.5 c 128,-1,28
 464 223 464 223 464 255 c 2,29,-1
 464 520 l 2,30,31
 464 579 464 579 431.5 617.5 c 128,-1,32
 399 656 399 656 339 656 c 2,33,-1
 314 656 l 2,34,35
 280 656 280 656 251 639.5 c 128,-1,36
 222 623 222 623 200 596.5 c 128,-1,37
 178 570 178 570 165 536.5 c 128,-1,38
 152 503 152 503 152 470 c 2,39,-1
 152 214 l 2,20,21
EndSplineSet
EndChar
StartChar: one
Encoding: 49 49 18
Width: 428
VWidth: 1507
Flags: W
HStem: 0 21G<208 318> 487 83<41 101.547>
VStem: 41 277<523 570 487 730 570 570> 208 110<0 523 670.391 730>
Fore
208 0 m 1,0,-1
 208 523 l 1,1,2
 176 505 176 505 133 496.5 c 128,-1,3
 90 488 90 488 41 487 c 1,4,-1
 41 570 l 1,5,6
 72 570 72 570 102.5 583.5 c 128,-1,7
 133 597 133 597 156 619 c 128,-1,8
 179 641 179 641 193.5 669.5 c 128,-1,9
 208 698 208 698 208 730 c 1,10,-1
 318 730 l 1,11,-1
 318 0 l 1,12,-1
 208 0 l 1,0,-1
EndSplineSet
EndChar
StartChar: two
Encoding: 50 50 19
Width: 634
VWidth: 1507
Flags: W
HStem: 0 83<158 583> 668 83<230.664 415.233>
VStem: 461 110<494.173 623.12>
Fore
333 751 m 2,0,1
 449 751 449 751 510 695 c 128,-1,2
 571 639 571 639 571 540 c 0,3,4
 571 488 571 488 551.5 451.5 c 128,-1,5
 532 415 532 415 470 371 c 2,6,-1
 213 187 l 2,7,8
 182 166 182 166 171 137.5 c 128,-1,9
 160 109 160 109 158 83 c 1,10,-1
 583 83 l 1,11,-1
 583 0 l 1,12,-1
 42 0 l 1,13,-1
 42 78 l 2,14,15
 42 131 42 131 67 175.5 c 128,-1,16
 92 220 92 220 133 250 c 2,17,-1
 425 460 l 2,18,19
 439 469 439 469 450 493 c 128,-1,20
 461 517 461 517 461 540 c 0,21,22
 461 668 461 668 336 668 c 2,23,-1
 311 668 l 2,24,25
 264 668 264 668 219.5 640 c 128,-1,26
 175 612 175 612 140 573 c 1,27,-1
 59 633 l 1,28,29
 104 687 104 687 169 719 c 128,-1,30
 234 751 234 751 311 751 c 2,31,-1
 333 751 l 2,0,1
EndSplineSet
EndChar
StartChar: three
Encoding: 51 51 20
Width: 642
VWidth: 1507
Flags: W
HStem: -6 83<211.663 372.388> 380 83<203 389.209> 668 83<210.664 397.423>
VStem: 442 111<485.506 623.12> 479 112<180.86 305>
Fore
203 463 m 1,0,-1
 369 463 l 2,1,2
 401 466 401 466 421.5 485.5 c 128,-1,3
 442 505 442 505 442 540 c 0,4,5
 442 668 442 668 318 668 c 2,6,-1
 291 668 l 2,7,8
 244 668 244 668 199.5 640 c 128,-1,9
 155 612 155 612 121 573 c 1,10,-1
 41 633 l 1,11,12
 84 687 84 687 149 719 c 128,-1,13
 214 751 214 751 291 751 c 2,14,-1
 317 751 l 2,15,16
 430 751 430 751 491.5 695 c 128,-1,17
 553 639 553 639 553 540 c 0,18,19
 553 469 553 469 505 425 c 1,20,21
 546 393 546 393 568.5 347 c 128,-1,22
 591 301 591 301 591 256 c 0,23,24
 591 197 591 197 568.5 149 c 128,-1,25
 546 101 546 101 506 66.5 c 128,-1,26
 466 32 466 32 412.5 13 c 128,-1,27
 359 -6 359 -6 295 -6 c 0,28,29
 203 -6 203 -6 140 27 c 128,-1,30
 77 60 77 60 23 128 c 1,31,-1
 101 193 l 1,32,33
 145 143 145 143 192.5 110 c 128,-1,34
 240 77 240 77 297 77 c 0,35,36
 333 77 333 77 366 91.5 c 128,-1,37
 399 106 399 106 424 130 c 128,-1,38
 449 154 449 154 464 187 c 128,-1,39
 479 220 479 220 479 256 c 0,40,41
 479 280 479 280 470 302 c 128,-1,42
 461 324 461 324 445.5 341.5 c 128,-1,43
 430 359 430 359 408.5 369.5 c 128,-1,44
 387 380 387 380 363 380 c 2,45,-1
 203 380 l 1,46,-1
 203 463 l 1,0,-1
EndSplineSet
EndChar
StartChar: four
Encoding: 52 52 21
Width: 639
VWidth: 1507
Flags: W
HStem: 0 21G<395 505> 146 83<178 395 505 600>
VStem: 395 110<0 146 229 541>
Fore
395 0 m 1,0,-1
 395 146 l 1,1,-1
 133 146 l 2,2,3
 89 146 89 146 65.5 164 c 128,-1,4
 42 182 42 182 42 222 c 1,5,-1
 402 730 l 1,6,-1
 505 730 l 1,7,-1
 505 229 l 1,8,-1
 600 229 l 1,9,-1
 600 146 l 1,10,-1
 505 146 l 1,11,-1
 505 0 l 1,12,-1
 395 0 l 1,0,-1
395 541 m 1,13,14
 366 500 366 500 340 462 c 128,-1,15
 314 424 314 424 287.5 386 c 128,-1,16
 261 348 261 348 234 309.5 c 128,-1,17
 207 271 207 271 178 229 c 1,18,-1
 395 229 l 1,19,-1
 395 541 l 1,13,14
EndSplineSet
EndChar
StartChar: five
Encoding: 53 53 22
Width: 657
VWidth: 1507
Flags: W
HStem: -6 83<227.528 389.109> 380 83<219 404.209> 648 82<219 567>
VStem: 107 112<463 648> 494 112<180.86 305.072>
Fore
567 648 m 1,0,-1
 219 648 l 1,1,-1
 219 463 l 1,2,-1
 398 463 l 2,3,4
 443 463 443 463 481.5 445 c 128,-1,5
 520 427 520 427 548 398 c 128,-1,6
 576 369 576 369 591 331.5 c 128,-1,7
 606 294 606 294 606 256 c 0,8,9
 606 197 606 197 583.5 149 c 128,-1,10
 561 101 561 101 521 66.5 c 128,-1,11
 481 32 481 32 427.5 13 c 128,-1,12
 374 -6 374 -6 312 -6 c 0,13,14
 222 -6 222 -6 157.5 27 c 128,-1,15
 93 60 93 60 41 128 c 1,16,-1
 118 193 l 1,17,18
 161 143 161 143 208.5 110 c 128,-1,19
 256 77 256 77 314 77 c 0,20,21
 350 77 350 77 382.5 91.5 c 128,-1,22
 415 106 415 106 439.5 130 c 128,-1,23
 464 154 464 154 479 187 c 128,-1,24
 494 220 494 220 494 256 c 0,25,26
 494 280 494 280 485 302 c 128,-1,27
 476 324 476 324 460.5 341.5 c 128,-1,28
 445 359 445 359 423.5 369.5 c 128,-1,29
 402 380 402 380 378 380 c 2,30,-1
 107 380 l 1,31,-1
 107 730 l 1,32,-1
 567 730 l 1,33,-1
 567 648 l 1,0,-1
EndSplineSet
EndChar
StartChar: six
Encoding: 54 54 23
Width: 649
VWidth: 1507
Flags: W
HStem: -6 83<222.375 385.578> 384 83<275.392 442.233> 614 21G<469.5 499.128> 668 83<278.477 426.273>
VStem: 48 110<407 537.296> 487 111<216.266 259 259 337.695>
Fore
360 467 m 2,0,1
 476 467 476 467 537 413 c 128,-1,2
 598 359 598 359 598 259 c 2,3,-1
 598 249 l 2,4,5
 598 199 598 199 577 152.5 c 128,-1,6
 556 106 556 106 520 71 c 128,-1,7
 484 36 484 36 435.5 15 c 128,-1,8
 387 -6 387 -6 333 -6 c 2,9,-1
 300 -6 l 2,10,11
 214 -6 214 -6 161.5 27 c 128,-1,12
 109 60 109 60 81 116 c 0,13,14
 63 154 63 154 55.5 204.5 c 128,-1,15
 48 255 48 255 48 297 c 2,16,-1
 48 455 l 2,17,18
 48 517 48 517 73 570.5 c 128,-1,19
 98 624 98 624 140 664 c 128,-1,20
 182 704 182 704 238.5 727.5 c 128,-1,21
 295 751 295 751 360 751 c 0,22,23
 463 751 463 751 543 692 c 1,24,-1
 484 614 l 1,25,26
 455 635 455 635 422.5 651.5 c 128,-1,27
 390 668 390 668 360 668 c 0,28,29
 320 668 320 668 283 651.5 c 128,-1,30
 246 635 246 635 218 606 c 128,-1,31
 190 577 190 577 174 538.5 c 128,-1,32
 158 500 158 500 158 457 c 2,33,-1
 158 407 l 1,34,35
 191 439 191 439 229.5 453 c 128,-1,36
 268 467 268 467 320 467 c 2,37,-1
 360 467 l 2,0,1
176 211 m 0,38,39
 176 148 176 148 207 112.5 c 128,-1,40
 238 77 238 77 298 77 c 2,41,-1
 326 77 l 2,42,43
 357 77 357 77 386.5 92 c 128,-1,44
 416 107 416 107 438.5 131 c 128,-1,45
 461 155 461 155 474 186 c 128,-1,46
 487 217 487 217 487 249 c 2,47,-1
 487 259 l 2,48,49
 487 318 487 318 455.5 351 c 128,-1,50
 424 384 424 384 363 384 c 2,51,-1
 336 384 l 2,52,53
 303 384 303 384 274.5 370 c 128,-1,54
 246 356 246 356 224 332 c 128,-1,55
 202 308 202 308 189 276 c 128,-1,56
 176 244 176 244 176 211 c 0,38,39
EndSplineSet
EndChar
StartChar: seven
Encoding: 55 55 24
Width: 602
VWidth: 1507
Flags: W
HStem: 0 21G<181 294> 650 83<30 428>
VStem: 181 113<0 60.2803>
Fore
30 733 m 1,0,-1
 565 733 l 1,1,-1
 565 674 l 1,2,-1
 339 217 l 2,3,4
 318 169 318 169 306 113 c 128,-1,5
 294 57 294 57 294 0 c 1,6,-1
 181 0 l 1,7,8
 184 54 184 54 193 113 c 128,-1,9
 202 172 202 172 225 225 c 0,10,11
 235 247 235 247 247 275 c 128,-1,12
 259 303 259 303 281 349.5 c 128,-1,13
 303 396 303 396 337.5 467 c 128,-1,14
 372 538 372 538 428 650 c 1,15,-1
 30 650 l 1,16,-1
 30 733 l 1,0,-1
EndSplineSet
EndChar
StartChar: eight
Encoding: 56 56 25
Width: 643
VWidth: 1507
Flags: W
HStem: -8 83<201.428 337.266> 353 83<251.907 276 276 375.797> 657 83<246.466 414.859>
VStem: 42 110<123.183 242.098> 72 112<471.483 596.101> 452 113<506.882 619.071> 481 111<157.035 274.419>
Fore
565 544 m 0,0,1
 565 506 565 506 540.5 466.5 c 128,-1,2
 516 427 516 427 485 401 c 1,3,4
 534 375 534 375 563 327.5 c 128,-1,5
 592 280 592 280 592 228 c 0,6,7
 592 169 592 169 569.5 124.5 c 128,-1,8
 547 80 547 80 507 50.5 c 128,-1,9
 467 21 467 21 413.5 6.5 c 128,-1,10
 360 -8 360 -8 297 -8 c 2,11,-1
 277 -8 l 2,12,13
 228 -8 228 -8 185 6.5 c 128,-1,14
 142 21 142 21 110 47.5 c 128,-1,15
 78 74 78 74 60 111.5 c 128,-1,16
 42 149 42 149 42 197 c 0,17,18
 42 244 42 244 71.5 296 c 128,-1,19
 101 348 101 348 145 384 c 1,20,21
 110 409 110 409 91 442 c 128,-1,22
 72 475 72 475 72 520 c 256,23,24
 72 565 72 565 91 605 c 128,-1,25
 110 645 110 645 142.5 675 c 128,-1,26
 175 705 175 705 217 722.5 c 128,-1,27
 259 740 259 740 306 740 c 2,28,-1
 345 740 l 2,29,30
 451 740 451 740 508 688 c 128,-1,31
 565 636 565 636 565 544 c 0,0,1
314 353 m 2,32,33
 280 353 280 353 251 337 c 128,-1,34
 222 321 222 321 200 297.5 c 128,-1,35
 178 274 178 274 165 247 c 128,-1,36
 152 220 152 220 152 197 c 0,37,38
 152 140 152 140 187.5 107.5 c 128,-1,39
 223 75 223 75 276 75 c 2,40,-1
 295 75 l 2,41,42
 333 75 333 75 366 85 c 128,-1,43
 399 95 399 95 425 114.5 c 128,-1,44
 451 134 451 134 466 162.5 c 128,-1,45
 481 191 481 191 481 228 c 0,46,47
 481 252 481 252 470.5 274.5 c 128,-1,48
 460 297 460 297 443.5 314.5 c 128,-1,49
 427 332 427 332 405.5 342.5 c 128,-1,50
 384 353 384 353 365 353 c 2,51,-1
 314 353 l 2,32,33
330 436 m 2,52,53
 354 437 354 437 376.5 447.5 c 128,-1,54
 399 458 399 458 416 474 c 128,-1,55
 433 490 433 490 442.5 509 c 128,-1,56
 452 528 452 528 452 544 c 0,57,58
 452 595 452 595 425 626 c 128,-1,59
 398 657 398 657 345 657 c 2,60,-1
 323 657 l 2,61,62
 265 657 265 657 224.5 618 c 128,-1,63
 184 579 184 579 184 522 c 0,64,65
 184 494 184 494 195.5 477.5 c 128,-1,66
 207 461 207 461 221 452 c 128,-1,67
 235 443 235 443 251 439.5 c 128,-1,68
 267 436 267 436 276 436 c 2,69,-1
 330 436 l 2,52,53
EndSplineSet
EndChar
StartChar: nine
Encoding: 57 57 26
Width: 643
VWidth: 1507
Flags: W
HStem: -6 83<213.469 360.905> 279 83<194.475 364.577> 668 83<254.907 416.169>
VStem: 42 110<405.362 556.516> 481 111<206.704 336>
Fore
279 279 m 2,0,1
 164 279 164 279 103 332.5 c 128,-1,2
 42 386 42 386 42 485 c 2,3,-1
 42 494 l 2,4,5
 42 546 42 546 63 592 c 128,-1,6
 84 638 84 638 120.5 673 c 128,-1,7
 157 708 157 708 204.5 729.5 c 128,-1,8
 252 751 252 751 304 751 c 2,9,-1
 339 751 l 2,10,11
 425 751 425 751 478 717.5 c 128,-1,12
 531 684 531 684 558 627 c 1,13,-1
 558 629 l 1,14,15
 576 592 576 592 584 540 c 128,-1,16
 592 488 592 488 592 448 c 2,17,-1
 592 288 l 2,18,19
 592 226 592 226 567.5 172.5 c 128,-1,20
 543 119 543 119 500.5 79 c 128,-1,21
 458 39 458 39 401 16.5 c 128,-1,22
 344 -6 344 -6 279 -6 c 0,23,24
 226 -6 226 -6 181 10 c 128,-1,25
 136 26 136 26 96 53 c 1,26,-1
 157 130 l 1,27,28
 185 110 185 110 217.5 93.5 c 128,-1,29
 250 77 250 77 279 77 c 0,30,31
 320 77 320 77 356.5 93.5 c 128,-1,32
 393 110 393 110 421 138.5 c 128,-1,33
 449 167 449 167 465 205.5 c 128,-1,34
 481 244 481 244 481 288 c 2,35,-1
 481 336 l 1,36,37
 416 279 416 279 321 279 c 2,38,-1
 279 279 l 2,0,1
464 535 m 0,39,40
 464 595 464 595 432.5 631.5 c 128,-1,41
 401 668 401 668 341 668 c 2,42,-1
 315 668 l 2,43,44
 283 668 283 668 254 653 c 128,-1,45
 225 638 225 638 202 613.5 c 128,-1,46
 179 589 179 589 165.5 557.5 c 128,-1,47
 152 526 152 526 152 494 c 2,48,-1
 152 485 l 2,49,50
 152 362 152 362 277 362 c 2,51,-1
 303 362 l 2,52,53
 336 362 336 362 365.5 376 c 128,-1,54
 395 390 395 390 417 414.5 c 128,-1,55
 439 439 439 439 451.5 470.5 c 128,-1,56
 464 502 464 502 464 535 c 0,39,40
EndSplineSet
EndChar
StartChar: colon
Encoding: 58 58 27
Width: 334
VWidth: 1507
Flags: W
HStem: 26 129<121.174 227.341> 392 128<121.174 227.341>
VStem: 99 150<46.1107 134.889 411.595 500.404>
Fore
99 90 m 256,0,1
 99 116 99 116 120.5 135.5 c 128,-1,2
 142 155 142 155 173 155 c 0,3,4
 207 155 207 155 228 135.5 c 128,-1,5
 249 116 249 116 249 90 c 256,6,7
 249 65 249 65 228 45.5 c 128,-1,8
 207 26 207 26 173 26 c 0,9,10
 142 26 142 26 120.5 45.5 c 128,-1,11
 99 65 99 65 99 90 c 256,0,1
99 455 m 0,12,13
 99 482 99 482 120.5 501 c 128,-1,14
 142 520 142 520 173 520 c 0,15,16
 207 520 207 520 228 501 c 128,-1,17
 249 482 249 482 249 455 c 0,18,19
 249 430 249 430 228 411 c 128,-1,20
 207 392 207 392 173 392 c 0,21,22
 142 392 142 392 120.5 411 c 128,-1,23
 99 430 99 430 99 455 c 0,12,13
EndSplineSet
EndChar
StartChar: semicolon
Encoding: 59 59 28
Width: 334
VWidth: 1507
Flags: W
HStem: 392 128<121.174 226.372>
VStem: 99 148<411.595 500.404> 133 104<63.5657 164>
Fore
99 455 m 0,0,1
 99 482 99 482 120.5 501 c 128,-1,2
 142 520 142 520 173 520 c 0,3,4
 207 520 207 520 227 501 c 128,-1,5
 247 482 247 482 247 455 c 0,6,7
 247 430 247 430 227 411 c 128,-1,8
 207 392 207 392 173 392 c 0,9,10
 142 392 142 392 120.5 411 c 128,-1,11
 99 430 99 430 99 455 c 0,0,1
133 164 m 1,12,-1
 237 164 l 1,13,-1
 237 112 l 2,14,15
 237 66 237 66 225 37 c 128,-1,16
 213 8 213 8 194 -12.5 c 128,-1,17
 175 -33 175 -33 151.5 -48 c 128,-1,18
 128 -63 128 -63 107 -78 c 2,19,-1
 103 -81 l 1,20,-1
 50 -11 l 1,21,22
 63 3 63 3 77.5 12 c 128,-1,23
 92 21 92 21 104 33 c 128,-1,24
 116 45 116 45 123.5 63 c 128,-1,25
 131 81 131 81 133 112 c 2,26,-1
 133 164 l 1,12,-1
EndSplineSet
EndChar
StartChar: less
Encoding: 60 60 29
Width: 673
VWidth: 1507
Flags: W
Fore
621 647 m 1,0,-1
 621 547 l 1,1,-1
 211 309 l 1,2,-1
 621 72 l 1,3,-1
 621 -26 l 1,4,-1
 35 309 l 1,5,-1
 621 647 l 1,0,-1
EndSplineSet
EndChar
StartChar: equal
Encoding: 61 61 30
Width: 574
VWidth: 1507
Flags: W
HStem: 182 92<35 508 35 508 35 35> 374 92<35 508>
Fore
35 182 m 1,0,-1
 35 274 l 1,1,-1
 508 274 l 1,2,-1
 508 182 l 1,3,-1
 35 182 l 1,0,-1
35 374 m 1,4,-1
 35 466 l 1,5,-1
 508 466 l 1,6,-1
 508 374 l 1,7,-1
 35 374 l 1,4,-1
EndSplineSet
EndChar
StartChar: greater
Encoding: 62 62 31
Width: 675
VWidth: 1507
Flags: W
Fore
629 309 m 1,0,-1
 42 -26 l 1,1,-1
 42 72 l 1,2,-1
 451 309 l 1,3,-1
 42 547 l 1,4,-1
 42 647 l 1,5,-1
 629 309 l 1,0,-1
EndSplineSet
EndChar
StartChar: question
Encoding: 63 63 32
Width: 586
VWidth: 1507
Flags: W
HStem: -8 127<197.69 302.341> 644 89<126.219 339.437>
VStem: 175 149<11.0804 100.951> 190 110<163 255.048> 422 110<471.725 598.682>
Fore
175 57 m 0,0,1
 175 84 175 84 197 101.5 c 128,-1,2
 219 119 219 119 250 119 c 256,3,4
 282 119 282 119 303 101.5 c 128,-1,5
 324 84 324 84 324 57 c 0,6,7
 324 29 324 29 303 10.5 c 128,-1,8
 282 -8 282 -8 250 -8 c 256,9,10
 219 -8 219 -8 197 10.5 c 128,-1,11
 175 29 175 29 175 57 c 0,0,1
14 668 m 1,12,13
 39 695 39 695 89.5 714 c 128,-1,14
 140 733 140 733 205 733 c 2,15,-1
 291 733 l 2,16,17
 339 733 339 733 383 720 c 128,-1,18
 427 707 427 707 460 681.5 c 128,-1,19
 493 656 493 656 512.5 619 c 128,-1,20
 532 582 532 582 532 532 c 0,21,22
 532 475 532 475 491.5 425 c 128,-1,23
 451 375 451 375 351 333 c 0,24,25
 335 326 335 326 324.5 313 c 128,-1,26
 314 300 314 300 308.5 285 c 128,-1,27
 303 270 303 270 301.5 255.5 c 128,-1,28
 300 241 300 241 300 232 c 2,29,-1
 300 163 l 1,30,-1
 190 163 l 1,31,-1
 190 232 l 2,32,33
 190 250 190 250 195 275 c 128,-1,34
 200 300 200 300 215.5 325.5 c 128,-1,35
 231 351 231 351 258 376 c 128,-1,36
 285 401 285 401 329 419 c 1,37,-1
 327 419 l 1,38,39
 383 445 383 445 402.5 472.5 c 128,-1,40
 422 500 422 500 422 532 c 0,41,42
 422 586 422 586 383 615 c 128,-1,43
 344 644 344 644 291 644 c 2,44,-1
 205 644 l 2,45,46
 164 644 164 644 125 623.5 c 128,-1,47
 86 603 86 603 60 577 c 1,48,-1
 14 668 l 1,12,13
EndSplineSet
EndChar
StartChar: at
Encoding: 64 64 33
Width: 975
VWidth: 1507
Flags: W
HStem: -26 83<268.455 637.782> 137 82<357.08 492.841 677.172 753.348> 508 81<374.15 529.889> 674 84<306.798 686.515>
VStem: 60 104<163.486 534.202> 235 103<257.829 405 405 471.491> 553 100<254.167 488.404 579 589> 791 104<276.99 567.514>
Fore
553 443 m 2,0,1
 550 470 550 470 530.5 489 c 128,-1,2
 511 508 511 508 485 508 c 2,3,-1
 434 508 l 2,4,5
 393 508 393 508 365.5 478.5 c 128,-1,6
 338 449 338 449 338 405 c 2,7,-1
 338 289 l 2,8,9
 338 259 338 259 356.5 239 c 128,-1,10
 375 219 375 219 402 219 c 2,11,-1
 455 219 l 2,12,13
 496 219 496 219 524 246 c 128,-1,14
 552 273 552 273 553 315 c 2,15,-1
 553 443 l 2,0,1
770 44 m 1,16,17
 724 11 724 11 671 -7.5 c 128,-1,18
 618 -26 618 -26 561 -26 c 2,19,-1
 341 -26 l 2,20,21
 282 -26 282 -26 230.5 -5.5 c 128,-1,22
 179 15 179 15 141.5 49.5 c 128,-1,23
 104 84 104 84 82 132.5 c 128,-1,24
 60 181 60 181 60 235 c 2,25,-1
 60 443 l 2,26,27
 60 510 60 510 86.5 567 c 128,-1,28
 113 624 113 624 159 667 c 128,-1,29
 205 710 205 710 266 734 c 128,-1,30
 327 758 327 758 396 758 c 2,31,-1
 615 758 l 2,32,33
 674 758 674 758 725 738 c 128,-1,34
 776 718 776 718 814 681.5 c 128,-1,35
 852 645 852 645 873.5 597 c 128,-1,36
 895 549 895 549 895 494 c 2,37,-1
 895 392 l 2,38,39
 895 323 895 323 883 275.5 c 128,-1,40
 871 228 871 228 847 198.5 c 128,-1,41
 823 169 823 169 789 155.5 c 128,-1,42
 755 142 755 142 713 142 c 0,43,44
 675 142 675 142 646 156 c 128,-1,45
 617 170 617 170 600 188 c 1,46,47
 570 160 570 160 528.5 148.5 c 128,-1,48
 487 137 487 137 455 137 c 2,49,-1
 402 137 l 2,50,51
 368 137 368 137 337 149 c 128,-1,52
 306 161 306 161 283.5 181.5 c 128,-1,53
 261 202 261 202 248 230 c 128,-1,54
 235 258 235 258 235 289 c 2,55,-1
 235 405 l 2,56,57
 235 445 235 445 251 479 c 128,-1,58
 267 513 267 513 294 537.5 c 128,-1,59
 321 562 321 562 357 575.5 c 128,-1,60
 393 589 393 589 434 589 c 2,61,-1
 485 589 l 2,62,63
 526 589 526 589 553 579 c 1,64,-1
 553 589 l 1,65,-1
 653 589 l 1,66,-1
 653 317 l 2,67,68
 653 279 653 279 668.5 252.5 c 128,-1,69
 684 226 684 226 713 226 c 0,70,71
 758 226 758 226 774.5 275 c 128,-1,72
 791 324 791 324 791 393 c 2,73,-1
 791 500 l 2,74,75
 791 537 791 537 777.5 568.5 c 128,-1,76
 764 600 764 600 741.5 623.5 c 128,-1,77
 719 647 719 647 687.5 660.5 c 128,-1,78
 656 674 656 674 620 674 c 2,79,-1
 393 674 l 2,80,81
 347 674 347 674 305.5 656.5 c 128,-1,82
 264 639 264 639 232 608 c 128,-1,83
 200 577 200 577 182 535.5 c 128,-1,84
 164 494 164 494 164 446 c 2,85,-1
 164 231 l 2,86,87
 164 194 164 194 177.5 162.5 c 128,-1,88
 191 131 191 131 214 107.5 c 128,-1,89
 237 84 237 84 267.5 70.5 c 128,-1,90
 298 57 298 57 335 57 c 2,91,-1
 564 57 l 2,92,93
 600 57 600 57 639 73 c 128,-1,94
 678 89 678 89 718 118 c 1,95,-1
 770 44 l 1,16,17
EndSplineSet
EndChar
StartChar: A
Encoding: 65 65 34
Width: 850
VWidth: 1507
Flags: W
HStem: 0 21G<24 155.5 686.8 817> 200 83<273 565> 720 20G<355.784 389>
Fore
365 740 m 1,0,1
 413 740 413 740 450 724 c 128,-1,2
 487 708 487 708 503 678 c 2,3,-1
 817 0 l 1,4,-1
 696 0 l 1,5,-1
 604 200 l 1,6,-1
 237 200 l 1,7,8
 214 152 214 152 190 100 c 128,-1,9
 166 48 166 48 145 0 c 1,10,-1
 24 0 l 1,11,-1
 365 740 l 1,0,1
273 283 m 1,12,-1
 565 283 l 1,13,14
 546 326 546 326 528 364 c 128,-1,15
 510 402 510 402 493 439 c 128,-1,16
 476 476 476 476 458 515.5 c 128,-1,17
 440 555 440 555 421 598 c 1,18,-1
 273 283 l 1,12,-1
EndSplineSet
EndChar
StartChar: B
Encoding: 66 66 35
Width: 771
VWidth: 1507
Flags: W
HStem: 0 84<170 534.093> 344 83<170 497.406> 654 83<170 461.867>
VStem: 60 110<84 344 427 654> 538 115<471.364 586.887> 612 115<162.447 267.864>
Fore
514 84 m 2,0,1
 534 84 534 84 552 96.5 c 128,-1,2
 570 109 570 109 583.5 128.5 c 128,-1,3
 597 148 597 148 604.5 171 c 128,-1,4
 612 194 612 194 612 216 c 256,5,6
 612 237 612 237 604.5 259.5 c 128,-1,7
 597 282 597 282 583.5 301 c 128,-1,8
 570 320 570 320 552 332 c 128,-1,9
 534 344 534 344 514 344 c 2,10,-1
 170 344 l 1,11,-1
 170 84 l 1,12,-1
 514 84 l 2,0,1
170 654 m 1,13,-1
 170 427 l 1,14,-1
 440 427 l 2,15,16
 481 427 481 427 509.5 461.5 c 128,-1,17
 538 496 538 496 538 538 c 0,18,19
 538 559 538 559 530.5 579.5 c 128,-1,20
 523 600 523 600 509.5 616.5 c 128,-1,21
 496 633 496 633 478 643.5 c 128,-1,22
 460 654 460 654 440 654 c 2,23,-1
 170 654 l 1,13,-1
60 737 m 1,24,-1
 440 737 l 2,25,26
 485 737 485 737 523.5 720.5 c 128,-1,27
 562 704 562 704 591 677 c 128,-1,28
 620 650 620 650 636.5 613.5 c 128,-1,29
 653 577 653 577 653 538 c 0,30,31
 653 503 653 503 638.5 471.5 c 128,-1,32
 624 440 624 440 598 412 c 1,33,34
 654 384 654 384 690.5 329 c 128,-1,35
 727 274 727 274 727 216 c 0,36,37
 727 175 727 175 710 136.5 c 128,-1,38
 693 98 693 98 664.5 68 c 128,-1,39
 636 38 636 38 597 19 c 128,-1,40
 558 0 558 0 514 0 c 2,41,-1
 146 0 l 2,42,43
 112 0 112 0 86 23.5 c 128,-1,44
 60 47 60 47 60 77 c 2,45,-1
 60 737 l 1,24,-1
EndSplineSet
EndChar
StartChar: C
Encoding: 67 67 36
Width: 762
VWidth: 1507
Flags: W
HStem: -15 84<249.844 471.843> 669 85<282.157 502.64>
VStem: 44 113<210.78 524.718> 598 112<197.189 277 500 535.137>
Fore
595 500 m 1,0,1
 595 534 595 534 583 564.5 c 128,-1,2
 571 595 571 595 551 618.5 c 128,-1,3
 531 642 531 642 503.5 655.5 c 128,-1,4
 476 669 476 669 445 669 c 2,5,-1
 359 669 l 2,6,7
 318 669 318 669 281 649.5 c 128,-1,8
 244 630 244 630 216 598.5 c 128,-1,9
 188 567 188 567 172.5 526 c 128,-1,10
 157 485 157 485 157 442 c 2,11,-1
 157 244 l 2,12,13
 157 213 157 213 169 181 c 128,-1,14
 181 149 181 149 201.5 124 c 128,-1,15
 222 99 222 99 249 84 c 128,-1,16
 276 69 276 69 306 69 c 2,17,-1
 395 69 l 2,18,19
 436 69 436 69 473 85 c 128,-1,20
 510 101 510 101 537.5 129.5 c 128,-1,21
 565 158 565 158 581.5 196 c 128,-1,22
 598 234 598 234 598 277 c 1,23,-1
 710 277 l 1,24,25
 710 213 710 213 685 158.5 c 128,-1,26
 660 104 660 104 617 65.5 c 128,-1,27
 574 27 574 27 517 6 c 128,-1,28
 460 -15 460 -15 395 -15 c 2,29,-1
 306 -15 l 2,30,31
 252 -15 252 -15 204.5 6 c 128,-1,32
 157 27 157 27 120.5 63 c 128,-1,33
 84 99 84 99 64 146 c 128,-1,34
 44 193 44 193 44 244 c 2,35,-1
 44 442 l 2,36,37
 44 503 44 503 68.5 560 c 128,-1,38
 93 617 93 617 136 659.5 c 128,-1,39
 179 702 179 702 236.5 728 c 128,-1,40
 294 754 294 754 359 754 c 2,41,-1
 445 754 l 2,42,43
 500 754 500 754 547.5 734.5 c 128,-1,44
 595 715 595 715 630.5 681 c 128,-1,45
 666 647 666 647 686.5 601 c 128,-1,46
 707 555 707 555 707 500 c 1,47,-1
 595 500 l 1,0,1
EndSplineSet
EndChar
StartChar: D
Encoding: 68 68 37
Width: 794
VWidth: 1507
Flags: W
HStem: 0 84<170 487.327> 654 83<170 493.069>
VStem: 60 110<84 654> 615 112<215.22 525.714>
Fore
146 0 m 2,0,1
 112 0 112 0 86 23.5 c 128,-1,2
 60 47 60 47 60 77 c 2,3,-1
 60 737 l 1,4,-1
 461 737 l 2,5,6
 517 737 517 737 565.5 717.5 c 128,-1,7
 614 698 614 698 650 665 c 128,-1,8
 686 632 686 632 706.5 587.5 c 128,-1,9
 727 543 727 543 727 491 c 2,10,-1
 727 297 l 2,11,12
 727 235 727 235 701 181 c 128,-1,13
 675 127 675 127 632 87 c 128,-1,14
 589 47 589 47 532 23.5 c 128,-1,15
 475 0 475 0 410 0 c 2,16,-1
 146 0 l 2,0,1
170 84 m 1,17,-1
 410 84 l 2,18,19
 451 84 451 84 488.5 101 c 128,-1,20
 526 118 526 118 554 146.5 c 128,-1,21
 582 175 582 175 598.5 214 c 128,-1,22
 615 253 615 253 615 297 c 2,23,-1
 615 491 l 2,24,25
 615 525 615 525 603 554 c 128,-1,26
 591 583 591 583 570.5 606 c 128,-1,27
 550 629 550 629 521.5 641.5 c 128,-1,28
 493 654 493 654 461 654 c 2,29,-1
 170 654 l 1,30,-1
 170 84 l 1,17,-1
EndSplineSet
EndChar
StartChar: E
Encoding: 69 69 38
Width: 762
VWidth: 1507
Flags: W
HStem: 0 84<170 693> 344 83<170 618> 654 83<170 693>
VStem: 60 110<84 344 427 654>
Fore
146 0 m 2,0,1
 112 0 112 0 86 23.5 c 128,-1,2
 60 47 60 47 60 77 c 2,3,-1
 60 737 l 1,4,-1
 693 737 l 1,5,-1
 693 654 l 1,6,-1
 170 654 l 1,7,-1
 170 427 l 1,8,-1
 618 427 l 1,9,-1
 618 344 l 1,10,-1
 170 344 l 1,11,-1
 170 84 l 1,12,-1
 693 84 l 1,13,-1
 693 0 l 1,14,-1
 146 0 l 2,0,1
EndSplineSet
EndChar
StartChar: F
Encoding: 70 70 39
Width: 762
VWidth: 1507
Flags: W
HStem: 0 21G<60 170> 344 83<170 618> 654 83<170 693>
VStem: 60 110<0 344 427 654>
Fore
170 344 m 1,0,-1
 170 0 l 1,1,-1
 60 0 l 1,2,-1
 60 737 l 1,3,-1
 693 737 l 1,4,-1
 693 654 l 1,5,-1
 170 654 l 1,6,-1
 170 427 l 1,7,-1
 618 427 l 1,8,-1
 618 344 l 1,9,-1
 170 344 l 1,0,-1
EndSplineSet
EndChar
StartChar: G
Encoding: 71 71 40
Width: 762
VWidth: 1507
Flags: W
HStem: -15 84<249.844 468.874> 253 85<377 598> 669 85<282.157 502.64>
VStem: 44 113<210.78 524.718> 598 112<181.064 253 500 535.137>
Fore
710 265 m 2,0,1
 710 203 710 203 685 151 c 128,-1,2
 660 99 660 99 617 62.5 c 128,-1,3
 574 26 574 26 517 5.5 c 128,-1,4
 460 -15 460 -15 395 -15 c 2,5,-1
 306 -15 l 2,6,7
 252 -15 252 -15 204.5 6 c 128,-1,8
 157 27 157 27 120.5 63 c 128,-1,9
 84 99 84 99 64 146 c 128,-1,10
 44 193 44 193 44 244 c 2,11,-1
 44 442 l 2,12,13
 44 503 44 503 68.5 560 c 128,-1,14
 93 617 93 617 136 659.5 c 128,-1,15
 179 702 179 702 236.5 728 c 128,-1,16
 294 754 294 754 359 754 c 2,17,-1
 445 754 l 2,18,19
 500 754 500 754 547.5 734.5 c 128,-1,20
 595 715 595 715 630.5 681 c 128,-1,21
 666 647 666 647 686.5 601 c 128,-1,22
 707 555 707 555 707 500 c 1,23,-1
 595 500 l 1,24,25
 595 534 595 534 583 564.5 c 128,-1,26
 571 595 571 595 551 618.5 c 128,-1,27
 531 642 531 642 503.5 655.5 c 128,-1,28
 476 669 476 669 445 669 c 2,29,-1
 359 669 l 2,30,31
 318 669 318 669 281 649.5 c 128,-1,32
 244 630 244 630 216 598.5 c 128,-1,33
 188 567 188 567 172.5 526 c 128,-1,34
 157 485 157 485 157 442 c 2,35,-1
 157 244 l 2,36,37
 157 213 157 213 169 181 c 128,-1,38
 181 149 181 149 201.5 124 c 128,-1,39
 222 99 222 99 249 84 c 128,-1,40
 276 69 276 69 306 69 c 2,41,-1
 395 69 l 2,42,43
 434 69 434 69 470 82.5 c 128,-1,44
 506 96 506 96 534 121 c 128,-1,45
 562 146 562 146 578.5 180 c 128,-1,46
 595 214 595 214 598 253 c 1,47,-1
 377 253 l 1,48,-1
 377 338 l 1,49,-1
 710 338 l 1,50,-1
 710 265 l 2,0,1
EndSplineSet
EndChar
StartChar: H
Encoding: 72 72 41
Width: 762
VWidth: 1507
Flags: W
HStem: 0 21G<60 170 583 693> 344 83<170 583> 717 20G<60 170 583 693>
VStem: 60 110<0 344 427 737> 583 110<0 344 427 737>
Fore
583 344 m 1,0,-1
 170 344 l 1,1,-1
 170 0 l 1,2,-1
 60 0 l 1,3,-1
 60 737 l 1,4,-1
 170 737 l 1,5,-1
 170 427 l 1,6,-1
 583 427 l 1,7,-1
 583 737 l 1,8,-1
 693 737 l 1,9,-1
 693 0 l 1,10,-1
 583 0 l 1,11,-1
 583 344 l 1,0,-1
EndSplineSet
EndChar
StartChar: I
Encoding: 73 73 42
Width: 227
VWidth: 1507
Flags: W
HStem: 0 21G<57 167> 717 20G<57 167>
VStem: 57 110<0 737>
Fore
57 737 m 1,0,-1
 167 737 l 1,1,-1
 167 0 l 1,2,-1
 57 0 l 1,3,-1
 57 737 l 1,0,-1
EndSplineSet
EndChar
StartChar: J
Encoding: 74 74 43
Width: 666
VWidth: 1507
Flags: W
HStem: -15 92<219.253 369.378> 717 20G<488 600>
VStem: 488 112<191.095 737>
Fore
133 256 m 1,0,1
 133 222 133 222 145 189.5 c 128,-1,2
 157 157 157 157 177 132 c 128,-1,3
 197 107 197 107 224.5 92 c 128,-1,4
 252 77 252 77 283 77 c 0,5,6
 324 77 324 77 361.5 91.5 c 128,-1,7
 399 106 399 106 427 130.5 c 128,-1,8
 455 155 455 155 471.5 190 c 128,-1,9
 488 225 488 225 488 265 c 2,10,-1
 488 737 l 1,11,-1
 600 737 l 1,12,-1
 600 265 l 2,13,14
 600 203 600 203 575 151 c 128,-1,15
 550 99 550 99 507 62.5 c 128,-1,16
 464 26 464 26 406 5.5 c 128,-1,17
 348 -15 348 -15 283 -15 c 0,18,19
 229 -15 229 -15 181 7.5 c 128,-1,20
 133 30 133 30 97.5 68 c 128,-1,21
 62 106 62 106 41.5 154.5 c 128,-1,22
 21 203 21 203 21 256 c 1,23,-1
 133 256 l 1,0,1
EndSplineSet
EndChar
StartChar: K
Encoding: 75 75 44
Width: 731
VWidth: 1507
Flags: W
HStem: 0 21G<60 170 541.396 707> 717 20G<60 170 511 710>
VStem: 60 110<0 323 449 737>
Fore
562 0 m 1,0,-1
 289 265 l 2,1,2
 259 291 259 291 226 305.5 c 128,-1,3
 193 320 193 320 170 323 c 1,4,-1
 170 0 l 1,5,-1
 60 0 l 1,6,-1
 60 737 l 1,7,-1
 170 737 l 1,8,-1
 170 449 l 1,9,10
 265 522 265 522 364 594 c 128,-1,11
 463 666 463 666 559 737 c 1,12,-1
 710 737 l 1,13,-1
 255 392 l 1,14,15
 303 381 303 381 340.5 351 c 128,-1,16
 378 321 378 321 413 291 c 0,17,18
 415 289 415 289 426 278 c 128,-1,19
 437 267 437 267 468 235 c 128,-1,20
 499 203 499 203 556.5 147.5 c 128,-1,21
 614 92 614 92 707 0 c 1,22,-1
 562 0 l 1,0,-1
EndSplineSet
EndChar
StartChar: L
Encoding: 76 76 45
Width: 669
VWidth: 1507
Flags: W
HStem: 0 84<170 632> 717 20G<60 170>
VStem: 60 110<84 737>
Fore
146 0 m 2,0,1
 112 0 112 0 86 23.5 c 128,-1,2
 60 47 60 47 60 77 c 2,3,-1
 60 737 l 1,4,-1
 170 737 l 1,5,-1
 170 84 l 1,6,-1
 632 84 l 1,7,-1
 632 0 l 1,8,-1
 146 0 l 2,0,1
EndSplineSet
EndChar
StartChar: M
Encoding: 77 77 46
Width: 948
VWidth: 1507
Flags: W
HStem: 0 21G<62 172 766 876> 720 20G<62 177.259 760.815 876>
VStem: 62 110<0 500> 766 110<0 497>
Fore
470 -35 m 1,0,-1
 172 500 l 1,1,-1
 172 0 l 1,2,-1
 62 0 l 1,3,-1
 62 740 l 1,4,-1
 166 740 l 1,5,-1
 470 200 l 1,6,-1
 772 740 l 1,7,-1
 876 740 l 1,8,-1
 876 0 l 1,9,-1
 766 0 l 1,10,-1
 766 497 l 1,11,-1
 470 -35 l 1,0,-1
EndSplineSet
EndChar
StartChar: N
Encoding: 78 78 47
Width: 794
VWidth: 1507
Flags: W
HStem: 0 21G<60 170 606.85 727> 720 20G<60 179.971 612 727>
VStem: 60 110<0 561> 612 115<179 740>
Fore
612 179 m 1,0,-1
 612 740 l 1,1,-1
 727 740 l 1,2,-1
 727 0 l 1,3,-1
 623 0 l 1,4,-1
 170 561 l 1,5,-1
 170 0 l 1,6,-1
 60 0 l 1,7,-1
 60 740 l 1,8,-1
 164 740 l 1,9,-1
 612 179 l 1,0,-1
EndSplineSet
EndChar
StartChar: O
Encoding: 79 79 48
Width: 764
VWidth: 1507
Flags: W
HStem: -15 84<250.845 472.843> 669 85<285.157 506.124>
VStem: 45 113<212.141 524.203> 600 111<212.797 297 297 526.419>
Fore
711 297 m 2,0,1
 711 235 711 235 686.5 178.5 c 128,-1,2
 662 122 662 122 619 79 c 128,-1,3
 576 36 576 36 518.5 10.5 c 128,-1,4
 461 -15 461 -15 396 -15 c 2,5,-1
 309 -15 l 2,6,7
 255 -15 255 -15 206.5 6 c 128,-1,8
 158 27 158 27 122 63 c 128,-1,9
 86 99 86 99 65.5 146.5 c 128,-1,10
 45 194 45 194 45 246 c 2,11,-1
 45 440 l 2,12,13
 45 503 45 503 70 560 c 128,-1,14
 95 617 95 617 138 659.5 c 128,-1,15
 181 702 181 702 239 728 c 128,-1,16
 297 754 297 754 362 754 c 2,17,-1
 448 754 l 2,18,19
 503 754 503 754 551.5 732 c 128,-1,20
 600 710 600 710 635.5 674 c 128,-1,21
 671 638 671 638 691 590.5 c 128,-1,22
 711 543 711 543 711 491 c 2,23,-1
 711 297 l 2,0,1
600 491 m 2,24,25
 600 525 600 525 588 556.5 c 128,-1,26
 576 588 576 588 555.5 613 c 128,-1,27
 535 638 535 638 507 653.5 c 128,-1,28
 479 669 479 669 448 669 c 2,29,-1
 362 669 l 2,30,31
 321 669 321 669 284 649.5 c 128,-1,32
 247 630 247 630 219 598.5 c 128,-1,33
 191 567 191 567 174.5 525.5 c 128,-1,34
 158 484 158 484 158 440 c 2,35,-1
 158 246 l 2,36,37
 158 214 158 214 170 182.5 c 128,-1,38
 182 151 182 151 202.5 126 c 128,-1,39
 223 101 223 101 250 85 c 128,-1,40
 277 69 277 69 309 69 c 2,41,-1
 396 69 l 2,42,43
 437 69 437 69 474 88 c 128,-1,44
 511 107 511 107 539 138.5 c 128,-1,45
 567 170 567 170 583.5 211.5 c 128,-1,46
 600 253 600 253 600 297 c 2,47,-1
 600 491 l 2,24,25
EndSplineSet
EndChar
StartChar: P
Encoding: 80 80 49
Width: 732
VWidth: 1507
Flags: W
HStem: 0 21G<60 170> 344 83<170 540.992> 654 83<170 538.469>
VStem: 60 110<0 344 427 654> 583 110<470.342 607.12>
Fore
60 737 m 1,0,-1
 479 737 l 2,1,2
 525 737 525 737 563 721 c 128,-1,3
 601 705 601 705 630.5 678 c 128,-1,4
 660 651 660 651 676.5 615 c 128,-1,5
 693 579 693 579 693 538 c 256,6,7
 693 497 693 497 676.5 461 c 128,-1,8
 660 425 660 425 630.5 399.5 c 128,-1,9
 601 374 601 374 563 359 c 128,-1,10
 525 344 525 344 479 344 c 2,11,-1
 170 344 l 1,12,-1
 170 0 l 1,13,-1
 60 0 l 1,14,-1
 60 737 l 1,0,-1
170 654 m 1,15,-1
 170 427 l 1,16,-1
 479 427 l 2,17,18
 523 427 523 427 553 460 c 128,-1,19
 583 493 583 493 583 538 c 256,20,21
 583 583 583 583 553 618.5 c 128,-1,22
 523 654 523 654 479 654 c 2,23,-1
 170 654 l 1,15,-1
EndSplineSet
EndChar
StartChar: Q
Encoding: 81 81 50
Width: 762
VWidth: 1507
Flags: W
HStem: -15 84<249.845 475.497> 669 85<284.157 505.124>
VStem: 44 113<212.141 524.203> 598 112<204.438 526.419>
Fore
579 45 m 1,0,1
 541 17 541 17 494.5 1 c 128,-1,2
 448 -15 448 -15 395 -15 c 2,3,-1
 308 -15 l 2,4,5
 253 -15 253 -15 205 6 c 128,-1,6
 157 27 157 27 120.5 63 c 128,-1,7
 84 99 84 99 64 146.5 c 128,-1,8
 44 194 44 194 44 246 c 2,9,-1
 44 440 l 2,10,11
 44 503 44 503 68.5 560 c 128,-1,12
 93 617 93 617 137 659.5 c 128,-1,13
 181 702 181 702 238 728 c 128,-1,14
 295 754 295 754 362 754 c 2,15,-1
 446 754 l 2,16,17
 502 754 502 754 550 732 c 128,-1,18
 598 710 598 710 633.5 674 c 128,-1,19
 669 638 669 638 689.5 590.5 c 128,-1,20
 710 543 710 543 710 491 c 2,21,-1
 710 297 l 2,22,23
 710 249 710 249 694 203 c 128,-1,24
 678 157 678 157 650 116 c 1,25,26
 666 99 666 99 685 80.5 c 128,-1,27
 704 62 704 62 719 45 c 1,28,-1
 645 -24 l 1,29,-1
 579 45 l 1,0,1
598 491 m 2,30,31
 598 525 598 525 586 556.5 c 128,-1,32
 574 588 574 588 554 613 c 128,-1,33
 534 638 534 638 506 653.5 c 128,-1,34
 478 669 478 669 446 669 c 2,35,-1
 362 669 l 2,36,37
 320 669 320 669 283 649.5 c 128,-1,38
 246 630 246 630 218 598.5 c 128,-1,39
 190 567 190 567 173.5 525.5 c 128,-1,40
 157 484 157 484 157 440 c 2,41,-1
 157 246 l 2,42,43
 157 214 157 214 169 182.5 c 128,-1,44
 181 151 181 151 201.5 126 c 128,-1,45
 222 101 222 101 249 85 c 128,-1,46
 276 69 276 69 308 69 c 2,47,-1
 395 69 l 2,48,49
 454 69 454 69 508 112 c 1,50,-1
 398 222 l 1,51,-1
 473 291 l 1,52,-1
 574 191 l 1,53,54
 598 243 598 243 598 297 c 2,55,-1
 598 491 l 2,30,31
EndSplineSet
EndChar
StartChar: R
Encoding: 82 82 51
Width: 746
VWidth: 1507
Flags: W
HStem: 0 21G<60 172 593.531 734> 344 83<172 360.107> 654 83<172 538.941>
VStem: 60 112<0 344 427 654> 583 112<470.226 607.12>
Fore
60 737 m 1,0,-1
 479 737 l 2,1,2
 525 737 525 737 564 721 c 128,-1,3
 603 705 603 705 632.5 678 c 128,-1,4
 662 651 662 651 678.5 615 c 128,-1,5
 695 579 695 579 695 538 c 256,6,7
 695 497 695 497 680 463.5 c 128,-1,8
 665 430 665 430 637.5 404 c 128,-1,9
 610 378 610 378 574 362.5 c 128,-1,10
 538 347 538 347 497 344 c 1,11,12
 513 327 513 327 528 304 c 2,13,-1
 734 0 l 1,14,-1
 607 0 l 1,15,-1
 409 294 l 1,16,-1
 410 292 l 1,17,18
 396 311 396 311 378 327.5 c 128,-1,19
 360 344 360 344 348 344 c 2,20,-1
 172 344 l 1,21,-1
 172 0 l 1,22,-1
 60 0 l 1,23,-1
 60 737 l 1,0,-1
172 654 m 1,24,-1
 172 427 l 1,25,-1
 479 427 l 2,26,27
 523 427 523 427 553 460 c 128,-1,28
 583 493 583 493 583 538 c 256,29,30
 583 583 583 583 553 618.5 c 128,-1,31
 523 654 523 654 479 654 c 2,32,-1
 172 654 l 1,24,-1
EndSplineSet
EndChar
StartChar: S
Encoding: 83 83 52
Width: 826
VWidth: 1507
Flags: W
HStem: -15 84<256.423 515.246> 672 83<310.975 526.918>
VStem: 45 112<180.485 247> 78 111<508.375 509.5 533 535.081 535.081 544.062 539.571 607.578> 660 110<157.091 239.72 236.938 242.501 242.501 254 280.5 290.437>
Fore
157 247 m 1,0,1
 157 211 157 211 169.5 179.5 c 128,-1,2
 182 148 182 148 204 123 c 128,-1,3
 226 98 226 98 255.5 83.5 c 128,-1,4
 285 69 285 69 320 69 c 2,5,-1
 476 69 l 2,6,7
 514 69 514 69 548 81 c 128,-1,8
 582 93 582 93 607 114.5 c 128,-1,9
 632 136 632 136 646 163 c 128,-1,10
 660 190 660 190 660 220 c 0,11,12
 660 235 660 235 656.5 254 c 128,-1,13
 653 273 653 273 641.5 291 c 128,-1,14
 630 309 630 309 611 323.5 c 128,-1,15
 592 338 592 338 562 344 c 2,16,-1
 252 380 l 2,17,18
 187 390 187 390 151.5 412 c 128,-1,19
 116 434 116 434 98.5 459 c 128,-1,20
 81 484 81 484 78 509.5 c 128,-1,21
 75 535 75 535 75 555 c 0,22,23
 75 609 75 609 104 647.5 c 128,-1,24
 133 686 133 686 174.5 709.5 c 128,-1,25
 216 733 216 733 261 744 c 128,-1,26
 306 755 306 755 339 755 c 2,27,-1
 497 755 l 2,28,29
 547 755 547 755 591 738.5 c 128,-1,30
 635 722 635 722 668 692 c 128,-1,31
 701 662 701 662 720.5 619.5 c 128,-1,32
 740 577 740 577 740 525 c 1,33,-1
 629 525 l 1,34,35
 629 555 629 555 618 582 c 128,-1,36
 607 609 607 609 589 629.5 c 128,-1,37
 571 650 571 650 548 661 c 128,-1,38
 525 672 525 672 497 672 c 2,39,-1
 339 672 l 2,40,41
 321 672 321 672 294.5 664.5 c 128,-1,42
 268 657 268 657 244 642 c 128,-1,43
 220 627 220 627 203.5 605 c 128,-1,44
 187 583 187 583 187 555 c 0,45,46
 187 546 187 546 189 533 c 128,-1,47
 191 520 191 520 199.5 508 c 128,-1,48
 208 496 208 496 224.5 486 c 128,-1,49
 241 476 241 476 270 472 c 2,50,-1
 576 433 l 2,51,52
 641 424 641 424 680 399 c 128,-1,53
 719 374 719 374 738.5 344 c 128,-1,54
 758 314 758 314 764 280.5 c 128,-1,55
 770 247 770 247 770 220 c 0,56,57
 770 170 770 170 747.5 127 c 128,-1,58
 725 84 725 84 685 52.5 c 128,-1,59
 645 21 645 21 591.5 3 c 128,-1,60
 538 -15 538 -15 476 -15 c 2,61,-1
 320 -15 l 2,62,63
 262 -15 262 -15 211.5 5.5 c 128,-1,64
 161 26 161 26 124 60.5 c 128,-1,65
 87 95 87 95 66 143 c 128,-1,66
 45 191 45 191 45 247 c 1,67,-1
 157 247 l 1,0,1
EndSplineSet
EndChar
StartChar: T
Encoding: 84 84 53
Width: 637
VWidth: 1507
Flags: W
HStem: 0 21G<261 372> 654 83<29 261 372 601>
VStem: 261 111<0 654>
Fore
261 654 m 1,0,-1
 29 654 l 1,1,-1
 29 737 l 1,2,-1
 601 737 l 1,3,-1
 601 654 l 1,4,-1
 372 654 l 1,5,-1
 372 0 l 1,6,-1
 261 0 l 1,7,-1
 261 654 l 1,0,-1
EndSplineSet
EndChar
StartChar: U
Encoding: 85 85 54
Width: 779
VWidth: 1507
Flags: W
HStem: -15 84<257.876 479.812> 717 20G<51 164 607 718>
VStem: 51 113<212.141 737> 607 111<212.797 737>
Fore
164 737 m 1,0,-1
 164 246 l 2,1,2
 164 214 164 214 176 182.5 c 128,-1,3
 188 151 188 151 208.5 126 c 128,-1,4
 229 101 229 101 257 85 c 128,-1,5
 285 69 285 69 317 69 c 2,6,-1
 402 69 l 2,7,8
 443 69 443 69 481 88 c 128,-1,9
 519 107 519 107 546.5 138.5 c 128,-1,10
 574 170 574 170 590.5 211.5 c 128,-1,11
 607 253 607 253 607 297 c 2,12,-1
 607 737 l 1,13,-1
 718 737 l 1,14,-1
 718 297 l 2,15,16
 718 235 718 235 693 178.5 c 128,-1,17
 668 122 668 122 625 79 c 128,-1,18
 582 36 582 36 524.5 10.5 c 128,-1,19
 467 -15 467 -15 402 -15 c 2,20,-1
 317 -15 l 2,21,22
 261 -15 261 -15 212.5 6 c 128,-1,23
 164 27 164 27 128 63 c 128,-1,24
 92 99 92 99 71.5 146.5 c 128,-1,25
 51 194 51 194 51 246 c 2,26,-1
 51 737 l 1,27,-1
 164 737 l 1,0,-1
EndSplineSet
EndChar
StartChar: V
Encoding: 86 86 55
Width: 768
VWidth: 1507
Flags: W
HStem: -8 21G<403.5 444.054> 717 20G<26 149.873 611.859 736>
Fore
620 737 m 1,0,-1
 736 737 l 1,1,-1
 436 -8 l 1,2,3
 371 -8 371 -8 337.5 13.5 c 128,-1,4
 304 35 304 35 286 75 c 2,5,-1
 26 737 l 1,6,-1
 142 737 l 1,7,-1
 377 140 l 1,8,-1
 620 737 l 1,0,-1
EndSplineSet
EndChar
StartChar: W
Encoding: 87 87 56
Width: 1142
VWidth: 1507
Flags: W
HStem: -8 21G<378.5 417.526 713.581 751.5> 717 20<27 149.942 489 518 961 1103>
Fore
412 -8 m 1,0,1
 345 -8 345 -8 310.5 13.5 c 128,-1,2
 276 35 276 35 256 75 c 2,3,-1
 27 737 l 1,4,-1
 143 737 l 1,5,-1
 345 155 l 1,6,7
 387 309 387 309 427 450.5 c 128,-1,8
 467 592 467 592 511 746 c 1,9,10
 525 746 525 746 543 744.5 c 128,-1,11
 561 743 561 743 578 738 c 128,-1,12
 595 733 595 733 610.5 721.5 c 128,-1,13
 626 710 626 710 633 692 c 2,14,-1
 784 155 l 1,15,16
 835 304 835 304 885.5 446.5 c 128,-1,17
 936 589 936 589 986 737 c 1,18,-1
 1103 737 l 1,19,-1
 873 75 l 2,20,21
 855 35 855 35 819.5 13.5 c 128,-1,22
 784 -8 784 -8 719 -8 c 1,23,-1
 567 553 l 1,24,-1
 412 -8 l 1,0,1
EndSplineSet
EndChar
StartChar: X
Encoding: 88 88 57
Width: 753
VWidth: 1507
Flags: W
HStem: 0 21G<20 169.406 576.452 725> 717 20G<20 169.228 576.491 725>
Fore
154 0 m 1,0,-1
 20 0 l 1,1,-1
 304 368 l 1,2,3
 237 457 237 457 162 553.5 c 128,-1,4
 87 650 87 650 20 737 c 1,5,-1
 154 737 l 1,6,-1
 371 452 l 1,7,-1
 592 737 l 1,8,-1
 725 737 l 1,9,-1
 439 368 l 1,10,11
 508 280 508 280 582.5 183.5 c 128,-1,12
 657 87 657 87 725 0 c 1,13,-1
 592 0 l 1,14,-1
 372 283 l 1,15,-1
 154 0 l 1,0,-1
EndSplineSet
EndChar
StartChar: Y
Encoding: 89 89 58
Width: 734
VWidth: 1507
Flags: W
HStem: 0 21G<306 418> 717 20G<20 160.088 566.421 705>
VStem: 306 112<0 366>
Fore
418 0 m 1,0,-1
 306 0 l 1,1,-1
 306 366 l 1,2,-1
 20 737 l 1,3,-1
 145 737 l 1,4,-1
 360 452 l 1,5,-1
 582 737 l 1,6,-1
 705 737 l 1,7,-1
 418 366 l 1,8,-1
 418 0 l 1,0,-1
EndSplineSet
EndChar
StartChar: Z
Encoding: 90 90 59
Width: 759
VWidth: 1507
Flags: W
HStem: 0 84<225 695> 654 83<54 529>
Fore
54 654 m 1,0,-1
 54 737 l 1,1,-1
 731 737 l 1,2,-1
 225 84 l 1,3,-1
 695 84 l 1,4,-1
 695 0 l 1,5,-1
 20 0 l 1,6,-1
 529 654 l 1,7,-1
 54 654 l 1,0,-1
EndSplineSet
EndChar
StartChar: bracketleft
Encoding: 91 91 60
Width: 325
VWidth: 1507
Flags: W
HStem: -213 80<194.264 280> 736 80<194.982 280>
VStem: 47 107<-122.375 -92 -92 725.168>
Fore
154 -87 m 2,0,1
 154 -113 154 -113 175.5 -123 c 128,-1,2
 197 -133 197 -133 222 -133 c 2,3,-1
 280 -133 l 1,4,-1
 280 -213 l 1,5,-1
 222 -213 l 2,6,7
 187 -213 187 -213 155.5 -206 c 128,-1,8
 124 -199 124 -199 99.5 -184.5 c 128,-1,9
 75 -170 75 -170 61 -147.5 c 128,-1,10
 47 -125 47 -125 47 -92 c 2,11,-1
 47 692 l 2,12,13
 47 725 47 725 61 748.5 c 128,-1,14
 75 772 75 772 99.5 787 c 128,-1,15
 124 802 124 802 155.5 809 c 128,-1,16
 187 816 187 816 222 816 c 2,17,-1
 280 816 l 1,18,-1
 280 736 l 1,19,-1
 222 736 l 2,20,21
 197 736 197 736 175.5 725.5 c 128,-1,22
 154 715 154 715 154 687 c 2,23,-1
 154 -87 l 2,0,1
EndSplineSet
EndChar
StartChar: bracketright
Encoding: 93 93 62
Width: 325
VWidth: 1507
Flags: W
HStem: -213 80<47 132.914> 736 80<47 132.209>
VStem: 173 107<-122.375 725.168>
Fore
173 687 m 2,0,1
 173 715 173 715 151.5 725.5 c 128,-1,2
 130 736 130 736 106 736 c 2,3,-1
 47 736 l 1,4,-1
 47 816 l 1,5,-1
 106 816 l 2,6,7
 140 816 140 816 171.5 809 c 128,-1,8
 203 802 203 802 227.5 787 c 128,-1,9
 252 772 252 772 266 748.5 c 128,-1,10
 280 725 280 725 280 692 c 2,11,-1
 280 -92 l 2,12,13
 280 -125 280 -125 266 -147.5 c 128,-1,14
 252 -170 252 -170 227.5 -184.5 c 128,-1,15
 203 -199 203 -199 171.5 -206 c 128,-1,16
 140 -213 140 -213 106 -213 c 2,17,-1
 47 -213 l 1,18,-1
 47 -133 l 1,19,-1
 106 -133 l 2,20,21
 130 -133 130 -133 151.5 -123 c 128,-1,22
 173 -113 173 -113 173 -87 c 2,23,-1
 173 687 l 2,0,1
EndSplineSet
EndChar
StartChar: asciicircum
Encoding: 94 94 63
Width: 737
VWidth: 1507
Flags: W
HStem: 369 450<184 359 359 359>
Fore
359 636 m 1,0,-1
 184 369 l 1,1,-1
 71 369 l 1,2,-1
 359 819 l 1,3,-1
 651 369 l 1,4,-1
 538 369 l 1,5,-1
 359 636 l 1,0,-1
EndSplineSet
EndChar
StartChar: underscore
Encoding: 95 95 64
Width: 586
VWidth: 1507
Flags: W
HStem: -136 83<-11 589>
Fore
-11 -136 m 1,0,-1
 -11 -53 l 1,1,-1
 589 -53 l 1,2,-1
 589 -136 l 1,3,-1
 -11 -136 l 1,0,-1
EndSplineSet
EndChar
StartChar: grave
Encoding: 96 96 65
Width: 360
VWidth: 1507
Flags: W
HStem: 570 190<130 235 130 130>
VStem: 75 213<618 711 711 711>
Fore
75 711 m 1,0,-1
 130 760 l 1,1,-1
 288 618 l 1,2,3
 277 609 277 609 268 600 c 0,4,5
 261 592 261 592 251 584 c 128,-1,6
 241 576 241 576 235 570 c 1,7,-1
 75 711 l 1,0,-1
EndSplineSet
EndChar
StartChar: a
Encoding: 97 97 66
Width: 577
VWidth: 1507
Flags: W
HStem: -8 83<175.232 305.1> 452 85<243.633 348.559>
VStem: 41 111<138.314 346.792> 413 112<-3 38 158.75 362.492 502 529>
Fore
413 38 m 1,0,1
 383 17 383 17 347 4.5 c 128,-1,2
 311 -8 311 -8 279 -8 c 2,3,-1
 217 -8 l 2,4,5
 176 -8 176 -8 144 7.5 c 128,-1,6
 112 23 112 23 88.5 47.5 c 128,-1,7
 65 72 65 72 53 106 c 128,-1,8
 41 140 41 140 41 176 c 2,9,-1
 41 315 l 2,10,11
 41 360 41 360 59 400 c 128,-1,12
 77 440 77 440 108.5 471 c 128,-1,13
 140 502 140 502 181.5 519.5 c 128,-1,14
 223 537 223 537 270 537 c 2,15,-1
 332 537 l 2,16,17
 362 537 362 537 380.5 524 c 128,-1,18
 399 511 399 511 413 502 c 1,19,-1
 413 529 l 1,20,-1
 525 529 l 1,21,-1
 525 -3 l 1,22,-1
 413 -3 l 1,23,-1
 413 38 l 1,0,1
413 342 m 2,24,25
 412 359 412 359 404 378.5 c 128,-1,26
 396 398 396 398 385.5 414.5 c 128,-1,27
 375 431 375 431 361 441.5 c 128,-1,28
 347 452 347 452 332 452 c 2,29,-1
 270 452 l 2,30,31
 246 452 246 452 224 441 c 128,-1,32
 202 430 202 430 186 410 c 128,-1,33
 170 390 170 390 161 366 c 128,-1,34
 152 342 152 342 152 315 c 2,35,-1
 152 176 l 2,36,37
 152 140 152 140 168.5 107.5 c 128,-1,38
 185 75 185 75 217 75 c 2,39,-1
 279 75 l 2,40,41
 303 75 303 75 326.5 86.5 c 128,-1,42
 350 98 350 98 368.5 116 c 128,-1,43
 387 134 387 134 399.5 158 c 128,-1,44
 412 182 412 182 413 208 c 2,45,-1
 413 342 l 2,24,25
EndSplineSet
Substitution2: "Single Substitution lookup 22 subtable" uni0E38
Substitution2: "Single Substitution lookup 22 subtable" uni0E38
EndChar
StartChar: b
Encoding: 98 98 67
Width: 578
VWidth: 1507
Flags: W
HStem: -8 83<213.381 329.434> 452 85<215.167 361.605>
VStem: 47 111<0 18 114.945 392.659 494 730> 419 110<184.498 380.719>
Fore
47 730 m 1,0,-1
 158 730 l 1,1,-1
 158 494 l 1,2,3
 181 511 181 511 210.5 524 c 128,-1,4
 240 537 240 537 279 537 c 2,5,-1
 342 537 l 2,6,7
 383 537 383 537 417 521.5 c 128,-1,8
 451 506 451 506 475.5 480.5 c 128,-1,9
 500 455 500 455 514.5 422 c 128,-1,10
 529 389 529 389 529 353 c 2,11,-1
 529 213 l 2,12,13
 529 167 529 167 511.5 127 c 128,-1,14
 494 87 494 87 464 57 c 128,-1,15
 434 27 434 27 392.5 9.5 c 128,-1,16
 351 -8 351 -8 304 -8 c 2,17,-1
 243 -8 l 2,18,19
 214 -8 214 -8 194.5 0 c 128,-1,20
 175 8 175 8 158 18 c 1,21,-1
 158 0 l 1,22,-1
 47 0 l 1,23,-1
 47 730 l 1,0,-1
419 354 m 2,24,25
 419 372 419 372 413 389.5 c 128,-1,26
 407 407 407 407 397 420.5 c 128,-1,27
 387 434 387 434 373 443 c 128,-1,28
 359 452 359 452 342 452 c 2,29,-1
 279 452 l 2,30,31
 235 452 235 452 200.5 417.5 c 128,-1,32
 166 383 166 383 158 339 c 1,33,-1
 158 164 l 1,34,35
 164 133 164 133 188.5 104 c 128,-1,36
 213 75 213 75 243 75 c 2,37,-1
 304 75 l 2,38,39
 329 75 329 75 350 87 c 128,-1,40
 371 99 371 99 386 119 c 128,-1,41
 401 139 401 139 410 164.5 c 128,-1,42
 419 190 419 190 419 216 c 2,43,-1
 419 354 l 2,24,25
EndSplineSet
Substitution2: "Single Substitution lookup 22 subtable" uni0E39
Substitution2: "Single Substitution lookup 22 subtable" uni0E39
EndChar
StartChar: c
Encoding: 99 99 68
Width: 572
VWidth: 1507
Flags: W
HStem: -8 83<184.898 362.406> 452 85<243.633 381.444>
VStem: 41 484<155 176 176 203 176 176> 41 111<110.555 346.792> 413 112<125.809 203 354 419.503>
Fore
412 354 m 1,0,1
 412 393 412 393 388.5 422.5 c 128,-1,2
 365 452 365 452 330 452 c 2,3,-1
 270 452 l 2,4,5
 246 452 246 452 224 441 c 128,-1,6
 202 430 202 430 186 410 c 128,-1,7
 170 390 170 390 161 366 c 128,-1,8
 152 342 152 342 152 315 c 2,9,-1
 152 176 l 2,10,11
 152 140 152 140 175.5 107.5 c 128,-1,12
 199 75 199 75 234 75 c 2,13,-1
 295 75 l 2,14,15
 344 75 344 75 378.5 110.5 c 128,-1,16
 413 146 413 146 413 203 c 1,17,-1
 525 203 l 1,18,19
 525 155 525 155 506.5 116 c 128,-1,20
 488 77 488 77 456.5 50 c 128,-1,21
 425 23 425 23 383.5 7.5 c 128,-1,22
 342 -8 342 -8 295 -8 c 2,23,-1
 234 -8 l 2,24,25
 193 -8 193 -8 157.5 7.5 c 128,-1,26
 122 23 122 23 96.5 47.5 c 128,-1,27
 71 72 71 72 56 106 c 128,-1,28
 41 140 41 140 41 176 c 2,29,-1
 41 315 l 2,30,31
 41 360 41 360 59 400 c 128,-1,32
 77 440 77 440 108.5 471 c 128,-1,33
 140 502 140 502 181.5 519.5 c 128,-1,34
 223 537 223 537 270 537 c 2,35,-1
 330 537 l 2,36,37
 371 537 371 537 406.5 523.5 c 128,-1,38
 442 510 442 510 467.5 485.5 c 128,-1,39
 493 461 493 461 508 427 c 128,-1,40
 523 393 523 393 523 354 c 1,41,-1
 412 354 l 1,0,1
EndSplineSet
Substitution2: "Single Substitution lookup 22 subtable" uni0E3A
Substitution2: "Single Substitution lookup 22 subtable" uni0E3A
EndChar
StartChar: d
Encoding: 100 100 69
Width: 580
VWidth: 1507
Flags: W
HStem: -8 83<175.232 305.1> 452 85<243.633 351.257>
VStem: 41 111<138.314 346.792> 413 112<-3 38 158.75 376.823 520 730>
Fore
413 38 m 1,0,1
 389 21 389 21 353.5 6.5 c 128,-1,2
 318 -8 318 -8 279 -8 c 2,3,-1
 217 -8 l 2,4,5
 176 -8 176 -8 144 7.5 c 128,-1,6
 112 23 112 23 88.5 47.5 c 128,-1,7
 65 72 65 72 53 106 c 128,-1,8
 41 140 41 140 41 176 c 2,9,-1
 41 315 l 2,10,11
 41 360 41 360 59 400 c 128,-1,12
 77 440 77 440 108.5 471 c 128,-1,13
 140 502 140 502 181.5 519.5 c 128,-1,14
 223 537 223 537 270 537 c 2,15,-1
 332 537 l 2,16,17
 362 537 362 537 381.5 532.5 c 128,-1,18
 401 528 401 528 413 520 c 1,19,-1
 413 730 l 1,20,-1
 525 730 l 1,21,-1
 525 -3 l 1,22,-1
 413 -3 l 1,23,-1
 413 38 l 1,0,1
413 357 m 2,24,25
 412 374 412 374 404 391.5 c 128,-1,26
 396 409 396 409 385.5 422.5 c 128,-1,27
 375 436 375 436 361 444 c 128,-1,28
 347 452 347 452 332 452 c 2,29,-1
 270 452 l 2,30,31
 246 452 246 452 224 441 c 128,-1,32
 202 430 202 430 186 410 c 128,-1,33
 170 390 170 390 161 366 c 128,-1,34
 152 342 152 342 152 315 c 2,35,-1
 152 176 l 2,36,37
 152 140 152 140 168.5 107.5 c 128,-1,38
 185 75 185 75 217 75 c 2,39,-1
 279 75 l 2,40,41
 303 75 303 75 326.5 86.5 c 128,-1,42
 350 98 350 98 368.5 116 c 128,-1,43
 387 134 387 134 399.5 158 c 128,-1,44
 412 182 412 182 413 208 c 2,45,-1
 413 357 l 2,24,25
EndSplineSet
EndChar
StartChar: e
Encoding: 101 101 70
Width: 574
VWidth: 1507
Flags: W
HStem: -8 83<184.898 359.721> 264 75<152 413> 452 85<205.279 351.129>
VStem: 41 111<110.555 176 176 264 339 397.008> 413 112<130.651 210 339 379.438>
Fore
152 176 m 2,0,1
 152 140 152 140 175.5 107.5 c 128,-1,2
 199 75 199 75 234 75 c 2,3,-1
 295 75 l 2,4,5
 344 75 344 75 378.5 113.5 c 128,-1,6
 413 152 413 152 413 210 c 1,7,-1
 525 210 l 1,8,9
 525 161 525 161 506.5 122 c 128,-1,10
 488 83 488 83 456.5 53.5 c 128,-1,11
 425 24 425 24 383.5 8 c 128,-1,12
 342 -8 342 -8 295 -8 c 2,13,-1
 234 -8 l 2,14,15
 193 -8 193 -8 157.5 7.5 c 128,-1,16
 122 23 122 23 96.5 47.5 c 128,-1,17
 71 72 71 72 56 106 c 128,-1,18
 41 140 41 140 41 176 c 2,19,-1
 41 315 l 2,20,21
 41 360 41 360 59 400 c 128,-1,22
 77 440 77 440 108.5 471 c 128,-1,23
 140 502 140 502 181.5 519.5 c 128,-1,24
 223 537 223 537 270 537 c 2,25,-1
 332 537 l 2,26,27
 372 537 372 537 407.5 521.5 c 128,-1,28
 443 506 443 506 468.5 480.5 c 128,-1,29
 494 455 494 455 509.5 422 c 128,-1,30
 525 389 525 389 525 353 c 2,31,-1
 525 264 l 1,32,-1
 152 264 l 1,33,-1
 152 176 l 2,0,1
270 452 m 2,34,35
 225 452 225 452 191.5 419 c 128,-1,36
 158 386 158 386 152 339 c 1,37,-1
 413 339 l 1,38,-1
 413 353 l 2,39,40
 413 371 413 371 407 388 c 128,-1,41
 401 405 401 405 389.5 419.5 c 128,-1,42
 378 434 378 434 363 443 c 128,-1,43
 348 452 348 452 332 452 c 2,44,-1
 270 452 l 2,34,35
EndSplineSet
EndChar
StartChar: f
Encoding: 102 102 71
Width: 354
VWidth: 1507
Flags: W
HStem: 0 21G<122 232> 452 77<21 122 232 329> 639 91<293.482 371>
VStem: 122 110<0 452 529 579.352>
Fore
122 452 m 1,0,-1
 21 452 l 1,1,-1
 21 529 l 1,2,-1
 122 529 l 1,3,4
 125 571 125 571 145.5 607.5 c 128,-1,5
 166 644 166 644 200 671 c 128,-1,6
 234 698 234 698 277.5 714 c 128,-1,7
 321 730 321 730 371 730 c 1,8,-1
 371 639 l 1,9,10
 317 639 317 639 278.5 606.5 c 128,-1,11
 240 574 240 574 232 529 c 1,12,-1
 329 529 l 1,13,-1
 329 452 l 1,14,-1
 232 452 l 1,15,-1
 232 0 l 1,16,-1
 122 0 l 1,17,-1
 122 452 l 1,0,-1
EndSplineSet
EndChar
StartChar: g
Encoding: 103 103 72
Width: 580
VWidth: 1507
Flags: W
HStem: -184 78<197.594 365.016> 29 84<184.898 334.271> 451 86<244.348 361.102>
VStem: 41 111<148.555 346.792> 413 112<-59.2529 66 173.688 414.039 514 529>
Fore
413 66 m 1,0,1
 387 48 387 48 358.5 38.5 c 128,-1,2
 330 29 330 29 295 29 c 2,3,-1
 234 29 l 2,4,5
 193 29 193 29 157.5 44 c 128,-1,6
 122 59 122 59 96.5 84.5 c 128,-1,7
 71 110 71 110 56 144 c 128,-1,8
 41 178 41 178 41 214 c 2,9,-1
 41 315 l 2,10,11
 41 360 41 360 59 400 c 128,-1,12
 77 440 77 440 108.5 471 c 128,-1,13
 140 502 140 502 181.5 519.5 c 128,-1,14
 223 537 223 537 270 537 c 2,15,-1
 332 537 l 2,16,17
 357 537 357 537 376.5 531 c 128,-1,18
 396 525 396 525 413 514 c 1,19,-1
 413 529 l 1,20,-1
 525 529 l 1,21,-1
 525 3 l 2,22,23
 525 -36 525 -36 503.5 -70 c 128,-1,24
 482 -104 482 -104 448.5 -129 c 128,-1,25
 415 -154 415 -154 374 -169 c 128,-1,26
 333 -184 333 -184 292 -184 c 2,27,-1
 229 -184 l 2,28,29
 166 -184 166 -184 114.5 -146.5 c 128,-1,30
 63 -109 63 -109 42 -51 c 1,31,-1
 164 -51 l 1,32,33
 178 -72 178 -72 197 -89 c 128,-1,34
 216 -106 216 -106 235 -106 c 2,35,-1
 297 -106 l 2,36,37
 342 -106 342 -106 377.5 -74 c 128,-1,38
 413 -42 413 -42 413 3 c 2,39,-1
 413 66 l 1,0,1
413 357 m 2,40,41
 410 392 410 392 386 421.5 c 128,-1,42
 362 451 362 451 332 451 c 2,43,-1
 270 451 l 2,44,45
 246 451 246 451 224 439.5 c 128,-1,46
 202 428 202 428 186 409 c 128,-1,47
 170 390 170 390 161 366 c 128,-1,48
 152 342 152 342 152 315 c 2,49,-1
 152 214 l 2,50,51
 152 178 152 178 175.5 145.5 c 128,-1,52
 199 113 199 113 234 113 c 2,53,-1
 295 113 l 2,54,55
 344 113 344 113 377 153 c 128,-1,56
 410 193 410 193 413 244 c 2,57,-1
 413 357 l 2,40,41
EndSplineSet
EndChar
StartChar: h
Encoding: 104 104 73
Width: 584
VWidth: 1507
Flags: W
HStem: 0 21G<47 158 419 529> 452 85<242.214 361.605>
VStem: 47 111<0 392.659 497 730> 419 110<0 380.719>
Fore
419 354 m 2,0,1
 419 372 419 372 413 389.5 c 128,-1,2
 407 407 407 407 397 420.5 c 128,-1,3
 387 434 387 434 373 443 c 128,-1,4
 359 452 359 452 342 452 c 2,5,-1
 279 452 l 2,6,7
 235 452 235 452 200.5 417.5 c 128,-1,8
 166 383 166 383 158 339 c 1,9,-1
 158 0 l 1,10,-1
 47 0 l 1,11,-1
 47 730 l 1,12,-1
 158 730 l 1,13,-1
 158 497 l 1,14,15
 184 514 184 514 214 525.5 c 128,-1,16
 244 537 244 537 279 537 c 2,17,-1
 342 537 l 2,18,19
 383 537 383 537 417 521.5 c 128,-1,20
 451 506 451 506 475.5 480.5 c 128,-1,21
 500 455 500 455 514.5 422 c 128,-1,22
 529 389 529 389 529 353 c 2,23,-1
 529 0 l 1,24,-1
 419 0 l 1,25,-1
 419 354 l 2,0,1
EndSplineSet
EndChar
StartChar: i
Encoding: 105 105 74
Width: 278
VWidth: 1507
Flags: W
HStem: 0 21G<83 191> 509 20G<83 191> 592 127<86.1437 192.341>
VStem: 65 149<611.08 700.951> 83 108<0 529>
Fore
83 529 m 1,0,-1
 191 529 l 1,1,-1
 191 0 l 1,2,-1
 83 0 l 1,3,-1
 83 529 l 1,0,-1
65 657 m 0,4,5
 65 684 65 684 85.5 701.5 c 128,-1,6
 106 719 106 719 139 719 c 256,7,8
 172 719 172 719 193 701.5 c 128,-1,9
 214 684 214 684 214 657 c 0,10,11
 214 629 214 629 193 610.5 c 128,-1,12
 172 592 172 592 139 592 c 256,13,14
 106 592 106 592 85.5 610.5 c 128,-1,15
 65 629 65 629 65 657 c 0,4,5
EndSplineSet
EndChar
StartChar: j
Encoding: 106 106 75
Width: 278
VWidth: 1507
Flags: W
HStem: -202 90<-121 -10.9185> 509 20G<81 191> 592 127<86.1437 192.341>
VStem: 65 149<611.08 700.951> 81 110<-17.6411 529>
Fore
81 529 m 1,0,-1
 191 529 l 1,1,-1
 191 12 l 2,2,3
 191 -32 191 -32 173 -71 c 128,-1,4
 155 -110 155 -110 124 -139.5 c 128,-1,5
 93 -169 93 -169 51 -185.5 c 128,-1,6
 9 -202 9 -202 -38 -202 c 2,7,-1
 -121 -202 l 1,8,-1
 -121 -112 l 1,9,-1
 -38 -112 l 2,10,11
 -14 -112 -14 -112 8 -102 c 128,-1,12
 30 -92 30 -92 46 -75.5 c 128,-1,13
 62 -59 62 -59 71.5 -36.5 c 128,-1,14
 81 -14 81 -14 81 12 c 2,15,-1
 81 529 l 1,0,-1
65 657 m 0,16,17
 65 684 65 684 85.5 701.5 c 128,-1,18
 106 719 106 719 139 719 c 256,19,20
 172 719 172 719 193 701.5 c 128,-1,21
 214 684 214 684 214 657 c 0,22,23
 214 629 214 629 193 610.5 c 128,-1,24
 172 592 172 592 139 592 c 256,25,26
 106 592 106 592 85.5 610.5 c 128,-1,27
 65 629 65 629 65 657 c 0,16,17
EndSplineSet
EndChar
StartChar: k
Encoding: 107 107 76
Width: 551
VWidth: 1507
Flags: W
HStem: 0 21G<47 158 404 565> 509 20G<353 534>
VStem: 47 111<0 249 366 730>
Fore
241 314 m 1,0,1
 255 306 255 306 267.5 295.5 c 128,-1,2
 280 285 280 285 289 276 c 1,3,-1
 289 277 l 1,4,-1
 565 0 l 1,5,-1
 424 0 l 1,6,-1
 207 217 l 2,7,8
 182 240 182 240 158 249 c 1,9,-1
 158 0 l 1,10,-1
 47 0 l 1,11,-1
 47 730 l 1,12,-1
 158 730 l 1,13,-1
 158 366 l 1,14,15
 214 409 214 409 270 448.5 c 128,-1,16
 326 488 326 488 380 529 c 1,17,-1
 534 529 l 1,18,-1
 241 314 l 1,0,1
EndSplineSet
EndChar
StartChar: l
Encoding: 108 108 77
Width: 278
VWidth: 1507
Flags: W
HStem: 0 21G<83 191>
VStem: 83 108<0 730>
Fore
83 730 m 1,0,-1
 191 730 l 1,1,-1
 191 0 l 1,2,-1
 83 0 l 1,3,-1
 83 730 l 1,0,-1
EndSplineSet
EndChar
StartChar: m
Encoding: 109 109 78
Width: 850
VWidth: 1507
Flags: W
HStem: 0 21G<50 160 363 475 678 788> 452 85<249.72 315.758 545.429 630>
VStem: 50 110<0 365.275 497 529> 363 112<0 373.992> 678 110<0 379.617>
CounterMasks: 1 38
Fore
363 0 m 1,0,-1
 363 353 l 2,1,2
 363 371 363 371 357 388 c 128,-1,3
 351 405 351 405 340 419.5 c 128,-1,4
 329 434 329 434 313.5 443 c 128,-1,5
 298 452 298 452 282 452 c 0,6,7
 259 452 259 452 237.5 443 c 128,-1,8
 216 434 216 434 198.5 419 c 128,-1,9
 181 404 181 404 170.5 383.5 c 128,-1,10
 160 363 160 363 160 341 c 2,11,-1
 160 0 l 1,12,-1
 50 0 l 1,13,-1
 50 529 l 1,14,-1
 160 529 l 1,15,-1
 160 497 l 1,16,17
 185 514 185 514 216 525.5 c 128,-1,18
 247 537 247 537 282 537 c 0,19,20
 326 537 326 537 362 518.5 c 128,-1,21
 398 500 398 500 424 473 c 1,22,23
 455 499 455 499 502 518 c 128,-1,24
 549 537 549 537 597 537 c 0,25,26
 638 537 638 537 672.5 521.5 c 128,-1,27
 707 506 707 506 732.5 480.5 c 128,-1,28
 758 455 758 455 773 422 c 128,-1,29
 788 389 788 389 788 353 c 2,30,-1
 788 0 l 1,31,-1
 678 0 l 1,32,-1
 678 354 l 2,33,34
 678 372 678 372 671.5 389.5 c 128,-1,35
 665 407 665 407 653.5 420.5 c 128,-1,36
 642 434 642 434 628 443 c 128,-1,37
 614 452 614 452 597 452 c 0,38,39
 574 452 574 452 552.5 444.5 c 128,-1,40
 531 437 531 437 513.5 423.5 c 128,-1,41
 496 410 496 410 485.5 391 c 128,-1,42
 475 372 475 372 475 351 c 2,43,-1
 475 0 l 1,44,-1
 363 0 l 1,0,-1
EndSplineSet
EndChar
StartChar: n
Encoding: 110 110 79
Width: 590
VWidth: 1507
Flags: W
HStem: 0 21G<47 158 424 534> 452 85<242.214 361.605>
VStem: 47 111<0 392.659 497 529> 424 110<0 379.065>
Fore
424 354 m 2,0,1
 424 372 424 372 417 389.5 c 128,-1,2
 410 407 410 407 398.5 420.5 c 128,-1,3
 387 434 387 434 373 443 c 128,-1,4
 359 452 359 452 342 452 c 2,5,-1
 279 452 l 2,6,7
 235 452 235 452 200.5 417.5 c 128,-1,8
 166 383 166 383 158 339 c 1,9,-1
 158 0 l 1,10,-1
 47 0 l 1,11,-1
 47 529 l 1,12,-1
 158 529 l 1,13,-1
 158 497 l 1,14,15
 184 514 184 514 214 525.5 c 128,-1,16
 244 537 244 537 279 537 c 2,17,-1
 342 537 l 2,18,19
 383 537 383 537 417.5 521.5 c 128,-1,20
 452 506 452 506 477.5 480.5 c 128,-1,21
 503 455 503 455 518.5 422 c 128,-1,22
 534 389 534 389 534 353 c 2,23,-1
 534 0 l 1,24,-1
 424 0 l 1,25,-1
 424 354 l 2,0,1
EndSplineSet
EndChar
StartChar: o
Encoding: 111 111 80
Width: 574
VWidth: 1507
Flags: W
HStem: -8 83<184.898 321.297> 452 85<243.633 351.129>
VStem: 41 111<110.555 346.792> 413 112<181.684 213 213 379.438>
Fore
525 213 m 2,0,1
 525 167 525 167 506.5 127 c 128,-1,2
 488 87 488 87 456.5 57 c 128,-1,3
 425 27 425 27 383.5 9.5 c 128,-1,4
 342 -8 342 -8 295 -8 c 2,5,-1
 234 -8 l 2,6,7
 193 -8 193 -8 157.5 7.5 c 128,-1,8
 122 23 122 23 96.5 47.5 c 128,-1,9
 71 72 71 72 56 106 c 128,-1,10
 41 140 41 140 41 176 c 2,11,-1
 41 315 l 2,12,13
 41 360 41 360 59 400 c 128,-1,14
 77 440 77 440 108.5 471 c 128,-1,15
 140 502 140 502 181.5 519.5 c 128,-1,16
 223 537 223 537 270 537 c 2,17,-1
 332 537 l 2,18,19
 372 537 372 537 407.5 521.5 c 128,-1,20
 443 506 443 506 468.5 480.5 c 128,-1,21
 494 455 494 455 509.5 422 c 128,-1,22
 525 389 525 389 525 353 c 2,23,-1
 525 213 l 2,0,1
413 353 m 2,24,25
 413 371 413 371 407 388 c 128,-1,26
 401 405 401 405 389.5 419.5 c 128,-1,27
 378 434 378 434 363 443 c 128,-1,28
 348 452 348 452 332 452 c 2,29,-1
 270 452 l 2,30,31
 246 452 246 452 224 441 c 128,-1,32
 202 430 202 430 186 410 c 128,-1,33
 170 390 170 390 161 366 c 128,-1,34
 152 342 152 342 152 315 c 2,35,-1
 152 176 l 2,36,37
 152 140 152 140 175.5 107.5 c 128,-1,38
 199 75 199 75 234 75 c 2,39,-1
 295 75 l 2,40,41
 320 75 320 75 341.5 86.5 c 128,-1,42
 363 98 363 98 379 117.5 c 128,-1,43
 395 137 395 137 404 162 c 128,-1,44
 413 187 413 187 413 213 c 2,45,-1
 413 353 l 2,24,25
EndSplineSet
EndChar
StartChar: p
Encoding: 112 112 81
Width: 580
VWidth: 1507
Flags: W
HStem: -185 21G<47 158> -8 83<209.375 327.297> 452 85<249.949 358.605>
VStem: 47 111<-185 15 111.576 350.06 499 529> 421 110<183.272 353 353 377.818>
Fore
47 529 m 1,0,-1
 158 529 l 1,1,-1
 158 499 l 1,2,3
 181 516 181 516 211 526.5 c 128,-1,4
 241 537 241 537 276 537 c 2,5,-1
 339 537 l 2,6,7
 380 537 380 537 414.5 521.5 c 128,-1,8
 449 506 449 506 474.5 480.5 c 128,-1,9
 500 455 500 455 515.5 422 c 128,-1,10
 531 389 531 389 531 353 c 2,11,-1
 531 213 l 2,12,13
 531 167 531 167 512.5 127 c 128,-1,14
 494 87 494 87 463.5 57 c 128,-1,15
 433 27 433 27 390.5 9.5 c 128,-1,16
 348 -8 348 -8 301 -8 c 2,17,-1
 240 -8 l 2,18,19
 213 -8 213 -8 194 -2.5 c 128,-1,20
 175 3 175 3 158 15 c 1,21,-1
 158 -185 l 1,22,-1
 47 -185 l 1,23,-1
 47 529 l 1,0,-1
421 353 m 2,24,25
 421 371 421 371 414 388 c 128,-1,26
 407 405 407 405 395.5 419.5 c 128,-1,27
 384 434 384 434 370 443 c 128,-1,28
 356 452 356 452 339 452 c 2,29,-1
 276 452 l 2,30,31
 252 452 252 452 231 441 c 128,-1,32
 210 430 210 430 194 411.5 c 128,-1,33
 178 393 178 393 168 370 c 128,-1,34
 158 347 158 347 158 321 c 2,35,-1
 158 176 l 2,36,37
 158 140 158 140 182.5 107.5 c 128,-1,38
 207 75 207 75 240 75 c 2,39,-1
 301 75 l 2,40,41
 326 75 326 75 347.5 86.5 c 128,-1,42
 369 98 369 98 385 117.5 c 128,-1,43
 401 137 401 137 411 162 c 128,-1,44
 421 187 421 187 421 213 c 2,45,-1
 421 353 l 2,24,25
EndSplineSet
EndChar
StartChar: q
Encoding: 113 113 82
Width: 580
VWidth: 1507
Flags: W
HStem: -185 21G<413 525> -8 83<184.898 320.848> 451 86<244.348 360.983>
VStem: 41 111<110.555 346.792> 413 112<-185 32 181.719 414.039 516 529>
Fore
413 32 m 1,0,1
 387 15 387 15 356.5 3.5 c 128,-1,2
 326 -8 326 -8 295 -8 c 2,3,-1
 234 -8 l 2,4,5
 193 -8 193 -8 157.5 7.5 c 128,-1,6
 122 23 122 23 96.5 47.5 c 128,-1,7
 71 72 71 72 56 106 c 128,-1,8
 41 140 41 140 41 176 c 2,9,-1
 41 315 l 2,10,11
 41 360 41 360 59 400 c 128,-1,12
 77 440 77 440 108.5 471 c 128,-1,13
 140 502 140 502 181.5 519.5 c 128,-1,14
 223 537 223 537 270 537 c 2,15,-1
 332 537 l 2,16,17
 357 537 357 537 378 531 c 128,-1,18
 399 525 399 525 413 516 c 1,19,-1
 413 529 l 1,20,-1
 525 529 l 1,21,-1
 525 -185 l 1,22,-1
 413 -185 l 1,23,-1
 413 32 l 1,0,1
413 357 m 2,24,25
 410 392 410 392 386 421.5 c 128,-1,26
 362 451 362 451 332 451 c 2,27,-1
 270 451 l 2,28,29
 246 451 246 451 224 439.5 c 128,-1,30
 202 428 202 428 186 409 c 128,-1,31
 170 390 170 390 161 366 c 128,-1,32
 152 342 152 342 152 315 c 2,33,-1
 152 176 l 2,34,35
 152 140 152 140 175.5 107.5 c 128,-1,36
 199 75 199 75 234 75 c 2,37,-1
 295 75 l 2,38,39
 320 75 320 75 340 86.5 c 128,-1,40
 360 98 360 98 376 116 c 128,-1,41
 392 134 392 134 402 158 c 128,-1,42
 412 182 412 182 413 208 c 2,43,-1
 413 357 l 2,24,25
EndSplineSet
EndChar
StartChar: r
Encoding: 114 114 83
Width: 385
VWidth: 1507
Flags: W
HStem: 0 21G<47 158> 452 85<251.347 360>
VStem: 47 111<0 343.084 499 529>
Fore
47 529 m 1,0,-1
 158 529 l 1,1,-1
 158 499 l 1,2,3
 181 514 181 514 213.5 525.5 c 128,-1,4
 246 537 246 537 276 537 c 2,5,-1
 360 537 l 1,6,-1
 360 452 l 1,7,-1
 276 452 l 2,8,9
 252 452 252 452 231 440 c 128,-1,10
 210 428 210 428 194 408.5 c 128,-1,11
 178 389 178 389 168 364 c 128,-1,12
 158 339 158 339 158 315 c 2,13,-1
 158 0 l 1,14,-1
 47 0 l 1,15,-1
 47 529 l 1,0,-1
EndSplineSet
EndChar
StartChar: s
Encoding: 115 115 84
Width: 622
VWidth: 1507
Flags: W
HStem: -8 83<182.337 400.3> 452 85<248.555 429.422>
VStem: 42 110<106.743 173> 66 112<354.993 410.209> 461 110<354 418.422> 475 110<119.135 182.954>
Fore
205 243 m 2,0,1
 160 249 160 249 133 263 c 128,-1,2
 106 277 106 277 90.5 296 c 128,-1,3
 75 315 75 315 70.5 336 c 128,-1,4
 66 357 66 357 66 377 c 0,5,6
 66 416 66 416 86 446 c 128,-1,7
 106 476 106 476 136 496.5 c 128,-1,8
 166 517 166 517 202 527 c 128,-1,9
 238 537 238 537 273 537 c 2,10,-1
 378 537 l 2,11,12
 419 537 419 537 454.5 523.5 c 128,-1,13
 490 510 490 510 515.5 485.5 c 128,-1,14
 541 461 541 461 556 427 c 128,-1,15
 571 393 571 393 571 354 c 1,16,-1
 461 354 l 1,17,18
 461 393 461 393 436.5 422.5 c 128,-1,19
 412 452 412 452 378 452 c 2,20,-1
 273 452 l 2,21,22
 261 452 261 452 244.5 447.5 c 128,-1,23
 228 443 228 443 213.5 434 c 128,-1,24
 199 425 199 425 188.5 410.5 c 128,-1,25
 178 396 178 396 178 378 c 0,26,27
 178 366 178 366 186 349.5 c 128,-1,28
 194 333 194 333 228 326 c 0,29,30
 280 320 280 320 336.5 313 c 128,-1,31
 393 306 393 306 446 301 c 0,32,33
 493 294 493 294 520 276 c 128,-1,34
 547 258 547 258 561.5 237 c 128,-1,35
 576 216 576 216 580.5 193 c 128,-1,36
 585 170 585 170 585 152 c 0,37,38
 585 118 585 118 569 88.5 c 128,-1,39
 553 59 553 59 525 38 c 128,-1,40
 497 17 497 17 459.5 4.5 c 128,-1,41
 422 -8 422 -8 378 -8 c 2,42,-1
 234 -8 l 2,43,44
 193 -8 193 -8 158.5 6 c 128,-1,45
 124 20 124 20 98 44 c 128,-1,46
 72 68 72 68 57 101 c 128,-1,47
 42 134 42 134 42 173 c 1,48,-1
 152 173 l 1,49,50
 152 133 152 133 175.5 104 c 128,-1,51
 199 75 199 75 234 75 c 2,52,-1
 378 75 l 2,53,54
 390 75 390 75 407 80.5 c 128,-1,55
 424 86 424 86 439 95 c 128,-1,56
 454 104 454 104 464.5 118.5 c 128,-1,57
 475 133 475 133 475 151 c 0,58,59
 475 175 475 175 466 194.5 c 128,-1,60
 457 214 457 214 424 217 c 2,61,-1
 205 243 l 2,0,1
EndSplineSet
EndChar
StartChar: t
Encoding: 116 116 85
Width: 354
VWidth: 1507
Flags: W
HStem: 0 21G<121 232> 452 77<21 121 232 329>
VStem: 121 111<0 452 529 730>
Fore
121 452 m 1,0,-1
 21 452 l 1,1,-1
 21 529 l 1,2,-1
 121 529 l 1,3,-1
 121 730 l 1,4,-1
 232 730 l 1,5,-1
 232 529 l 1,6,-1
 329 529 l 1,7,-1
 329 452 l 1,8,-1
 232 452 l 1,9,-1
 232 0 l 1,10,-1
 121 0 l 1,11,-1
 121 452 l 1,0,-1
EndSplineSet
EndChar
StartChar: u
Encoding: 117 117 86
Width: 584
VWidth: 1507
Flags: W
HStem: -8 83<186.632 332.645> 509 20G<47 158 419 529>
VStem: 47 111<107.063 529> 419 110<0 32 135.008 529>
Fore
158 173 m 2,0,1
 158 137 158 137 179 106 c 128,-1,2
 200 75 200 75 235 75 c 2,3,-1
 297 75 l 2,4,5
 341 75 341 75 376.5 110 c 128,-1,6
 412 145 412 145 419 188 c 1,7,-1
 419 529 l 1,8,-1
 529 529 l 1,9,-1
 529 0 l 1,10,-1
 419 0 l 1,11,-1
 419 32 l 1,12,13
 393 15 393 15 361.5 3.5 c 128,-1,14
 330 -8 330 -8 297 -8 c 2,15,-1
 235 -8 l 2,16,17
 194 -8 194 -8 159.5 7.5 c 128,-1,18
 125 23 125 23 100 47.5 c 128,-1,19
 75 72 75 72 61 106 c 128,-1,20
 47 140 47 140 47 176 c 2,21,-1
 47 529 l 1,22,-1
 158 529 l 1,23,-1
 158 173 l 2,0,1
EndSplineSet
EndChar
StartChar: v
Encoding: 118 118 87
Width: 572
VWidth: 1507
Flags: W
HStem: -8 21G<312 343.858> 509 20G<18 138.641 414.5 547>
Fore
336 -8 m 1,0,1
 288 -8 288 -8 250.5 8 c 128,-1,2
 213 24 213 24 199 54 c 2,3,-1
 18 529 l 1,4,-1
 131 529 l 1,5,-1
 280 139 l 1,6,7
 318 235 318 235 357 334 c 128,-1,8
 396 433 396 433 433 529 c 1,9,-1
 547 529 l 1,10,-1
 336 -8 l 1,0,1
EndSplineSet
EndChar
StartChar: w
Encoding: 119 119 88
Width: 911
VWidth: 1507
Flags: W
HStem: -8 21G<295 329.5 577.732 603> 509 20<20 143.09 397.075 423 755.891 876>
Fore
448 369 m 1,0,1
 415 276 415 276 380 181 c 128,-1,2
 345 86 345 86 314 -8 c 1,3,4
 276 -8 276 -8 246.5 5 c 128,-1,5
 217 18 217 18 207 41 c 2,6,-1
 20 529 l 1,7,-1
 136 529 l 1,8,-1
 270 151 l 1,9,-1
 404 538 l 1,10,11
 442 538 442 538 472.5 525.5 c 128,-1,12
 503 513 503 513 514 487 c 2,13,-1
 629 152 l 1,14,-1
 763 529 l 1,15,-1
 876 529 l 1,16,-1
 693 41 l 2,17,18
 683 17 683 17 652 4.5 c 128,-1,19
 621 -8 621 -8 585 -8 c 1,20,-1
 448 369 l 1,0,1
EndSplineSet
EndChar
StartChar: x
Encoding: 120 120 89
Width: 610
VWidth: 1507
Flags: W
HStem: 0 21G<2 153.5 450.3 601> 509 20G<32 177.069 423.815 570>
Fore
440 529 m 1,0,-1
 570 529 l 1,1,-1
 369 279 l 1,2,3
 422 213 422 213 484.5 139.5 c 128,-1,4
 547 66 547 66 601 0 c 1,5,-1
 467 0 l 1,6,-1
 300 200 l 1,7,8
 259 151 259 151 216 100.5 c 128,-1,9
 173 50 173 50 134 0 c 1,10,-1
 2 0 l 1,11,-1
 231 279 l 1,12,13
 185 336 185 336 130 404 c 128,-1,14
 75 472 75 472 32 529 c 1,15,-1
 161 529 l 1,16,-1
 300 356 l 1,17,-1
 440 529 l 1,0,-1
EndSplineSet
EndChar
StartChar: y
Encoding: 121 121 90
Width: 586
VWidth: 1507
Flags: W
HStem: -184 78<200.594 369.635> 29 86<186.289 334.951> 509 20G<47 158 419 529>
VStem: 47 111<146.455 529> 419 110<-59.2529 68 172.772 529>
Fore
169 -51 m 1,0,1
 181 -72 181 -72 200 -89 c 128,-1,2
 219 -106 219 -106 240 -106 c 2,3,-1
 301 -106 l 2,4,5
 347 -106 347 -106 383 -74 c 128,-1,6
 419 -42 419 -42 419 3 c 2,7,-1
 419 68 l 1,8,9
 393 51 393 51 362.5 40 c 128,-1,10
 332 29 332 29 297 29 c 2,11,-1
 235 29 l 2,12,13
 194 29 194 29 159.5 44 c 128,-1,14
 125 59 125 59 100 84.5 c 128,-1,15
 75 110 75 110 61 144 c 128,-1,16
 47 178 47 178 47 214 c 2,17,-1
 47 529 l 1,18,-1
 158 529 l 1,19,-1
 158 213 l 2,20,21
 158 176 158 176 179 145.5 c 128,-1,22
 200 115 200 115 235 115 c 2,23,-1
 297 115 l 2,24,25
 341 115 341 115 376.5 148.5 c 128,-1,26
 412 182 412 182 419 226 c 1,27,-1
 419 529 l 1,28,-1
 529 529 l 1,29,-1
 529 3 l 2,30,31
 529 -36 529 -36 508 -70 c 128,-1,32
 487 -104 487 -104 453 -129 c 128,-1,33
 419 -154 419 -154 378.5 -169 c 128,-1,34
 338 -184 338 -184 297 -184 c 2,35,-1
 235 -184 l 2,36,37
 170 -184 170 -184 119 -146.5 c 128,-1,38
 68 -109 68 -109 47 -51 c 1,39,-1
 169 -51 l 1,0,1
EndSplineSet
EndChar
StartChar: z
Encoding: 122 122 91
Width: 613
VWidth: 1507
Flags: W
HStem: 0 75<225 553> 452 77<57 378>
Fore
553 0 m 1,0,-1
 32 0 l 1,1,-1
 378 452 l 1,2,-1
 57 452 l 1,3,-1
 57 529 l 1,4,-1
 574 529 l 1,5,-1
 225 75 l 1,6,-1
 553 75 l 1,7,-1
 553 0 l 1,0,-1
EndSplineSet
EndChar
StartChar: braceleft
Encoding: 123 123 92
Width: 468
VWidth: 1507
Flags: W
HStem: -213 80<318.609 404> 265 24<39 57.9935> 736 80<319.332 404>
VStem: 172 107<-122.684 -92 -92 175.25 373.782 725.168>
Fore
279 -87 m 2,0,1
 279 -113 279 -113 300 -123 c 128,-1,2
 321 -133 321 -133 347 -133 c 2,3,-1
 404 -133 l 1,4,-1
 404 -213 l 1,5,-1
 347 -213 l 2,6,7
 312 -213 312 -213 280.5 -206 c 128,-1,8
 249 -199 249 -199 224.5 -184.5 c 128,-1,9
 200 -170 200 -170 186 -147.5 c 128,-1,10
 172 -125 172 -125 172 -92 c 2,11,-1
 172 130 l 2,12,13
 172 152 172 152 157.5 176 c 128,-1,14
 143 200 143 200 122 220 c 128,-1,15
 101 240 101 240 78.5 252.5 c 128,-1,16
 56 265 56 265 39 265 c 1,17,-1
 39 289 l 1,18,19
 56 289 56 289 78.5 300 c 128,-1,20
 101 311 101 311 122 329.5 c 128,-1,21
 143 348 143 348 157.5 373 c 128,-1,22
 172 398 172 398 172 427 c 2,23,-1
 172 692 l 2,24,25
 172 725 172 725 186 748.5 c 128,-1,26
 200 772 200 772 224.5 787 c 128,-1,27
 249 802 249 802 280.5 809 c 128,-1,28
 312 816 312 816 347 816 c 2,29,-1
 404 816 l 1,30,-1
 404 736 l 1,31,-1
 347 736 l 2,32,33
 321 736 321 736 300 725.5 c 128,-1,34
 279 715 279 715 279 687 c 2,35,-1
 279 427 l 2,36,37
 279 369 279 369 249.5 330 c 128,-1,38
 220 291 220 291 190 274 c 1,39,40
 219 253 219 253 249 215.5 c 128,-1,41
 279 178 279 178 279 130 c 2,42,-1
 279 -87 l 2,0,1
EndSplineSet
EndChar
StartChar: bar
Encoding: 124 124 93
Width: 277
VWidth: 1507
Flags: W
VStem: 83 108<-149 879>
Fore
83 879 m 1,0,-1
 191 879 l 1,1,-1
 191 -149 l 1,2,-1
 83 -149 l 1,3,-1
 83 879 l 1,0,-1
EndSplineSet
EndChar
StartChar: braceright
Encoding: 125 125 94
Width: 468
VWidth: 1507
Flags: W
HStem: -213 80<56 141.558> 265 24<403.006 422> 736 80<56 140.826>
VStem: 182 107<-122.375 160.134 373.782 725.168>
Fore
182 130 m 2,0,1
 182 154 182 154 190.5 176.5 c 128,-1,2
 199 199 199 199 212.5 218 c 128,-1,3
 226 237 226 237 241 251 c 128,-1,4
 256 265 256 265 270 276 c 1,5,6
 241 292 241 292 211.5 331.5 c 128,-1,7
 182 371 182 371 182 427 c 2,8,-1
 182 687 l 2,9,10
 182 715 182 715 160.5 725.5 c 128,-1,11
 139 736 139 736 113 736 c 2,12,-1
 56 736 l 1,13,-1
 56 816 l 1,14,-1
 113 816 l 2,15,16
 148 816 148 816 179.5 809 c 128,-1,17
 211 802 211 802 236 787 c 128,-1,18
 261 772 261 772 275 748.5 c 128,-1,19
 289 725 289 725 289 692 c 2,20,-1
 289 427 l 2,21,22
 289 398 289 398 303.5 373 c 128,-1,23
 318 348 318 348 339 329.5 c 128,-1,24
 360 311 360 311 382.5 300 c 128,-1,25
 405 289 405 289 422 289 c 1,26,-1
 422 265 l 1,27,28
 405 265 405 265 382.5 252.5 c 128,-1,29
 360 240 360 240 339 220 c 128,-1,30
 318 200 318 200 303.5 176 c 128,-1,31
 289 152 289 152 289 130 c 2,32,-1
 289 -92 l 2,33,34
 289 -125 289 -125 275 -147.5 c 128,-1,35
 261 -170 261 -170 236 -184.5 c 128,-1,36
 211 -199 211 -199 179.5 -206 c 128,-1,37
 148 -213 148 -213 113 -213 c 2,38,-1
 56 -213 l 1,39,-1
 56 -133 l 1,40,-1
 113 -133 l 2,41,42
 139 -133 139 -133 160.5 -123 c 128,-1,43
 182 -113 182 -113 182 -87 c 2,44,-1
 182 130 l 2,0,1
EndSplineSet
EndChar
StartChar: asciitilde
Encoding: 126 126 95
Width: 639
VWidth: 1507
Flags: W
HStem: 256 91<379.868 470.498> 381 91<172.913 242.982>
VStem: 36 95<267 340.661> 506 95<390.059 461>
Fore
433 347 m 0,0,1
 458 347 458 347 478.5 379.5 c 128,-1,2
 499 412 499 412 506 461 c 1,3,-1
 601 461 l 1,4,5
 601 409 601 409 584 370.5 c 128,-1,6
 567 332 567 332 541.5 306 c 128,-1,7
 516 280 516 280 486.5 268 c 128,-1,8
 457 256 457 256 433 256 c 0,9,10
 366 256 366 256 330.5 282.5 c 128,-1,11
 295 309 295 309 271 336 c 0,12,13
 255 353 255 353 239 367 c 128,-1,14
 223 381 223 381 205 381 c 0,15,16
 179 381 179 381 158 349 c 128,-1,17
 137 317 137 317 131 267 c 1,18,-1
 36 267 l 1,19,20
 36 318 36 318 53.5 357 c 128,-1,21
 71 396 71 396 96.5 421 c 128,-1,22
 122 446 122 446 151.5 459 c 128,-1,23
 181 472 181 472 205 472 c 0,24,25
 259 472 259 472 288 450 c 128,-1,26
 317 428 317 428 341 402 c 0,27,28
 362 381 362 381 382 364 c 128,-1,29
 402 347 402 347 433 347 c 0,0,1
EndSplineSet
EndChar
StartChar: quotedbl
Encoding: 34 34 97
Width: 385
VWidth: 1507
Flags: W
HStem: 535 241<45 160 219 333>
VStem: 45 115<535 776> 219 114<535 776>
Fore
45 776 m 1,0,-1
 160 776 l 1,1,-1
 160 535 l 1,2,-1
 45 535 l 1,3,-1
 45 776 l 1,0,-1
219 776 m 1,4,-1
 333 776 l 1,5,-1
 333 535 l 1,6,-1
 219 535 l 1,7,-1
 219 776 l 1,4,-1
EndSplineSet
EndChar
StartChar: exclam
Encoding: 33 33 98
Width: 304
VWidth: 1507
Flags: W
HStem: -2 118<110.565 199.92>
VStem: 92 127<15.5332 98.9821> 99 111<163 733>
Fore
99 733 m 1,0,-1
 210 733 l 1,1,-1
 210 163 l 1,2,-1
 99 163 l 1,3,-1
 99 733 l 1,0,-1
92 57 m 256,4,5
 92 32 92 32 110 15 c 128,-1,6
 128 -2 128 -2 155 -2 c 256,7,8
 182 -2 182 -2 200.5 15 c 128,-1,9
 219 32 219 32 219 57 c 256,10,11
 219 83 219 83 200.5 99.5 c 128,-1,12
 182 116 182 116 155 116 c 256,13,14
 128 116 128 116 110 99.5 c 128,-1,15
 92 83 92 83 92 57 c 256,4,5
EndSplineSet
EndChar
StartChar: cent
Encoding: 162 162 101
Width: 625
VWidth: 1507
Flags: W
HStem: 555 83<372 414.601>
VStem: 74 484<265 280 280 306 280 280> 74 111<254.688 493.843> 261 111<-21 95 638 757> 448 110<230.611 306 457 520.13>
Fore
348 178 m 1,0,1
 390 184 390 184 419 218.5 c 128,-1,2
 448 253 448 253 448 306 c 1,3,-1
 558 306 l 1,4,5
 558 265 558 265 543 229.5 c 128,-1,6
 528 194 528 194 503 168 c 128,-1,7
 478 142 478 142 444 124 c 128,-1,8
 410 106 410 106 372 98 c 1,9,-1
 372 -21 l 1,10,-1
 261 -21 l 1,11,-1
 261 95 l 1,12,13
 222 96 222 96 187 111.5 c 128,-1,14
 152 127 152 127 127.5 152.5 c 128,-1,15
 103 178 103 178 88.5 211 c 128,-1,16
 74 244 74 244 74 280 c 2,17,-1
 74 418 l 2,18,19
 74 458 74 458 87.5 495 c 128,-1,20
 101 532 101 532 126 560.5 c 128,-1,21
 151 589 151 589 185 609 c 128,-1,22
 219 629 219 629 261 635 c 1,23,-1
 261 757 l 1,24,-1
 372 757 l 1,25,-1
 372 638 l 1,26,27
 410 636 410 636 444 622.5 c 128,-1,28
 478 609 478 609 503 585 c 128,-1,29
 528 561 528 561 542 527.5 c 128,-1,30
 556 494 556 494 556 457 c 1,31,-1
 446 457 l 1,32,33
 446 497 446 497 422 526 c 128,-1,34
 398 555 398 555 365 555 c 2,35,-1
 283 555 l 1,36,37
 244 544 244 544 214.5 505 c 128,-1,38
 185 466 185 466 185 418 c 2,39,-1
 185 280 l 2,40,41
 185 262 185 262 192 244 c 128,-1,42
 199 226 199 226 210.5 211 c 128,-1,43
 222 196 222 196 236 187 c 128,-1,44
 250 178 250 178 267 178 c 2,45,-1
 348 178 l 1,0,1
EndSplineSet
EndChar
StartChar: sterling
Encoding: 163 163 102
Width: 625
VWidth: 1507
Flags: W
HStem: 0 83<62 88.9648 276 580> 311 90<59 194 323 510> 648 91<370.726 448.585>
VStem: 189 108.5<427.352 490.3 490.3 491.788 491.044 569.786> 229 110<157.839 262.548>
Fore
323 311 m 1,0,1
 332 258 332 258 339 207 c 1,2,3
 339 175 339 175 320 140.5 c 128,-1,4
 301 106 301 106 276 83 c 1,5,-1
 580 83 l 1,6,-1
 580 0 l 1,7,-1
 62 0 l 1,8,-1
 62 83 l 1,9,10
 84 83 84 83 113 93.5 c 128,-1,11
 142 104 142 104 167.5 120.5 c 128,-1,12
 193 137 193 137 211 159.5 c 128,-1,13
 229 182 229 182 229 207 c 0,14,15
 229 208 229 208 228 216 c 2,16,-1
 211 311 l 1,17,-1
 59 311 l 1,18,-1
 59 401 l 1,19,-1
 194 401 l 1,20,21
 190 440 190 440 189 462 c 128,-1,22
 188 484 188 484 188 519 c 0,23,24
 188 562 188 562 206.5 602 c 128,-1,25
 225 642 225 642 255.5 672 c 128,-1,26
 286 702 286 702 327.5 720.5 c 128,-1,27
 369 739 369 739 418 739 c 0,28,29
 455 739 455 739 490.5 723.5 c 128,-1,30
 526 708 526 708 555 683 c 1,31,-1
 487 603 l 1,32,33
 469 624 469 624 450 636 c 128,-1,34
 431 648 431 648 418 648 c 0,35,36
 392 648 392 648 370 637.5 c 128,-1,37
 348 627 348 627 332.5 609.5 c 128,-1,38
 317 592 317 592 307 569 c 128,-1,39
 297 546 297 546 297 519 c 0,40,41
 297 493 297 493 297.5 464.5 c 128,-1,42
 298 436 298 436 306 401 c 1,43,-1
 510 401 l 1,44,-1
 510 311 l 1,45,-1
 323 311 l 1,0,1
EndSplineSet
EndChar
StartChar: currency
Encoding: 164 164 103
Width: 791
VWidth: 1507
Flags: W
HStem: 66 88<325.814 472.233> 556 88<305.576 469.408>
VStem: 80 111<272.781 434.326> 586 112<273.508 414.691>
Fore
139 184 m 1,0,1
 110 220 110 220 95 265.5 c 128,-1,2
 80 311 80 311 80 354 c 0,3,4
 80 401 80 401 93.5 444.5 c 128,-1,5
 107 488 107 488 139 528 c 1,6,-1
 77 589 l 1,7,-1
 146 657 l 1,8,-1
 214 592 l 1,9,10
 289 644 289 644 390 644 c 0,11,12
 488 644 488 644 567 591 c 1,13,-1
 636 657 l 1,14,-1
 704 589 l 1,15,-1
 639 526 l 1,16,17
 672 487 672 487 685 442.5 c 128,-1,18
 698 398 698 398 698 354 c 256,19,20
 698 311 698 311 683 267 c 128,-1,21
 668 223 668 223 639 185 c 1,22,-1
 704 121 l 1,23,-1
 635 54 l 1,24,-1
 568 119 l 1,25,26
 531 93 531 93 484 79.5 c 128,-1,27
 437 66 437 66 389 66 c 0,28,29
 339 66 339 66 293 79 c 128,-1,30
 247 92 247 92 213 119 c 1,31,-1
 146 54 l 1,32,-1
 77 121 l 1,33,-1
 139 184 l 1,0,1
389 556 m 0,34,35
 345 556 345 556 309 539 c 128,-1,36
 273 522 273 522 247.5 493 c 128,-1,37
 222 464 222 464 206.5 428 c 128,-1,38
 191 392 191 392 191 354 c 0,39,40
 191 314 191 314 206.5 277.5 c 128,-1,41
 222 241 222 241 249 213 c 128,-1,42
 276 185 276 185 312 169.5 c 128,-1,43
 348 154 348 154 389 154 c 256,44,45
 430 154 430 154 466 169.5 c 128,-1,46
 502 185 502 185 528.5 213 c 128,-1,47
 555 241 555 241 570.5 277.5 c 128,-1,48
 586 314 586 314 586 354 c 256,49,50
 586 395 586 395 570.5 431 c 128,-1,51
 555 467 555 467 527.5 495 c 128,-1,52
 500 523 500 523 465 539.5 c 128,-1,53
 430 556 430 556 389 556 c 0,34,35
EndSplineSet
EndChar
StartChar: yen
Encoding: 165 165 104
Width: 625
VWidth: 1507
Flags: W
HStem: 0 21G<241 351> 259 88<72 241 351 523>
VStem: 241 110<0 259 347 362>
Fore
241 259 m 1,0,-1
 72 259 l 1,1,-1
 72 347 l 1,2,-1
 241 347 l 1,3,-1
 241 362 l 1,4,-1
 -12 730 l 1,5,-1
 110 730 l 1,6,-1
 295 452 l 1,7,-1
 484 730 l 1,8,-1
 604 730 l 1,9,-1
 351 363 l 1,10,-1
 351 347 l 1,11,-1
 523 347 l 1,12,-1
 523 259 l 1,13,-1
 351 259 l 1,14,-1
 351 0 l 1,15,-1
 241 0 l 1,16,-1
 241 259 l 1,0,-1
EndSplineSet
EndChar
StartChar: brokenbar
Encoding: 166 166 105
Width: 266
VWidth: 1507
Flags: W
HStem: 440 439<83 191 83 191 83 83>
VStem: 83 108<-149 329 440 879>
Fore
83 440 m 1,0,-1
 83 879 l 1,1,-1
 191 879 l 1,2,-1
 191 440 l 1,3,-1
 83 440 l 1,0,-1
191 329 m 1,4,-1
 191 -149 l 1,5,-1
 83 -149 l 1,6,-1
 83 329 l 1,7,-1
 191 329 l 1,4,-1
EndSplineSet
EndChar
StartChar: section
Encoding: 167 167 106
Width: 652
VWidth: 1507
Flags: W
HStem: -53 83<176.987 394.383> 677 83<271.32 452.274>
VStem: 36 109<63.2905 128> 60 110<360.59 412.786> 90 109<577.492 633.534> 469 110<80.4333 140.744> 484 111<579 644.714> 499 110<286.026 363.456>
Fore
90 600 m 0,0,1
 90 639 90 639 110 669 c 128,-1,2
 130 699 130 699 159 719.5 c 128,-1,3
 188 740 188 740 224.5 750 c 128,-1,4
 261 760 261 760 295 760 c 2,5,-1
 402 760 l 2,6,7
 443 760 443 760 478.5 746.5 c 128,-1,8
 514 733 514 733 539.5 708.5 c 128,-1,9
 565 684 565 684 580 651 c 128,-1,10
 595 618 595 618 595 579 c 1,11,-1
 484 579 l 1,12,13
 484 618 484 618 460 647.5 c 128,-1,14
 436 677 436 677 402 677 c 2,15,-1
 295 677 l 2,16,17
 283 677 283 677 267.5 672.5 c 128,-1,18
 252 668 252 668 236 658 c 128,-1,19
 220 648 220 648 209.5 634 c 128,-1,20
 199 620 199 620 199 601 c 0,21,22
 199 591 199 591 210.5 576 c 128,-1,23
 222 561 222 561 253 549 c 2,24,-1
 473 476 l 2,25,26
 517 463 517 463 543.5 445 c 128,-1,27
 570 427 570 427 585 406.5 c 128,-1,28
 600 386 600 386 604.5 365.5 c 128,-1,29
 609 345 609 345 609 327 c 0,30,31
 609 249 609 249 535 207 c 1,32,33
 561 181 561 181 570 155.5 c 128,-1,34
 579 130 579 130 579 107 c 0,35,36
 579 72 579 72 563 43 c 128,-1,37
 547 14 547 14 519 -7.5 c 128,-1,38
 491 -29 491 -29 453.5 -41 c 128,-1,39
 416 -53 416 -53 374 -53 c 2,40,-1
 228 -53 l 2,41,42
 187 -53 187 -53 152.5 -39.5 c 128,-1,43
 118 -26 118 -26 92 -1.5 c 128,-1,44
 66 23 66 23 51 56 c 128,-1,45
 36 89 36 89 36 128 c 1,46,-1
 145 128 l 1,47,48
 145 89 145 89 169.5 59.5 c 128,-1,49
 194 30 194 30 228 30 c 2,50,-1
 374 30 l 2,51,52
 384 30 384 30 401 35.5 c 128,-1,53
 418 41 418 41 433 50.5 c 128,-1,54
 448 60 448 60 458.5 73.5 c 128,-1,55
 469 87 469 87 469 106 c 0,56,57
 469 131 469 131 457.5 146 c 128,-1,58
 446 161 446 161 416 172 c 2,59,-1
 194 246 l 2,60,61
 152 259 152 259 125.5 275 c 128,-1,62
 99 291 99 291 85 308.5 c 128,-1,63
 71 326 71 326 65.5 344 c 128,-1,64
 60 362 60 362 60 380 c 0,65,66
 60 421 60 421 83.5 452.5 c 128,-1,67
 107 484 107 484 142 505 c 1,68,69
 107 528 107 528 98.5 551 c 128,-1,70
 90 574 90 574 90 600 c 0,0,1
499 326 m 0,71,72
 499 351 499 351 487 367 c 128,-1,73
 475 383 475 383 445 393 c 0,74,75
 399 409 399 409 350 425.5 c 128,-1,76
 301 442 301 442 256 455 c 1,77,78
 244 452 244 452 229 447 c 128,-1,79
 214 442 214 442 201 433 c 128,-1,80
 188 424 188 424 179 411 c 128,-1,81
 170 398 170 398 170 381 c 0,82,83
 170 369 170 369 178.5 355 c 128,-1,84
 187 341 187 341 225 329 c 2,85,-1
 434 258 l 1,86,87
 455 267 455 267 477 285.5 c 128,-1,88
 499 304 499 304 499 326 c 0,71,72
EndSplineSet
EndChar
StartChar: dieresis
Encoding: 168 168 107
Width: 384
VWidth: 1507
Flags: W
HStem: 598 129<23.6592 130.341 245.69 350.341>
VStem: 2 150<617.08 707.92> 223 149<617.08 707.92>
Fore
2 663 m 0,0,1
 2 690 2 690 23 708.5 c 128,-1,2
 44 727 44 727 77 727 c 256,3,4
 110 727 110 727 131 708.5 c 128,-1,5
 152 690 152 690 152 663 c 0,6,7
 152 635 152 635 131 616.5 c 128,-1,8
 110 598 110 598 77 598 c 256,9,10
 44 598 44 598 23 616.5 c 128,-1,11
 2 635 2 635 2 663 c 0,0,1
223 663 m 0,12,13
 223 690 223 690 245 708.5 c 128,-1,14
 267 727 267 727 298 727 c 256,15,16
 330 727 330 727 351 708.5 c 128,-1,17
 372 690 372 690 372 663 c 0,18,19
 372 635 372 635 351 616.5 c 128,-1,20
 330 598 330 598 298 598 c 256,21,22
 267 598 267 598 245 616.5 c 128,-1,23
 223 635 223 635 223 663 c 0,12,13
EndSplineSet
EndChar
StartChar: copyright
Encoding: 169 169 108
Width: 792
VWidth: 1507
Flags: W
HStem: 23 76<292.731 494.37> 175 74<323.892 447.857> 491 73<336.216 452.593> 630 77<289.621 494.37>
VStem: 38 95<260.231 464.291> 214 97<290.344 462.639> 469 98<271.176 332 430 472.436> 654 95<260.231 465.274>
Fore
393 707 m 0,0,1
 467 707 467 707 532 678.5 c 128,-1,2
 597 650 597 650 645 602.5 c 128,-1,3
 693 555 693 555 721 493 c 128,-1,4
 749 431 749 431 749 363 c 0,5,6
 749 294 749 294 721 232 c 128,-1,7
 693 170 693 170 645 123.5 c 128,-1,8
 597 77 597 77 532 50 c 128,-1,9
 467 23 467 23 393 23 c 0,10,11
 318 23 318 23 253 50 c 128,-1,12
 188 77 188 77 140.5 123.5 c 128,-1,13
 93 170 93 170 65.5 232 c 128,-1,14
 38 294 38 294 38 363 c 0,15,16
 38 428 38 428 64 490 c 128,-1,17
 90 552 90 552 137.5 600 c 128,-1,18
 185 648 185 648 250 677.5 c 128,-1,19
 315 707 315 707 393 707 c 0,0,1
393 630 m 0,20,21
 336 630 336 630 288 607.5 c 128,-1,22
 240 585 240 585 205 547.5 c 128,-1,23
 170 510 170 510 151.5 461.5 c 128,-1,24
 133 413 133 413 133 363 c 0,25,26
 133 309 133 309 153 261.5 c 128,-1,27
 173 214 173 214 208.5 178 c 128,-1,28
 244 142 244 142 291.5 120.5 c 128,-1,29
 339 99 339 99 393 99 c 256,30,31
 448 99 448 99 495.5 120.5 c 128,-1,32
 543 142 543 142 578.5 178 c 128,-1,33
 614 214 614 214 634 261.5 c 128,-1,34
 654 309 654 309 654 363 c 0,35,36
 654 416 654 416 634 464.5 c 128,-1,37
 614 513 614 513 578.5 549.5 c 128,-1,38
 543 586 543 586 495.5 608 c 128,-1,39
 448 630 448 630 393 630 c 0,20,21
466 430 m 1,40,41
 466 455 466 455 453 473 c 128,-1,42
 440 491 440 491 422 491 c 2,43,-1
 380 491 l 2,44,45
 351 491 351 491 331 463.5 c 128,-1,46
 311 436 311 436 311 401 c 2,47,-1
 311 312 l 2,48,49
 311 291 311 291 323.5 270 c 128,-1,50
 336 249 336 249 356 249 c 2,51,-1
 398 249 l 2,52,53
 428 249 428 249 448.5 270.5 c 128,-1,54
 469 292 469 292 469 332 c 1,55,-1
 567 332 l 1,56,57
 567 259 567 259 518 217 c 128,-1,58
 469 175 469 175 398 175 c 2,59,-1
 354 175 l 2,60,61
 324 175 324 175 299 186 c 128,-1,62
 274 197 274 197 254.5 215.5 c 128,-1,63
 235 234 235 234 224.5 258 c 128,-1,64
 214 282 214 282 214 308 c 2,65,-1
 214 404 l 2,66,67
 214 437 214 437 227 465.5 c 128,-1,68
 240 494 240 494 262.5 516 c 128,-1,69
 285 538 285 538 315 551 c 128,-1,70
 345 564 345 564 380 564 c 2,71,-1
 424 564 l 2,72,73
 485 564 485 564 524.5 525.5 c 128,-1,74
 564 487 564 487 564 430 c 1,75,-1
 466 430 l 1,40,41
EndSplineSet
EndChar
StartChar: logicalnot
Encoding: 172 172 111
Width: 700
VWidth: 1507
Flags: W
HStem: 139 318<540 651 36 540 651 651> 366 91<36 540>
VStem: 540 111<139 366>
Fore
540 139 m 1,0,-1
 540 366 l 1,1,-1
 36 366 l 1,2,-1
 36 457 l 1,3,-1
 651 457 l 1,4,-1
 651 139 l 1,5,-1
 540 139 l 1,0,-1
EndSplineSet
EndChar
StartChar: registered
Encoding: 174 174 112
Width: 601
VWidth: 1507
Flags: W
HStem: 240 55<218.715 379.699> 579 47<262 339.755> 699 59<215.885 380.497>
VStem: 26 77<413.975 577.547> 193 74<377 481 531 579> 348 65<531.165 573> 497 74<413.975 581.447>
Fore
298 758 m 0,0,1
 354 758 354 758 404 737 c 128,-1,2
 454 716 454 716 491.5 680 c 128,-1,3
 529 644 529 644 550 596.5 c 128,-1,4
 571 549 571 549 571 497 c 256,5,6
 571 446 571 446 550 399.5 c 128,-1,7
 529 353 529 353 492 317.5 c 128,-1,8
 455 282 455 282 405.5 261 c 128,-1,9
 356 240 356 240 298 240 c 256,10,11
 241 240 241 240 192 261 c 128,-1,12
 143 282 143 282 105.5 317.5 c 128,-1,13
 68 353 68 353 47 399.5 c 128,-1,14
 26 446 26 446 26 497 c 0,15,16
 26 546 26 546 46 592.5 c 128,-1,17
 66 639 66 639 103 676 c 128,-1,18
 140 713 140 713 190 735.5 c 128,-1,19
 240 758 240 758 298 758 c 0,0,1
298 699 m 0,20,21
 256 699 256 699 220 682 c 128,-1,22
 184 665 184 665 158.5 636 c 128,-1,23
 133 607 133 607 118 571 c 128,-1,24
 103 535 103 535 103 497 c 0,25,26
 103 457 103 457 118.5 420 c 128,-1,27
 134 383 134 383 160.5 356 c 128,-1,28
 187 329 187 329 222.5 312 c 128,-1,29
 258 295 258 295 298 295 c 256,30,31
 339 295 339 295 375.5 312 c 128,-1,32
 412 329 412 329 439 356 c 128,-1,33
 466 383 466 383 481.5 420 c 128,-1,34
 497 457 497 457 497 497 c 256,35,36
 497 538 497 538 481.5 575 c 128,-1,37
 466 612 466 612 439 639 c 128,-1,38
 412 666 412 666 375.5 682.5 c 128,-1,39
 339 699 339 699 298 699 c 0,20,21
193 626 m 1,40,-1
 333 626 l 2,41,42
 368 626 368 626 390.5 603 c 128,-1,43
 413 580 413 580 413 550 c 0,44,45
 413 528 413 528 398 509 c 128,-1,46
 383 490 383 490 357 485 c 1,47,48
 357 484 357 484 360 481 c 1,49,-1
 359 482 l 1,50,-1
 433 377 l 1,51,-1
 351 377 l 1,52,-1
 286 470 l 1,53,-1
 288 469 l 1,54,55
 279 481 279 481 274 481 c 2,56,-1
 267 481 l 1,57,-1
 267 377 l 1,58,-1
 193 377 l 1,59,-1
 193 626 l 1,40,-1
262 579 m 1,60,-1
 262 531 l 1,61,-1
 333 531 l 2,62,63
 348 531 348 531 348 552 c 0,64,65
 348 561 348 561 343.5 570 c 128,-1,66
 339 579 339 579 333 579 c 2,67,-1
 262 579 l 1,60,-1
EndSplineSet
EndChar
StartChar: macron
Encoding: 175 175 113
Width: 393
VWidth: 1507
Flags: W
HStem: 629 82<33 353 33 353 33 33>
Fore
33 629 m 1,0,-1
 33 711 l 1,1,-1
 353 711 l 1,2,-1
 353 629 l 1,3,-1
 33 629 l 1,0,-1
EndSplineSet
EndChar
StartChar: degree
Encoding: 176 176 114
Width: 360
VWidth: 1507
Flags: W
HStem: 478 68<130.114 225.09> 695 69<129.205 226.018>
VStem: 21 88<568.21 662.153> 247 88<580.099 661.725>
Fore
21 621 m 0,0,1
 21 650 21 650 33 676 c 128,-1,2
 45 702 45 702 66 722 c 128,-1,3
 87 742 87 742 116 753 c 128,-1,4
 145 764 145 764 176 764 c 0,5,6
 210 764 210 764 238.5 753 c 128,-1,7
 267 742 267 742 288 722 c 128,-1,8
 309 702 309 702 322 676 c 128,-1,9
 335 650 335 650 335 621 c 0,10,11
 335 591 335 591 322 564.5 c 128,-1,12
 309 538 309 538 288 519 c 128,-1,13
 267 500 267 500 238.5 489 c 128,-1,14
 210 478 210 478 176 478 c 0,15,16
 112 478 112 478 66.5 519.5 c 128,-1,17
 21 561 21 561 21 621 c 0,0,1
109 621 m 0,18,19
 109 591 109 591 129 568.5 c 128,-1,20
 149 546 149 546 176 546 c 0,21,22
 205 546 205 546 226 568.5 c 128,-1,23
 247 591 247 591 247 621 c 0,24,25
 247 653 247 653 226 674 c 128,-1,26
 205 695 205 695 176 695 c 0,27,28
 149 695 149 695 129 674 c 128,-1,29
 109 653 109 653 109 621 c 0,18,19
EndSplineSet
EndChar
StartChar: plusminus
Encoding: 177 177 115
Width: 700
VWidth: 1507
Flags: W
HStem: 6 83<86 603> 332 86<86 292 396 603>
VStem: 292 104<134 332 418 617>
Fore
396 332 m 1,0,-1
 396 134 l 1,1,-1
 292 134 l 1,2,-1
 292 332 l 1,3,-1
 86 332 l 1,4,-1
 86 418 l 1,5,-1
 292 418 l 1,6,-1
 292 617 l 1,7,-1
 396 617 l 1,8,-1
 396 418 l 1,9,-1
 603 418 l 1,10,-1
 603 332 l 1,11,-1
 396 332 l 1,0,-1
86 6 m 1,12,-1
 86 89 l 1,13,-1
 603 89 l 1,14,-1
 603 6 l 1,15,-1
 86 6 l 1,12,-1
EndSplineSet
EndChar
StartChar: twosuperior
Encoding: 178 178 116
Width: 429
VWidth: 1507
Flags: W
HStem: 285 68<124 375> 684 67<153.812 267.981>
VStem: 285 83<584.005 667.727>
Fore
219 751 m 2,0,1
 291 751 291 751 329.5 715.5 c 128,-1,2
 368 680 368 680 368 617 c 0,3,4
 368 583 368 583 356 560 c 128,-1,5
 344 537 344 537 304 508 c 2,6,-1
 152 399 l 2,7,8
 136 389 136 389 130.5 377.5 c 128,-1,9
 125 366 125 366 124 353 c 1,10,-1
 375 353 l 1,11,-1
 375 285 l 1,12,-1
 36 285 l 1,13,-1
 36 342 l 2,14,15
 36 377 36 377 52 404 c 128,-1,16
 68 431 68 431 93 451 c 2,17,-1
 268 576 l 2,18,19
 276 580 276 580 280.5 592 c 128,-1,20
 285 604 285 604 285 617 c 0,21,22
 285 648 285 648 268.5 666 c 128,-1,23
 252 684 252 684 220 684 c 2,24,-1
 205 684 l 2,25,26
 179 684 179 684 153 666 c 128,-1,27
 127 648 127 648 106 623 c 1,28,-1
 42 669 l 1,29,30
 74 708 74 708 116 729.5 c 128,-1,31
 158 751 158 751 205 751 c 2,32,-1
 219 751 l 2,0,1
EndSplineSet
EndChar
StartChar: threesuperior
Encoding: 179 179 117
Width: 406
VWidth: 1507
Flags: W
HStem: 282 469<136 200 184 187 184 184> 282 66<128.68 248.908> 513 66<124 255.202> 683 68<131.844 251.767>
VStem: 11 361<372 448 372 375> 265 85<589.603 670.356> 288 84<386.923 484.273>
Fore
124 579 m 1,0,-1
 231 579 l 2,1,2
 246 580 246 580 255.5 589 c 128,-1,3
 265 598 265 598 265 615 c 0,4,5
 265 683 265 683 200 683 c 2,6,-1
 184 683 l 2,7,8
 158 683 158 683 131 665.5 c 128,-1,9
 104 648 104 648 83 624 c 1,10,-1
 23 669 l 1,11,12
 53 707 53 707 94.5 729 c 128,-1,13
 136 751 136 751 184 751 c 2,14,-1
 200 751 l 2,15,16
 273 751 273 751 311.5 714.5 c 128,-1,17
 350 678 350 678 350 615 c 0,18,19
 350 577 350 577 326 549 c 1,20,21
 348 529 348 529 360 502 c 128,-1,22
 372 475 372 475 372 448 c 0,23,24
 372 371 372 371 318.5 326.5 c 128,-1,25
 265 282 265 282 187 282 c 0,26,27
 130 282 130 282 89 304.5 c 128,-1,28
 48 327 48 327 11 372 c 1,29,-1
 72 422 l 1,30,31
 99 390 99 390 128.5 369 c 128,-1,32
 158 348 158 348 188 348 c 0,33,34
 228 348 228 348 258 377.5 c 128,-1,35
 288 407 288 407 288 448 c 0,36,37
 288 472 288 472 270.5 492.5 c 128,-1,38
 253 513 253 513 228 513 c 2,39,-1
 124 513 l 1,40,-1
 124 579 l 1,0,-1
EndSplineSet
EndChar
StartChar: acute
Encoding: 180 180 118
Width: 189
VWidth: 1507
Flags: W
HStem: 558 188<83 96 96 96>
Fore
96 746 m 1,0,-1
 211 746 l 1,1,-1
 83 558 l 1,2,-1
 -33 558 l 1,3,-1
 96 746 l 1,0,-1
EndSplineSet
EndChar
StartChar: mu
Encoding: 181 181 119
AltUni2: 0003bc.ffffffff.0
Width: 592
VWidth: 1507
Flags: W
HStem: -184 713<47 158 47 529 47 388> -8 83<203.135 332.645>
VStem: 47 111<-184 9 106.97 529> 419 110<0 32 135.008 188 188 529>
Fore
47 -184 m 1,0,-1
 47 529 l 1,1,-1
 158 529 l 1,2,-1
 158 173 l 2,3,4
 158 137 158 137 179 106 c 128,-1,5
 200 75 200 75 235 75 c 2,6,-1
 297 75 l 2,7,8
 341 75 341 75 376.5 110 c 128,-1,9
 412 145 412 145 419 188 c 1,10,-1
 419 529 l 1,11,-1
 529 529 l 1,12,-1
 529 0 l 1,13,-1
 419 0 l 1,14,-1
 419 32 l 1,15,16
 393 15 393 15 361.5 3.5 c 128,-1,17
 330 -8 330 -8 297 -8 c 2,18,-1
 235 -8 l 2,19,20
 216 -8 216 -8 195.5 -3 c 128,-1,21
 175 2 175 2 158 9 c 1,22,-1
 158 -184 l 1,23,-1
 47 -184 l 1,0,-1
EndSplineSet
EndChar
StartChar: paragraph
Encoding: 182 182 120
Width: 672
VWidth: 1507
Flags: W
HStem: 642 91<472 544>
VStem: 39 433<421.251 586.718> 371 101<-59 280> 544 103<-59 642>
Fore
647 733 m 1,0,-1
 647 -59 l 1,1,-1
 544 -59 l 1,2,-1
 544 642 l 1,3,-1
 472 642 l 1,4,-1
 472 -59 l 1,5,-1
 371 -59 l 1,6,-1
 371 280 l 1,7,-1
 252 280 l 2,8,9
 208 280 208 280 169 299 c 128,-1,10
 130 318 130 318 101 349 c 128,-1,11
 72 380 72 380 55.5 420 c 128,-1,12
 39 460 39 460 39 503 c 256,13,14
 39 547 39 547 55.5 588 c 128,-1,15
 72 629 72 629 101 660.5 c 128,-1,16
 130 692 130 692 169 711 c 128,-1,17
 208 730 208 730 252 730 c 2,18,-1
 647 733 l 1,0,-1
EndSplineSet
EndChar
StartChar: periodcentered
Encoding: 183 183 121
Width: 382
VWidth: 1507
Flags: W
HStem: 268 174<120.998 255.559>
VStem: 90 196<298.009 411.376>
Fore
90 354 m 256,0,1
 90 392 90 392 117.5 417 c 128,-1,2
 145 442 145 442 188 442 c 256,3,4
 232 442 232 442 259 417 c 128,-1,5
 286 392 286 392 286 354 c 256,6,7
 286 317 286 317 259 292.5 c 128,-1,8
 232 268 232 268 188 268 c 256,9,10
 145 268 145 268 117.5 292.5 c 128,-1,11
 90 317 90 317 90 354 c 256,0,1
EndSplineSet
EndChar
StartChar: cedilla
Encoding: 184 184 122
Width: 345
VWidth: 1507
Flags: W
HStem: -191 220<197 205 107 163 107 107>
VStem: 197 85<-136.976 -83.723>
Fore
155 -139 m 0,0,1
 167 -142 167 -142 182 -136.5 c 128,-1,2
 197 -131 197 -131 197 -116 c 0,3,4
 197 -93 197 -93 170 -81 c 0,5,6
 134 -65 134 -65 120 -50 c 128,-1,7
 106 -35 106 -35 107 -5 c 2,8,-1
 107 29 l 1,9,-1
 205 29 l 1,10,-1
 205 -5 l 1,11,-1
 203 -2 l 1,12,13
 208 -18 208 -18 214 -22.5 c 128,-1,14
 220 -27 220 -27 229 -32 c 1,15,-1
 223 -30 l 1,16,17
 229 -33 229 -33 231 -33 c 1,18,19
 249 -45 249 -45 265.5 -63 c 128,-1,20
 282 -81 282 -81 282 -107 c 0,21,22
 282 -155 282 -155 246.5 -173 c 128,-1,23
 211 -191 211 -191 163 -191 c 2,24,-1
 149 -191 l 2,25,26
 101 -185 101 -185 71.5 -159.5 c 128,-1,27
 42 -134 42 -134 42 -80 c 1,28,-1
 116 -80 l 1,29,30
 116 -103 116 -103 124.5 -118 c 128,-1,31
 133 -133 133 -133 155 -139 c 0,0,1
EndSplineSet
EndChar
StartChar: onesuperior
Encoding: 185 185 123
Width: 360
VWidth: 1507
Flags: W
HStem: 285 445<149 231> 571 67<50 110.831>
VStem: 50 181<586 638 571 730 638 638> 149 82<285 586 674.326 730>
Fore
149 285 m 1,0,-1
 149 586 l 1,1,2
 113 571 113 571 50 571 c 1,3,-1
 50 638 l 1,4,5
 89 638 89 638 118.5 665.5 c 128,-1,6
 148 693 148 693 149 730 c 1,7,-1
 231 730 l 1,8,-1
 231 285 l 1,9,-1
 149 285 l 1,0,-1
EndSplineSet
EndChar
StartChar: onequarter
Encoding: 188 188 126
Width: 889
VWidth: 1507
Flags: W
HStem: 574 67<27 88.5234> 734 20G<538.486 659>
VStem: 125 83<677.326 733>
Fore
751 12 m 1,0,-1
 751 96 l 1,1,-1
 806 96 l 1,2,-1
 806 163 l 1,3,-1
 751 163 l 1,4,-1
 751 457 l 1,5,-1
 677 457 l 1,6,-1
 461 154 l 1,7,8
 461 96 461 96 523 96 c 2,9,-1
 669 96 l 1,10,-1
 669 12 l 1,11,-1
 751 12 l 1,0,-1
669 163 m 1,12,-1
 565 163 l 1,13,-1
 669 308 l 1,14,-1
 669 163 l 1,12,-1
208 288 m 1,15,-1
 208 733 l 1,16,-1
 125 733 l 1,17,18
 124 696 124 696 95 668.5 c 128,-1,19
 66 641 66 641 27 641 c 1,20,-1
 27 574 l 1,21,22
 89 574 89 574 125 589 c 1,23,-1
 125 288 l 1,24,-1
 208 288 l 1,15,-1
140 -24 m 1,25,-1
 549 754 l 1,26,-1
 659 754 l 1,27,-1
 253 -24 l 1,28,-1
 140 -24 l 1,25,-1
EndSplineSet
Ligature2: "'frac' Diagonal Fractions in Latin lookup 0 subtable" one fraction four
Ligature2: "'frac' Diagonal Fractions in Latin lookup 0 subtable" one slash four
EndChar
StartChar: onehalf
Encoding: 189 189 127
Width: 889
VWidth: 1507
Flags: W
HStem: 12 65<600 843> 393 65<628.781 742.076> 574 67<27 88.5234> 734 20G<524.512 645>
VStem: 125 83<677.326 733> 754 81<296.976 381.79>
Fore
690 458 m 2,0,1
 761 458 761 458 798 423.5 c 128,-1,2
 835 389 835 389 835 329 c 0,3,4
 835 297 835 297 822 274.5 c 128,-1,5
 809 252 809 252 773 225 c 1,6,-1
 775 225 l 1,7,-1
 627 119 l 2,8,9
 604 103 604 103 600 77 c 1,10,-1
 843 77 l 1,11,-1
 843 12 l 1,12,-1
 516 12 l 1,13,-1
 516 65 l 2,14,15
 516 99 516 99 531 125.5 c 128,-1,16
 546 152 546 152 570 170 c 2,17,-1
 737 289 l 2,18,19
 745 294 745 294 749.5 305.5 c 128,-1,20
 754 317 754 317 754 329 c 0,21,22
 754 393 754 393 692 393 c 2,23,-1
 678 393 l 2,24,25
 653 393 653 393 628 376 c 128,-1,26
 603 359 603 359 582 336 c 1,27,-1
 522 380 l 1,28,29
 552 415 552 415 592.5 436.5 c 128,-1,30
 633 458 633 458 678 458 c 2,31,-1
 690 458 l 2,0,1
208 288 m 1,32,-1
 208 733 l 1,33,-1
 125 733 l 1,34,35
 124 696 124 696 95 668.5 c 128,-1,36
 66 641 66 641 27 641 c 1,37,-1
 27 574 l 1,38,39
 89 574 89 574 125 589 c 1,40,-1
 125 288 l 1,41,-1
 208 288 l 1,32,-1
127 -24 m 1,42,-1
 535 754 l 1,43,-1
 645 754 l 1,44,-1
 240 -24 l 1,45,-1
 127 -24 l 1,42,-1
EndSplineSet
Ligature2: "'frac' Diagonal Fractions in Latin lookup 0 subtable" one fraction two
Ligature2: "'frac' Diagonal Fractions in Latin lookup 0 subtable" one slash two
EndChar
StartChar: threequarters
Encoding: 190 190 128
Width: 889
VWidth: 1507
Flags: W
HStem: 96 67<639 743 825 880> 283 67<149.664 269.918> 514 68<145 282.885> 686 68<152.328 271.291>
VStem: 285 86<584.445 673.356> 309 84<389.395 485.398> 743 82<12 96 163 308>
Fore
145 582 m 1,0,-1
 252 582 l 2,1,2
 285 585 285 585 285 618 c 0,3,4
 285 686 285 686 220 686 c 2,5,-1
 205 686 l 2,6,7
 178 686 178 686 151.5 668.5 c 128,-1,8
 125 651 125 651 103 626 c 1,9,-1
 42 672 l 1,10,11
 72 710 72 710 114.5 732 c 128,-1,12
 157 754 157 754 205 754 c 2,13,-1
 220 754 l 2,14,15
 292 754 292 754 331.5 717.5 c 128,-1,16
 371 681 371 681 371 618 c 0,17,18
 371 579 371 579 347 550 c 1,19,20
 369 529 369 529 381 502 c 128,-1,21
 393 475 393 475 393 449 c 0,22,23
 393 372 393 372 339.5 327.5 c 128,-1,24
 286 283 286 283 208 283 c 0,25,26
 151 283 151 283 110 306 c 128,-1,27
 69 329 69 329 30 374 c 1,28,-1
 92 424 l 1,29,30
 121 392 121 392 149.5 371 c 128,-1,31
 178 350 178 350 210 350 c 0,32,33
 249 350 249 350 279 379.5 c 128,-1,34
 309 409 309 409 309 449 c 0,35,36
 309 475 309 475 291.5 494.5 c 128,-1,37
 274 514 274 514 249 514 c 2,38,-1
 145 514 l 1,39,-1
 145 582 l 1,0,-1
743 12 m 1,40,-1
 743 96 l 1,41,-1
 597 96 l 2,42,43
 535 96 535 96 535 154 c 1,44,-1
 751 457 l 1,45,-1
 825 457 l 1,46,-1
 825 163 l 1,47,-1
 880 163 l 1,48,-1
 880 96 l 1,49,-1
 825 96 l 1,50,-1
 825 12 l 1,51,-1
 743 12 l 1,40,-1
743 308 m 1,52,-1
 639 163 l 1,53,-1
 743 163 l 1,54,-1
 743 308 l 1,52,-1
250 -24 m 1,55,-1
 659 754 l 1,56,-1
 769 754 l 1,57,-1
 363 -24 l 1,58,-1
 250 -24 l 1,55,-1
EndSplineSet
Ligature2: "'frac' Diagonal Fractions in Latin lookup 0 subtable" three fraction four
Ligature2: "'frac' Diagonal Fractions in Latin lookup 0 subtable" three slash four
EndChar
StartChar: Aring
Encoding: 197 197 134
Width: 862
VWidth: 1507
Flags: W
HStem: 0 21G<24 155.5 686.8 817> 200 83<273 565> 847 76<391.288 449.669>
VStem: 289 94<775.75 832.278> 457 95<775.312 833.169>
Fore
350 704 m 1,0,1
 324 721 324 721 306.5 748 c 128,-1,2
 289 775 289 775 289 805 c 0,3,4
 289 853 289 853 327 888 c 128,-1,5
 365 923 365 923 422 923 c 0,6,7
 476 923 476 923 514 888 c 128,-1,8
 552 853 552 853 552 805 c 0,9,10
 552 770 552 770 533 744 c 128,-1,11
 514 718 514 718 484 701 c 1,12,13
 500 687 500 687 503 678 c 2,14,-1
 817 0 l 1,15,-1
 696 0 l 1,16,-1
 604 200 l 1,17,-1
 237 200 l 1,18,19
 214 152 214 152 190 100 c 128,-1,20
 166 48 166 48 145 0 c 1,21,-1
 24 0 l 1,22,-1
 350 704 l 1,0,1
273 283 m 1,23,-1
 565 283 l 1,24,25
 546 326 546 326 528 364 c 128,-1,26
 510 402 510 402 493 439 c 128,-1,27
 476 476 476 476 458 515.5 c 128,-1,28
 440 555 440 555 421 598 c 1,29,-1
 273 283 l 1,23,-1
383 805 m 0,30,31
 383 787 383 787 394 774 c 128,-1,32
 405 761 405 761 422 761 c 0,33,34
 437 761 437 761 447 774 c 128,-1,35
 457 787 457 787 457 805 c 0,36,37
 457 822 457 822 447 834.5 c 128,-1,38
 437 847 437 847 422 847 c 0,39,40
 405 847 405 847 394 834.5 c 128,-1,41
 383 822 383 822 383 805 c 0,30,31
EndSplineSet
EndChar
StartChar: AE
Encoding: 198 198 135
Width: 1028
VWidth: 1507
Flags: W
HStem: 0 84<615 993> 200 83<261 455> 344 83<555 916> 654 83<481 850>
Fore
354 740 m 1,0,1
 362 740 362 740 375.5 740 c 128,-1,2
 389 740 389 740 393 739 c 2,3,4
 396 739 396 739 397 738 c 128,-1,5
 398 737 398 737 401 737 c 2,6,-1
 850 737 l 1,7,-1
 850 654 l 1,8,-1
 481 654 l 1,9,10
 493 600 493 600 508 540.5 c 128,-1,11
 523 481 523 481 535 427 c 1,12,-1
 916 427 l 1,13,-1
 916 344 l 1,14,-1
 555 344 l 1,15,-1
 615 84 l 1,16,-1
 993 84 l 1,17,-1
 993 0 l 1,18,-1
 520 0 l 1,19,-1
 473 200 l 1,20,-1
 225 200 l 1,21,22
 202 152 202 152 178.5 100 c 128,-1,23
 155 48 155 48 134 0 c 1,24,-1
 14 0 l 1,25,-1
 354 740 l 1,0,1
261 283 m 1,26,-1
 455 283 l 1,27,28
 445 326 445 326 436.5 360.5 c 128,-1,29
 428 395 428 395 420.5 428 c 128,-1,30
 413 461 413 461 404.5 496 c 128,-1,31
 396 531 396 531 386 576 c 1,32,-1
 261 283 l 1,26,-1
EndSplineSet
EndChar
StartChar: Ccedilla
Encoding: 199 199 136
Width: 752
VWidth: 1507
Flags: W
HStem: -191 21G<341 402.5> -15 84<249.844 323> 669 85<282.157 502.64>
VStem: 44 113<210.78 524.718> 413 84<-136.976 -83.723> 598 112<197.189 277 500 535.137>
Fore
595 500 m 1,0,1
 595 534 595 534 583 564.5 c 128,-1,2
 571 595 571 595 551 618.5 c 128,-1,3
 531 642 531 642 503.5 655.5 c 128,-1,4
 476 669 476 669 445 669 c 2,5,-1
 359 669 l 2,6,7
 318 669 318 669 281 649.5 c 128,-1,8
 244 630 244 630 216 598.5 c 128,-1,9
 188 567 188 567 172.5 526 c 128,-1,10
 157 485 157 485 157 442 c 2,11,-1
 157 244 l 2,12,13
 157 213 157 213 169 181 c 128,-1,14
 181 149 181 149 201.5 124 c 128,-1,15
 222 99 222 99 249 84 c 128,-1,16
 276 69 276 69 306 69 c 2,17,-1
 395 69 l 2,18,19
 436 69 436 69 473 85 c 128,-1,20
 510 101 510 101 537.5 129.5 c 128,-1,21
 565 158 565 158 581.5 196 c 128,-1,22
 598 234 598 234 598 277 c 1,23,-1
 710 277 l 1,24,25
 710 216 710 216 687.5 164.5 c 128,-1,26
 665 113 665 113 626.5 75.5 c 128,-1,27
 588 38 588 38 535 14.5 c 128,-1,28
 482 -9 482 -9 424 -14 c 1,29,30
 428 -21 428 -21 432.5 -25 c 128,-1,31
 437 -29 437 -29 445 -32 c 1,32,-1
 439 -30 l 1,33,34
 445 -33 445 -33 446 -33 c 1,35,36
 464 -45 464 -45 480.5 -63 c 128,-1,37
 497 -81 497 -81 497 -107 c 0,38,39
 497 -155 497 -155 462 -173 c 128,-1,40
 427 -191 427 -191 378 -191 c 2,41,-1
 365 -191 l 2,42,43
 317 -185 317 -185 287.5 -159.5 c 128,-1,44
 258 -134 258 -134 258 -80 c 1,45,-1
 332 -80 l 1,46,47
 332 -103 332 -103 340 -118 c 128,-1,48
 348 -133 348 -133 371 -139 c 0,49,50
 383 -142 383 -142 398 -136.5 c 128,-1,51
 413 -131 413 -131 413 -116 c 0,52,53
 413 -93 413 -93 386 -81 c 0,54,55
 353 -65 353 -65 338.5 -52 c 128,-1,56
 324 -39 324 -39 323 -15 c 1,57,-1
 306 -15 l 2,58,59
 252 -15 252 -15 204.5 6 c 128,-1,60
 157 27 157 27 120.5 63 c 128,-1,61
 84 99 84 99 64 146 c 128,-1,62
 44 193 44 193 44 244 c 2,63,-1
 44 442 l 2,64,65
 44 503 44 503 68.5 560 c 128,-1,66
 93 617 93 617 136 659.5 c 128,-1,67
 179 702 179 702 236.5 728 c 128,-1,68
 294 754 294 754 359 754 c 2,69,-1
 445 754 l 2,70,71
 500 754 500 754 547.5 734.5 c 128,-1,72
 595 715 595 715 630.5 681 c 128,-1,73
 666 647 666 647 686.5 601 c 128,-1,74
 707 555 707 555 707 500 c 1,75,-1
 595 500 l 1,0,1
EndSplineSet
EndChar
StartChar: Eth
Encoding: 208 208 145
Width: 866
VWidth: 1507
Flags: W
HStem: 0 84<243 558.327> 333 88<60 130 243 505> 654 83<243 564.069>
VStem: 130 113<84 333 421 654> 686 110<215.22 525.714>
Fore
216 0 m 2,0,1
 181 0 181 0 155.5 23.5 c 128,-1,2
 130 47 130 47 130 77 c 2,3,-1
 130 333 l 1,4,-1
 60 333 l 1,5,-1
 60 421 l 1,6,-1
 130 421 l 1,7,-1
 130 737 l 1,8,-1
 532 737 l 2,9,10
 588 737 588 737 636 717.5 c 128,-1,11
 684 698 684 698 719.5 665 c 128,-1,12
 755 632 755 632 775.5 587.5 c 128,-1,13
 796 543 796 543 796 491 c 2,14,-1
 796 297 l 2,15,16
 796 235 796 235 771 181 c 128,-1,17
 746 127 746 127 703 87 c 128,-1,18
 660 47 660 47 603 23.5 c 128,-1,19
 546 0 546 0 481 0 c 2,20,-1
 216 0 l 2,0,1
243 421 m 1,21,-1
 505 421 l 1,22,-1
 505 333 l 1,23,-1
 243 333 l 1,24,-1
 243 84 l 1,25,-1
 481 84 l 2,26,27
 522 84 522 84 559.5 101 c 128,-1,28
 597 118 597 118 625 146.5 c 128,-1,29
 653 175 653 175 669.5 214 c 128,-1,30
 686 253 686 253 686 297 c 2,31,-1
 686 491 l 2,32,33
 686 525 686 525 674 554 c 128,-1,34
 662 583 662 583 641.5 606 c 128,-1,35
 621 629 621 629 592.5 641.5 c 128,-1,36
 564 654 564 654 532 654 c 2,37,-1
 243 654 l 1,38,-1
 243 421 l 1,21,-1
EndSplineSet
EndChar
StartChar: multiply
Encoding: 215 215 152
Width: 700
VWidth: 1507
Flags: W
HStem: 118 447<510 511 511 511>
VStem: 113 467<181 499 499 499>
Fore
416 339 m 1,0,1
 425 330 425 330 438.5 316.5 c 128,-1,2
 452 303 452 303 468.5 287 c 128,-1,3
 485 271 485 271 502.5 254.5 c 128,-1,4
 520 238 520 238 535 225 c 2,5,-1
 555 207 l 1,6,7
 567 190 567 190 580 181 c 1,8,-1
 510 118 l 1,9,-1
 345 274 l 1,10,-1
 184 118 l 1,11,-1
 124 170 l 1,12,-1
 115 182 l 1,13,-1
 276 341 l 1,14,15
 262 353 262 353 239 375.5 c 128,-1,16
 216 398 216 398 191.5 421.5 c 128,-1,17
 167 445 167 445 145.5 466.5 c 128,-1,18
 124 488 124 488 113 499 c 1,19,-1
 184 564 l 1,20,-1
 345 407 l 1,21,-1
 511 565 l 1,22,-1
 562 516 l 1,23,-1
 556 517 l 1,24,-1
 580 500 l 1,25,-1
 416 339 l 1,0,1
EndSplineSet
EndChar
StartChar: Oslash
Encoding: 216 216 153
Width: 780
VWidth: 1507
Flags: W
HStem: -15 84<269.331 472.843> 669 85<285.157 487.252>
VStem: 45 113<213.82 524.203> 600 111<212.797 568.928>
Fore
42 -26 m 1,0,-1
 113 72 l 1,1,2
 83 107 83 107 64 153.5 c 128,-1,3
 45 200 45 200 45 246 c 2,4,-1
 45 440 l 2,5,6
 45 503 45 503 70 560 c 128,-1,7
 95 617 95 617 138 659.5 c 128,-1,8
 181 702 181 702 239 728 c 128,-1,9
 297 754 297 754 362 754 c 2,10,-1
 448 754 l 2,11,12
 485 754 485 754 514.5 745.5 c 128,-1,13
 544 737 544 737 573 721 c 1,14,-1
 601 760 l 1,15,-1
 713 760 l 1,16,-1
 644 663 l 1,17,18
 711 588 711 588 711 491 c 2,19,-1
 711 297 l 2,20,21
 711 235 711 235 686.5 178.5 c 128,-1,22
 662 122 662 122 619 79 c 128,-1,23
 576 36 576 36 518.5 10.5 c 128,-1,24
 461 -15 461 -15 396 -15 c 2,25,-1
 309 -15 l 2,26,27
 279 -15 279 -15 246 -6.5 c 128,-1,28
 213 2 213 2 185 15 c 1,29,30
 169 -6 169 -6 158 -26 c 1,31,-1
 42 -26 l 1,0,-1
158 246 m 2,32,33
 158 228 158 228 163.5 204.5 c 128,-1,34
 169 181 169 181 176 164 c 1,35,36
 264 286 264 286 348.5 404 c 128,-1,37
 433 522 433 522 520 644 c 1,38,39
 482 669 482 669 448 669 c 2,40,-1
 362 669 l 2,41,42
 321 669 321 669 284 649.5 c 128,-1,43
 247 630 247 630 219 598.5 c 128,-1,44
 191 567 191 567 174.5 525.5 c 128,-1,45
 158 484 158 484 158 440 c 2,46,-1
 158 246 l 2,32,33
600 491 m 2,47,48
 600 532 600 532 580 571 c 1,49,50
 491 446 491 446 409 331 c 128,-1,51
 327 216 327 216 238 90 c 1,52,53
 271 69 271 69 309 69 c 2,54,-1
 396 69 l 2,55,56
 437 69 437 69 474 88 c 128,-1,57
 511 107 511 107 539 138.5 c 128,-1,58
 567 170 567 170 583.5 211.5 c 128,-1,59
 600 253 600 253 600 297 c 2,60,-1
 600 491 l 2,47,48
EndSplineSet
EndChar
StartChar: Thorn
Encoding: 222 222 159
Width: 646
VWidth: 1507
Flags: W
HStem: 0 21G<84 196> 166 84<196 327.18> 526 84<196 353.743> 735 20G<84 196>
VStem: 84 112<0 166 250 526 610 755> 476 112<323.694 460.22>
Fore
315 610 m 2,0,1
 371 610 371 610 420 596.5 c 128,-1,2
 469 583 469 583 506.5 557 c 128,-1,3
 544 531 544 531 566 491 c 128,-1,4
 588 451 588 451 588 399 c 0,5,6
 588 336 588 336 563 291.5 c 128,-1,7
 538 247 538 247 495 219 c 128,-1,8
 452 191 452 191 395 178.5 c 128,-1,9
 338 166 338 166 273 166 c 2,10,-1
 196 166 l 1,11,-1
 196 0 l 1,12,-1
 84 0 l 1,13,-1
 84 755 l 1,14,-1
 196 755 l 1,15,-1
 196 610 l 1,16,-1
 315 610 l 2,0,1
196 250 m 1,17,-1
 273 250 l 2,18,19
 315 250 315 250 352 257.5 c 128,-1,20
 389 265 389 265 417 282.5 c 128,-1,21
 445 300 445 300 460.5 328.5 c 128,-1,22
 476 357 476 357 476 399 c 0,23,24
 476 431 476 431 462 455 c 128,-1,25
 448 479 448 479 424.5 495 c 128,-1,26
 401 511 401 511 372.5 518.5 c 128,-1,27
 344 526 344 526 315 526 c 2,28,-1
 196 526 l 1,29,-1
 196 250 l 1,17,-1
EndSplineSet
EndChar
StartChar: uni00DF
Encoding: 223 223 160
Width: 657
VWidth: 1507
Flags: W
HStem: -188 21G<60 170> -14 91<348.405 451.71> 660 83<264.206 370.605>
VStem: 60 110<-188 552.561> 320 110<352.238 436.99> 484 111<109.458 202.435>
Fore
60 -188 m 1,0,-1
 60 523 l 2,1,2
 60 567 60 567 78 607 c 128,-1,3
 96 647 96 647 127 677 c 128,-1,4
 158 707 158 707 199.5 725 c 128,-1,5
 241 743 241 743 289 743 c 2,6,-1
 351 743 l 2,7,8
 392 743 392 743 427.5 728 c 128,-1,9
 463 713 463 713 488.5 687.5 c 128,-1,10
 514 662 514 662 529 628.5 c 128,-1,11
 544 595 544 595 544 558 c 2,12,-1
 544 482 l 1,13,14
 503 467 503 467 466.5 447 c 128,-1,15
 430 427 430 427 430 401 c 0,16,17
 430 372 430 372 442.5 357 c 128,-1,18
 455 342 455 342 478 323 c 1,19,-1
 476 324 l 1,20,-1
 488 314 l 2,21,22
 500 304 500 304 509.5 296 c 128,-1,23
 519 288 519 288 526 282 c 0,24,25
 556 259 556 259 575.5 235 c 128,-1,26
 595 211 595 211 595 166 c 0,27,28
 595 130 595 130 581.5 97.5 c 128,-1,29
 568 65 568 65 541 40 c 128,-1,30
 514 15 514 15 474 0.5 c 128,-1,31
 434 -14 434 -14 383 -14 c 0,32,33
 347 -14 347 -14 297 0 c 128,-1,34
 247 14 247 14 213 33 c 1,35,-1
 255 118 l 1,36,37
 294 98 294 98 326.5 87.5 c 128,-1,38
 359 77 359 77 383 77 c 0,39,40
 431 77 431 77 457.5 104 c 128,-1,41
 484 131 484 131 484 163 c 0,42,43
 484 190 484 190 475.5 200.5 c 128,-1,44
 467 211 467 211 451 223 c 0,45,46
 443 229 443 229 434 236 c 128,-1,47
 416 250 l 0,48,49
 368 292 368 292 344 327 c 128,-1,50
 320 362 320 362 320 401 c 256,51,52
 320 440 320 440 350.5 475 c 128,-1,53
 381 510 381 510 433 537 c 1,54,-1
 433 558 l 2,55,56
 433 576 433 576 426 594 c 128,-1,57
 419 612 419 612 407.5 627 c 128,-1,58
 396 642 396 642 382 651 c 128,-1,59
 368 660 368 660 351 660 c 2,60,-1
 289 660 l 2,61,62
 265 660 265 660 243.5 648 c 128,-1,63
 222 636 222 636 206 617 c 128,-1,64
 190 598 190 598 180 573.5 c 128,-1,65
 170 549 170 549 170 523 c 2,66,-1
 170 -188 l 1,67,-1
 60 -188 l 1,0,-1
EndSplineSet
EndChar
StartChar: ae
Encoding: 230 230 167
Width: 975
VWidth: 1507
Flags: W
HStem: -6 83<184.949 317.842 598.012 706.367> 264 75<256.287 425 535 797> 454 84<190.648 389.04 591.757 735.976>
VStem: 53 111<98.8174 194.32> 425 110<161.75 176 176 264 339 397.008> 797 112<176.513 210 339 353 353 377.844>
Fore
103 484 m 1,0,1
 137 510 137 510 173.5 524 c 128,-1,2
 210 538 210 538 249 538 c 2,3,-1
 344 538 l 2,4,5
 386 538 386 538 425 517.5 c 128,-1,6
 464 497 464 497 490 469 c 1,7,8
 520 497 520 497 563 517 c 128,-1,9
 606 537 606 537 654 537 c 2,10,-1
 716 537 l 2,11,12
 757 537 757 537 792.5 521.5 c 128,-1,13
 828 506 828 506 853.5 480.5 c 128,-1,14
 879 455 879 455 894 422 c 128,-1,15
 909 389 909 389 909 353 c 2,16,-1
 909 264 l 1,17,-1
 535 264 l 1,18,-1
 535 176 l 2,19,20
 535 160 535 160 541 142 c 128,-1,21
 547 124 547 124 558.5 109.5 c 128,-1,22
 570 95 570 95 585 85 c 128,-1,23
 600 75 600 75 617 75 c 2,24,-1
 680 75 l 2,25,26
 704 75 704 75 726 85.5 c 128,-1,27
 748 96 748 96 763.5 114.5 c 128,-1,28
 779 133 779 133 788 157 c 128,-1,29
 797 181 797 181 797 210 c 1,30,-1
 909 210 l 1,31,32
 909 163 909 163 891 123 c 128,-1,33
 873 83 873 83 841 54.5 c 128,-1,34
 809 26 809 26 768 9 c 128,-1,35
 727 -8 727 -8 680 -8 c 2,36,-1
 617 -8 l 2,37,38
 567 -8 567 -8 527.5 12.5 c 128,-1,39
 488 33 488 33 463 68 c 1,40,41
 431 35 431 35 386 14.5 c 128,-1,42
 341 -6 341 -6 291 -6 c 2,43,-1
 228 -6 l 2,44,45
 191 -6 191 -6 159.5 6 c 128,-1,46
 128 18 128 18 104 40 c 128,-1,47
 80 62 80 62 66.5 90.5 c 128,-1,48
 53 119 53 119 53 152 c 0,49,50
 53 193 53 193 73 227.5 c 128,-1,51
 93 262 93 262 125.5 287 c 128,-1,52
 158 312 158 312 199 325.5 c 128,-1,53
 240 339 240 339 280 339 c 2,54,-1
 425 339 l 1,55,-1
 425 359 l 1,56,57
 421 390 421 390 398 422 c 128,-1,58
 375 454 375 454 344 454 c 2,59,-1
 249 454 l 2,60,61
 210 454 210 454 161 409 c 1,62,-1
 103 484 l 1,0,1
280 264 m 2,63,64
 261 264 261 264 240.5 255 c 128,-1,65
 220 246 220 246 203.5 231 c 128,-1,66
 187 216 187 216 175.5 196 c 128,-1,67
 164 176 164 176 164 155 c 0,68,69
 164 125 164 125 181.5 101 c 128,-1,70
 199 77 199 77 228 77 c 2,71,-1
 291 77 l 2,72,73
 315 77 315 77 338.5 88 c 128,-1,74
 362 99 362 99 380.5 118 c 128,-1,75
 399 137 399 137 410.5 161 c 128,-1,76
 422 185 422 185 425 211 c 2,77,-1
 425 264 l 1,78,-1
 280 264 l 2,63,64
654 452 m 2,79,80
 609 452 609 452 575 419 c 128,-1,81
 541 386 541 386 535 339 c 1,82,-1
 797 339 l 1,83,-1
 797 353 l 2,84,85
 797 369 797 369 791 386.5 c 128,-1,86
 785 404 785 404 774 419 c 128,-1,87
 763 434 763 434 748 443 c 128,-1,88
 733 452 733 452 716 452 c 2,89,-1
 654 452 l 2,79,80
EndSplineSet
EndChar
StartChar: ccedilla
Encoding: 231 231 168
Width: 572
VWidth: 1507
Flags: W
HStem: -191 21G<249 310.5> -8 83<184.717 231> 452 85<243.633 381.444>
VStem: 41 484<140 176 176 203 176 176> 41 111<110.555 346.792> 321 84<-136.976 -83.723> 413 112<125.809 203 354 419.503>
Fore
412 354 m 1,0,1
 412 393 412 393 388.5 422.5 c 128,-1,2
 365 452 365 452 330 452 c 2,3,-1
 270 452 l 2,4,5
 246 452 246 452 224 441 c 128,-1,6
 202 430 202 430 186 410 c 128,-1,7
 170 390 170 390 161 366 c 128,-1,8
 152 342 152 342 152 315 c 2,9,-1
 152 176 l 2,10,11
 152 140 152 140 175.5 107.5 c 128,-1,12
 199 75 199 75 234 75 c 2,13,-1
 295 75 l 2,14,15
 344 75 344 75 378.5 110.5 c 128,-1,16
 413 146 413 146 413 203 c 1,17,-1
 525 203 l 1,18,19
 525 115 525 115 468.5 60 c 128,-1,20
 412 5 412 5 329 -5 c 1,21,22
 333 -18 333 -18 338.5 -22.5 c 128,-1,23
 344 -27 344 -27 353 -32 c 1,24,-1
 347 -30 l 1,25,26
 353 -33 353 -33 354 -33 c 1,27,28
 372 -45 372 -45 388.5 -63 c 128,-1,29
 405 -81 405 -81 405 -107 c 0,30,31
 405 -155 405 -155 370 -173 c 128,-1,32
 335 -191 335 -191 286 -191 c 2,33,-1
 273 -191 l 2,34,35
 225 -185 225 -185 195.5 -159.5 c 128,-1,36
 166 -134 166 -134 166 -80 c 1,37,-1
 240 -80 l 1,38,39
 240 -103 240 -103 248 -118 c 128,-1,40
 256 -133 256 -133 279 -139 c 0,41,42
 291 -142 291 -142 306 -136.5 c 128,-1,43
 321 -131 321 -131 321 -116 c 0,44,45
 321 -93 321 -93 294 -81 c 0,46,47
 259 -65 259 -65 244 -50.5 c 128,-1,48
 229 -36 229 -36 231 -8 c 1,49,50
 190 -8 190 -8 155.5 7.5 c 128,-1,51
 121 23 121 23 95 48.5 c 128,-1,52
 69 74 69 74 55 107 c 128,-1,53
 41 140 41 140 41 176 c 2,54,-1
 41 315 l 2,55,56
 41 360 41 360 59 400 c 128,-1,57
 77 440 77 440 108.5 471 c 128,-1,58
 140 502 140 502 181.5 519.5 c 128,-1,59
 223 537 223 537 270 537 c 2,60,-1
 330 537 l 2,61,62
 371 537 371 537 406.5 523.5 c 128,-1,63
 442 510 442 510 467.5 485.5 c 128,-1,64
 493 461 493 461 508 427 c 128,-1,65
 523 393 523 393 523 354 c 1,66,-1
 412 354 l 1,0,1
EndSplineSet
EndChar
StartChar: eth
Encoding: 240 240 177
Width: 679
VWidth: 1507
Flags: W
HStem: -14 80<265.021 407.595> 475 78<242.94 413.195>
VStem: 39 103<172.9 335.171> 516 108<179.425 370.445>
Fore
624 285 m 0,0,1
 624 207 624 207 597.5 150 c 128,-1,2
 571 93 571 93 529 57 c 128,-1,3
 487 21 487 21 433.5 3.5 c 128,-1,4
 380 -14 380 -14 326 -14 c 0,5,6
 262 -14 262 -14 209.5 7.5 c 128,-1,7
 157 29 157 29 119 66 c 128,-1,8
 81 103 81 103 60 153 c 128,-1,9
 39 203 39 203 39 262 c 0,10,11
 39 330 39 330 64 384.5 c 128,-1,12
 89 439 89 439 130.5 476 c 128,-1,13
 172 513 172 513 224 533 c 128,-1,14
 276 553 276 553 330 553 c 0,15,16
 381 553 381 553 434 537 c 1,17,18
 413 562 413 562 387.5 587 c 128,-1,19
 362 612 362 612 336 633 c 1,20,-1
 315 621 l 1,21,-1
 151 547 l 1,22,-1
 118 621 l 1,23,-1
 255 683 l 1,24,25
 229 696 229 696 200.5 708.5 c 128,-1,26
 172 721 172 721 133 733 c 1,27,-1
 172 812 l 1,28,29
 220 791 220 791 267.5 770 c 128,-1,30
 315 749 315 749 350 727 c 1,31,32
 365 733 365 733 378.5 738 c 128,-1,33
 392 743 392 743 405 751 c 0,34,35
 422 758 422 758 447.5 771 c 128,-1,36
 473 784 473 784 506 800 c 1,37,-1
 543 724 l 1,38,-1
 425 672 l 1,39,40
 517 595 517 595 570.5 501 c 128,-1,41
 624 407 624 407 624 285 c 0,0,1
516 277 m 0,42,43
 514 327 514 327 502 362.5 c 128,-1,44
 490 398 490 398 467.5 420.5 c 128,-1,45
 445 443 445 443 410 456 c 128,-1,46
 375 469 375 469 327 475 c 0,47,48
 279 475 279 475 244.5 455.5 c 128,-1,49
 210 436 210 436 187 405.5 c 128,-1,50
 164 375 164 375 153 337.5 c 128,-1,51
 142 300 142 300 142 264 c 0,52,53
 142 216 142 216 157.5 179 c 128,-1,54
 173 142 173 142 199.5 117 c 128,-1,55
 226 92 226 92 258.5 79 c 128,-1,56
 291 66 291 66 324 66 c 0,57,58
 365 66 365 66 399.5 79.5 c 128,-1,59
 434 93 434 93 459.5 119.5 c 128,-1,60
 485 146 485 146 500.5 185.5 c 128,-1,61
 516 225 516 225 516 277 c 0,42,43
EndSplineSet
EndChar
StartChar: divide
Encoding: 247 247 184
Width: 700
VWidth: 1507
Flags: W
HStem: 122 128<263.69 368.341> 297 86<48 567> 421 126<263.69 368.341>
VStem: 241 149<140.565 231.435 439.565 529.466>
Fore
48 297 m 1,0,-1
 48 383 l 1,1,-1
 567 383 l 1,2,-1
 567 297 l 1,3,-1
 48 297 l 1,0,-1
241 484 m 0,4,5
 241 513 241 513 263 530 c 128,-1,6
 285 547 285 547 317 547 c 256,7,8
 348 547 348 547 369 530 c 128,-1,9
 390 513 390 513 390 484 c 0,10,11
 390 457 390 457 369 439 c 128,-1,12
 348 421 348 421 317 421 c 256,13,14
 285 421 285 421 263 439 c 128,-1,15
 241 457 241 457 241 484 c 0,4,5
241 185 m 0,16,17
 241 214 241 214 263 232 c 128,-1,18
 285 250 285 250 317 250 c 256,19,20
 348 250 348 250 369 232 c 128,-1,21
 390 214 390 214 390 185 c 0,22,23
 390 158 390 158 369 140 c 128,-1,24
 348 122 348 122 317 122 c 256,25,26
 285 122 285 122 263 140 c 128,-1,27
 241 158 241 158 241 185 c 0,16,17
EndSplineSet
EndChar
StartChar: oslash
Encoding: 248 248 185
Width: 589
VWidth: 1507
Flags: W
HStem: -8 83<221.25 327.297> 452 85<249.633 355.875>
VStem: 47 111<169.517 346.792> 421 110<183.272 365.874>
Fore
23 -24 m 1,0,-1
 87 66 l 1,1,2
 66 92 66 92 56.5 119 c 128,-1,3
 47 146 47 146 47 176 c 2,4,-1
 47 315 l 2,5,6
 47 360 47 360 65 400 c 128,-1,7
 83 440 83 440 114.5 471 c 128,-1,8
 146 502 146 502 187.5 519.5 c 128,-1,9
 229 537 229 537 276 537 c 2,10,-1
 339 537 l 2,11,12
 384 537 384 537 416 520 c 1,13,14
 424 529 424 529 429 537.5 c 128,-1,15
 434 546 434 546 442 553 c 1,16,-1
 555 553 l 1,17,-1
 490 463 l 1,18,19
 511 437 511 437 521 410 c 128,-1,20
 531 383 531 383 531 353 c 2,21,-1
 531 213 l 2,22,23
 531 167 531 167 512.5 127 c 128,-1,24
 494 87 494 87 463.5 57 c 128,-1,25
 433 27 433 27 390.5 9.5 c 128,-1,26
 348 -8 348 -8 301 -8 c 2,27,-1
 240 -8 l 2,28,29
 219 -8 219 -8 198.5 -4 c 128,-1,30
 178 0 178 0 161 8 c 1,31,32
 154 0 154 0 148.5 -8.5 c 128,-1,33
 143 -17 143 -17 137 -24 c 1,34,-1
 23 -24 l 1,0,-1
421 353 m 2,35,36
 421 362 421 362 419 366 c 1,37,-1
 216 81 l 1,38,39
 226 75 226 75 240 75 c 2,40,-1
 301 75 l 2,41,42
 326 75 326 75 347.5 86.5 c 128,-1,43
 369 98 369 98 385 117.5 c 128,-1,44
 401 137 401 137 411 162 c 128,-1,45
 421 187 421 187 421 213 c 2,46,-1
 421 353 l 2,35,36
158 176 m 2,47,48
 158 170 158 170 156.5 169.5 c 128,-1,49
 155 169 155 169 154.5 169.5 c 1,50,51
 155 169 155 169 158 163 c 1,52,-1
 363 446 l 1,53,54
 348 452 348 452 339 452 c 2,55,-1
 276 452 l 2,56,57
 252 452 252 452 230 441 c 128,-1,58
 208 430 208 430 192 410 c 128,-1,59
 176 390 176 390 167 366 c 128,-1,60
 158 342 158 342 158 315 c 2,61,-1
 158 176 l 2,47,48
EndSplineSet
EndChar
StartChar: thorn
Encoding: 254 254 191
Width: 719
VWidth: 1507
Flags: W
HStem: -8 83<285.892 403.652> 452 85<327.633 435.605>
VStem: 124 111<-225 9 110.555 350.06 503 730> 497 110<181.684 213 213 378.358>
Fore
607 213 m 2,0,1
 607 167 607 167 589 127 c 128,-1,2
 571 87 571 87 540.5 57 c 128,-1,3
 510 27 510 27 467.5 9.5 c 128,-1,4
 425 -8 425 -8 378 -8 c 2,5,-1
 317 -8 l 2,6,7
 295 -8 295 -8 274 -3 c 128,-1,8
 253 2 253 2 235 9 c 1,9,-1
 235 -225 l 1,10,-1
 124 -225 l 1,11,-1
 124 730 l 1,12,-1
 235 730 l 1,13,-1
 235 503 l 1,14,15
 288 537 288 537 354 537 c 2,16,-1
 416 537 l 2,17,18
 457 537 457 537 491.5 521.5 c 128,-1,19
 526 506 526 506 551.5 480.5 c 128,-1,20
 577 455 577 455 592 422 c 128,-1,21
 607 389 607 389 607 353 c 2,22,-1
 607 213 l 2,0,1
497 353 m 2,23,24
 497 371 497 371 490.5 388 c 128,-1,25
 484 405 484 405 472.5 419.5 c 128,-1,26
 461 434 461 434 447 443 c 128,-1,27
 433 452 433 452 416 452 c 2,28,-1
 354 452 l 2,29,30
 330 452 330 452 308 441 c 128,-1,31
 286 430 286 430 270.5 411.5 c 128,-1,32
 255 393 255 393 245 370 c 128,-1,33
 235 347 235 347 235 321 c 2,34,-1
 235 176 l 2,35,36
 235 140 235 140 259 107.5 c 128,-1,37
 283 75 283 75 317 75 c 2,38,-1
 378 75 l 2,39,40
 402 75 402 75 424 86.5 c 128,-1,41
 446 98 446 98 462.5 117.5 c 128,-1,42
 479 137 479 137 488 162 c 128,-1,43
 497 187 497 187 497 213 c 2,44,-1
 497 353 l 2,23,24
EndSplineSet
EndChar
StartChar: Lslash
Encoding: 321 321 193
Width: 716
VWidth: 1507
Flags: W
HStem: 0 84<205 665> 517 20G<291.412 318> 717 20G<92 205>
VStem: 92 113<84 259 452 737>
Fore
8 315 m 1,0,-1
 92 375 l 1,1,-1
 92 737 l 1,2,-1
 205 737 l 1,3,-1
 205 452 l 1,4,-1
 318 537 l 1,5,-1
 318 421 l 1,6,-1
 205 341 l 1,7,-1
 205 84 l 1,8,-1
 665 84 l 1,9,-1
 665 0 l 1,10,-1
 92 0 l 1,11,-1
 92 259 l 1,12,-1
 8 199 l 1,13,-1
 8 315 l 1,0,-1
EndSplineSet
EndChar
StartChar: lslash
Encoding: 322 322 194
Width: 324
VWidth: 1507
Flags: W
HStem: 0 21G<106 216> 515 20G<269.238 294>
VStem: 23 271<314 535 56 314> 106 110<0 259 472 730>
Fore
23 314 m 1,0,-1
 106 381 l 1,1,-1
 106 730 l 1,2,-1
 216 730 l 1,3,-1
 216 472 l 1,4,-1
 294 535 l 1,5,-1
 294 412 l 1,6,-1
 216 350 l 1,7,-1
 216 0 l 1,8,-1
 106 0 l 1,9,-1
 106 259 l 1,10,-1
 27 196 l 1,11,-1
 23 314 l 1,0,-1
EndSplineSet
EndChar
StartChar: OE
Encoding: 338 338 195
Width: 1214
VWidth: 1507
Flags: W
HStem: 0 92<235.314 440.105 648 1144> 338 90<648 1067> 647 90<289.188 481.778 648 1144>
VStem: 50 111<166.314 520.327> 537 111<143 338 428 621>
Fore
315 0 m 2,0,1
 259 0 259 0 211 19 c 128,-1,2
 163 38 163 38 126.5 71 c 128,-1,3
 90 104 90 104 70 149 c 128,-1,4
 50 194 50 194 50 246 c 2,5,-1
 50 440 l 2,6,7
 50 503 50 503 74.5 557.5 c 128,-1,8
 99 612 99 612 143 652 c 128,-1,9
 187 692 187 692 244 714.5 c 128,-1,10
 301 737 301 737 368 737 c 2,11,-1
 1144 737 l 1,12,-1
 1144 647 l 1,13,-1
 648 647 l 1,14,-1
 648 428 l 1,15,-1
 1067 428 l 1,16,-1
 1067 338 l 1,17,-1
 648 338 l 1,18,-1
 648 92 l 1,19,-1
 1144 92 l 1,20,-1
 1144 0 l 1,21,-1
 315 0 l 2,0,1
401 92 m 2,22,23
 439 92 439 92 472.5 104 c 128,-1,24
 506 116 506 116 537 143 c 1,25,-1
 537 621 l 1,26,27
 516 633 516 633 494.5 640 c 128,-1,28
 473 647 473 647 452 647 c 2,29,-1
 368 647 l 2,30,31
 326 647 326 647 288 631 c 128,-1,32
 250 615 250 615 222 587 c 128,-1,33
 194 559 194 559 177.5 521.5 c 128,-1,34
 161 484 161 484 161 440 c 2,35,-1
 161 246 l 2,36,37
 161 181 161 181 205.5 136.5 c 128,-1,38
 250 92 250 92 315 92 c 2,39,-1
 401 92 l 2,22,23
EndSplineSet
EndChar
StartChar: oe
Encoding: 339 339 196
Width: 990
VWidth: 1507
Flags: W
HStem: -8 83<193.316 328.652 565.931 741.406> 264 75<532 794> 452 85<250.791 359.943 585.875 732.605>
VStem: 48 112<111.325 346.792> 422 110<183.272 213 213 264 339 387.469> 794 112<130.651 210 339 378.358>
CounterMasks: 1 1c
Fore
532 176 m 2,0,1
 532 140 532 140 556 107.5 c 128,-1,2
 580 75 580 75 614 75 c 2,3,-1
 677 75 l 2,4,5
 725 75 725 75 759.5 113.5 c 128,-1,6
 794 152 794 152 794 210 c 1,7,-1
 906 210 l 1,8,9
 906 161 906 161 888 122 c 128,-1,10
 870 83 870 83 838 53.5 c 128,-1,11
 806 24 806 24 765 8 c 128,-1,12
 724 -8 724 -8 677 -8 c 2,13,-1
 614 -8 l 2,14,15
 568 -8 568 -8 529.5 10.5 c 128,-1,16
 491 29 491 29 466 59 c 1,17,18
 434 29 434 29 392.5 10.5 c 128,-1,19
 351 -8 351 -8 303 -8 c 2,20,-1
 241 -8 l 2,21,22
 200 -8 200 -8 165 7.5 c 128,-1,23
 130 23 130 23 104 47.5 c 128,-1,24
 78 72 78 72 63 106 c 128,-1,25
 48 140 48 140 48 176 c 2,26,-1
 48 315 l 2,27,28
 48 360 48 360 66 400 c 128,-1,29
 84 440 84 440 116 471 c 128,-1,30
 148 502 148 502 189.5 519.5 c 128,-1,31
 231 537 231 537 277 537 c 2,32,-1
 341 537 l 2,33,34
 386 537 386 537 423.5 517 c 128,-1,35
 461 497 461 497 487 467 c 1,36,37
 519 502 519 502 558.5 519.5 c 128,-1,38
 598 537 598 537 651 537 c 2,39,-1
 713 537 l 2,40,41
 754 537 754 537 789.5 521.5 c 128,-1,42
 825 506 825 506 850.5 480.5 c 128,-1,43
 876 455 876 455 891 422 c 128,-1,44
 906 389 906 389 906 353 c 2,45,-1
 906 264 l 1,46,-1
 532 264 l 1,47,-1
 532 176 l 2,0,1
422 353 m 2,48,49
 422 371 422 371 415.5 388 c 128,-1,50
 409 405 409 405 397.5 419.5 c 128,-1,51
 386 434 386 434 371.5 443 c 128,-1,52
 357 452 357 452 341 452 c 2,53,-1
 277 452 l 2,54,55
 253 452 253 452 231.5 441 c 128,-1,56
 210 430 210 430 194 410 c 128,-1,57
 178 390 178 390 169 366 c 128,-1,58
 160 342 160 342 160 315 c 2,59,-1
 160 176 l 2,60,61
 160 140 160 140 184 107.5 c 128,-1,62
 208 75 208 75 241 75 c 2,63,-1
 303 75 l 2,64,65
 327 75 327 75 349 86.5 c 128,-1,66
 371 98 371 98 386.5 117.5 c 128,-1,67
 402 137 402 137 412 162 c 128,-1,68
 422 187 422 187 422 213 c 2,69,-1
 422 353 l 2,48,49
651 452 m 2,70,71
 606 452 606 452 572 419 c 128,-1,72
 538 386 538 386 532 339 c 1,73,-1
 794 339 l 1,74,-1
 794 353 l 2,75,76
 794 371 794 371 787.5 388 c 128,-1,77
 781 405 781 405 769.5 419.5 c 128,-1,78
 758 434 758 434 744 443 c 128,-1,79
 730 452 730 452 713 452 c 2,80,-1
 651 452 l 2,70,71
EndSplineSet
EndChar
StartChar: florin
Encoding: 402 402 202
Width: 791
VWidth: 1507
Flags: W
HStem: -220 90<44 141.53> 460 69<234 347 463 570> 724 90<606.653 730>
Fore
422 74 m 0,0,1
 415 2 415 2 380 -52.5 c 128,-1,2
 345 -107 345 -107 292.5 -144.5 c 128,-1,3
 240 -182 240 -182 173.5 -201 c 128,-1,4
 107 -220 107 -220 36 -220 c 1,5,-1
 44 -130 l 1,6,7
 96 -130 96 -130 143 -116.5 c 128,-1,8
 190 -103 190 -103 226 -76.5 c 128,-1,9
 262 -50 262 -50 285 -11.5 c 128,-1,10
 308 27 308 27 312 77 c 2,11,-1
 347 460 l 1,12,-1
 231 460 l 1,13,-1
 234 529 l 1,14,-1
 353 529 l 1,15,16
 362 598 362 598 396.5 651 c 128,-1,17
 431 704 431 704 483 740 c 128,-1,18
 535 776 535 776 600.5 795 c 128,-1,19
 666 814 666 814 737 814 c 1,20,-1
 730 724 l 1,21,22
 626 724 626 724 552 674 c 128,-1,23
 478 624 478 624 463 529 c 1,24,-1
 573 529 l 1,25,-1
 570 460 l 1,26,-1
 457 460 l 1,27,28
 448 365 448 365 439.5 267 c 128,-1,29
 431 169 431 169 422 74 c 0,0,1
EndSplineSet
EndChar
StartChar: circumflex
Encoding: 710 710 203
Width: 512
VWidth: 1507
Flags: W
HStem: 736 197<219 449 219 219>
VStem: 74 375<736 736 736 736>
Fore
219 933 m 1,0,-1
 304 933 l 1,1,-1
 449 736 l 1,2,-1
 338 736 l 1,3,-1
 261 844 l 1,4,-1
 185 736 l 1,5,-1
 74 736 l 1,6,-1
 219 933 l 1,0,-1
EndSplineSet
EndChar
StartChar: caron
Encoding: 711 711 204
Width: 512
VWidth: 1507
Flags: W
HStem: 736 197<74 304 74 74>
VStem: 74 375<933 933 933 933>
Fore
74 933 m 1,0,-1
 185 933 l 1,1,-1
 261 825 l 1,2,-1
 338 933 l 1,3,-1
 449 933 l 1,4,-1
 304 736 l 1,5,-1
 219 736 l 1,6,-1
 74 933 l 1,0,-1
EndSplineSet
EndChar
StartChar: breve
Encoding: 728 728 205
Width: 494
VWidth: 1507
Flags: W
HStem: 626 70<188.406 297.778>
VStem: 57 95<739.548 811> 335 95<739.548 811>
Fore
430 811 m 1,0,1
 430 772 430 772 415.5 738.5 c 128,-1,2
 401 705 401 705 375.5 679.5 c 128,-1,3
 350 654 350 654 316 640 c 128,-1,4
 282 626 282 626 244 626 c 0,5,6
 205 626 205 626 171 640 c 128,-1,7
 137 654 137 654 111.5 679.5 c 128,-1,8
 86 705 86 705 71.5 738.5 c 128,-1,9
 57 772 57 772 57 811 c 1,10,-1
 152 811 l 1,11,12
 152 764 152 764 177.5 730 c 128,-1,13
 203 696 203 696 244 696 c 0,14,15
 283 696 283 696 309 730 c 128,-1,16
 335 764 335 764 335 811 c 1,17,-1
 430 811 l 1,0,1
EndSplineSet
EndChar
StartChar: dotaccent
Encoding: 729 729 206
Width: 266
VWidth: 1507
Flags: W
HStem: 638 128<79.6899 184.826>
VStem: 57 150<656.565 747.435>
Fore
57 701 m 0,0,1
 57 730 57 730 79 748 c 128,-1,2
 101 766 101 766 133 766 c 256,3,4
 164 766 164 766 185.5 748 c 128,-1,5
 207 730 207 730 207 701 c 0,6,7
 207 674 207 674 185.5 656 c 128,-1,8
 164 638 164 638 133 638 c 256,9,10
 101 638 101 638 79 656 c 128,-1,11
 57 674 57 674 57 701 c 0,0,1
EndSplineSet
EndChar
StartChar: ring
Encoding: 730 730 207
Width: 459
VWidth: 1507
Flags: W
HStem: 595 73<195.834 256.685> 758 71<195.834 255.921>
VStem: 95 92<676.684 748.253> 265 91<682.416 742.597>
Fore
95 711 m 256,0,1
 95 760 95 760 132.5 794.5 c 128,-1,2
 170 829 170 829 226 829 c 0,3,4
 280 829 280 829 318 794.5 c 128,-1,5
 356 760 356 760 356 711 c 256,6,7
 356 663 356 663 318 629 c 128,-1,8
 280 595 280 595 226 595 c 0,9,10
 170 595 170 595 132.5 629 c 128,-1,11
 95 663 95 663 95 711 c 256,0,1
187 711 m 256,12,13
 187 692 187 692 198.5 680 c 128,-1,14
 210 668 210 668 226 668 c 256,15,16
 243 668 243 668 254 680 c 128,-1,17
 265 692 265 692 265 711 c 256,18,19
 265 731 265 731 254 744.5 c 128,-1,20
 243 758 243 758 226 758 c 256,21,22
 210 758 210 758 198.5 744.5 c 128,-1,23
 187 731 187 731 187 711 c 256,12,13
EndSplineSet
EndChar
StartChar: tilde
Encoding: 732 732 209
Width: 318
VWidth: 1507
Flags: W
HStem: 610 76<201.469 273.962> 710 74<34.549 86.4342>
VStem: -72 83<618 683.699> 297 84<712.301 778>
Fore
244 686 m 0,0,1
 261 686 261 686 276.5 711.5 c 128,-1,2
 292 737 292 737 297 778 c 1,3,-1
 381 778 l 1,4,5
 381 734 381 734 367 703 c 128,-1,6
 353 672 353 672 332 651 c 128,-1,7
 311 630 311 630 287.5 620 c 128,-1,8
 264 610 264 610 244 610 c 0,9,10
 188 610 188 610 160.5 630.5 c 128,-1,11
 133 651 133 651 112 674 c 0,12,13
 99 687 99 687 87 698.5 c 128,-1,14
 75 710 75 710 63 710 c 0,15,16
 47 710 47 710 32 684.5 c 128,-1,17
 17 659 17 659 11 618 c 1,18,-1
 -72 618 l 1,19,20
 -72 660 -72 660 -58 692 c 128,-1,21
 -44 724 -44 724 -23.5 744 c 128,-1,22
 -3 764 -3 764 20.5 774 c 128,-1,23
 44 784 44 784 63 784 c 0,24,25
 107 784 107 784 132 766.5 c 128,-1,26
 157 749 157 749 175 730 c 0,27,28
 190 713 190 713 206 699.5 c 128,-1,29
 222 686 222 686 244 686 c 0,0,1
EndSplineSet
EndChar
StartChar: uni0E01
Encoding: 3585 3585 212
Width: 645
VWidth: 1507
Flags: W
HStem: 0 21G<99 211 448 556> 531 83<209.586 420.469>
VStem: 99 112<0 345.43> 448 108<0 503.286>
Fore
448 452 m 1,0,1
 446 482 446 482 423.5 506.5 c 128,-1,2
 401 531 401 531 357 531 c 2,3,-1
 282 531 l 2,4,5
 234 531 234 531 196 500 c 128,-1,6
 158 469 158 469 142 431 c 1,7,8
 158 425 158 425 171 411.5 c 128,-1,9
 184 398 184 398 193 382 c 128,-1,10
 202 366 202 366 206.5 349.5 c 128,-1,11
 211 333 211 333 211 320 c 2,12,-1
 211 0 l 1,13,-1
 99 0 l 1,14,-1
 99 320 l 2,15,16
 99 345 99 345 79.5 366 c 128,-1,17
 60 387 60 387 32 390 c 1,18,19
 36 437 36 437 58.5 478 c 128,-1,20
 81 519 81 519 116 549 c 128,-1,21
 151 579 151 579 194.5 596.5 c 128,-1,22
 238 614 238 614 286 614 c 2,23,-1
 407 614 l 2,24,25
 434 614 434 614 460.5 600 c 128,-1,26
 487 586 487 586 509 564.5 c 128,-1,27
 531 543 531 543 543.5 513.5 c 128,-1,28
 556 484 556 484 556 452 c 2,29,-1
 556 0 l 1,30,-1
 448 0 l 1,31,-1
 448 452 l 1,0,1
EndSplineSet
EndChar
StartChar: uni0E02
Encoding: 3586 3586 213
Width: 607
VWidth: 1507
Flags: W
HStem: 323 52<102.807 183.294> 547 67<159.415 227.903>
VStem: 20 69<405.598 470.301> 197 52<388.88 470.293> 250 113<83 295.125> 291 69<398.594 461.884> 436 95<134.531 614>
Fore
363 83 m 1,0,1
 374 83 374 83 386.5 89 c 128,-1,2
 399 95 399 95 410 104 c 128,-1,3
 421 113 421 113 428.5 126 c 128,-1,4
 436 139 436 139 436 152 c 2,5,-1
 436 614 l 1,6,-1
 531 614 l 1,7,-1
 531 163 l 2,8,9
 531 133 531 133 517 103.5 c 128,-1,10
 503 74 503 74 480 51.5 c 128,-1,11
 457 29 457 29 426.5 15.5 c 128,-1,12
 396 2 396 2 363 2 c 2,13,-1
 338 2 l 2,14,15
 303 2 303 2 276.5 25 c 128,-1,16
 250 48 250 48 250 80 c 2,17,-1
 250 258 l 2,18,19
 250 285 250 285 256 306 c 128,-1,20
 262 327 262 327 270.5 346.5 c 128,-1,21
 279 366 279 366 285 387.5 c 128,-1,22
 291 409 291 409 291 436 c 0,23,24
 291 458 291 458 282 477.5 c 128,-1,25
 273 497 273 497 258.5 513 c 128,-1,26
 244 529 244 529 225.5 538 c 128,-1,27
 207 547 207 547 188 547 c 0,28,29
 172 547 172 547 163.5 542.5 c 128,-1,30
 155 538 155 538 152 535 c 1,31,32
 196 535 196 535 222.5 502 c 128,-1,33
 249 469 249 469 249 430 c 0,34,35
 249 387 249 387 220 355 c 128,-1,36
 191 323 191 323 145 323 c 0,37,38
 115 323 115 323 92 334 c 128,-1,39
 69 345 69 345 52.5 363 c 128,-1,40
 36 381 36 381 28 404 c 128,-1,41
 20 427 20 427 20 449 c 0,42,43
 20 469 20 469 24.5 490 c 128,-1,44
 29 511 29 511 39 531 c 0,45,46
 62 570 62 570 99.5 592 c 128,-1,47
 137 614 137 614 188 614 c 0,48,49
 271 612 271 612 315.5 562.5 c 128,-1,50
 360 513 360 513 360 437 c 2,51,-1
 363 83 l 1,0,1
89 430 m 256,52,53
 89 407 89 407 105 391 c 128,-1,54
 121 375 121 375 143 375 c 256,55,56
 166 375 166 375 181.5 391 c 128,-1,57
 197 407 197 407 197 430 c 256,58,59
 197 452 197 452 181.5 468 c 128,-1,60
 166 484 166 484 143 484 c 256,61,62
 121 484 121 484 105 468 c 128,-1,63
 89 452 89 452 89 430 c 256,52,53
EndSplineSet
EndChar
StartChar: uni0E03
Encoding: 3587 3587 214
Width: 625
VWidth: 1507
Flags: W
HStem: 0 21G<331.5 390.5> 308 46<84.8337 165.677> 463 45<107.505 148.059> 594 20G<448 543>
VStem: 6 65<390.067 449.21> 179 46<367.924 439.989> 261 111<83 317.435> 353 65<455.689 533.204> 448 95<134.531 152 152 614>
Fore
176 546 m 1,0,1
 146 543 146 543 130.5 531 c 128,-1,2
 115 519 115 519 107 508 c 1,3,-1
 127 508 l 2,4,5
 142 508 142 508 159 500.5 c 128,-1,6
 176 493 176 493 191.5 479.5 c 128,-1,7
 207 466 207 466 216 448 c 128,-1,8
 225 430 225 430 225 409 c 0,9,10
 225 363 225 363 197 335.5 c 128,-1,11
 169 308 169 308 125 308 c 0,12,13
 96 308 96 308 73.5 320 c 128,-1,14
 51 332 51 332 36 350.5 c 128,-1,15
 21 369 21 369 13.5 393.5 c 128,-1,16
 6 418 6 418 6 443 c 0,17,18
 6 479 6 479 21 510 c 128,-1,19
 36 541 36 541 62.5 564.5 c 128,-1,20
 89 588 89 588 122 602.5 c 128,-1,21
 155 617 155 617 191 617 c 1,22,-1
 268 552 l 1,23,-1
 338 617 l 1,24,25
 381 597 381 597 399.5 558 c 128,-1,26
 418 519 418 519 418 473 c 0,27,28
 418 451 418 451 411 428 c 128,-1,29
 404 405 404 405 395 382 c 128,-1,30
 386 359 386 359 379 335 c 128,-1,31
 372 311 372 311 372 286 c 2,32,-1
 372 83 l 1,33,34
 383 84 383 84 396.5 89.5 c 128,-1,35
 410 95 410 95 421.5 104 c 128,-1,36
 433 113 433 113 440.5 126 c 128,-1,37
 448 139 448 139 448 152 c 2,38,-1
 448 614 l 1,39,-1
 543 614 l 1,40,-1
 543 163 l 2,41,42
 543 131 543 131 528.5 101.5 c 128,-1,43
 514 72 514 72 490.5 49.5 c 128,-1,44
 467 27 467 27 437 13.5 c 128,-1,45
 407 0 407 0 374 0 c 2,46,-1
 348 0 l 2,47,48
 315 0 315 0 288 23.5 c 128,-1,49
 261 47 261 47 261 78 c 2,50,-1
 261 271 l 2,51,52
 261 300 261 300 264 318 c 128,-1,53
 267 336 267 336 273.5 349 c 128,-1,54
 280 362 280 362 291.5 374 c 128,-1,55
 303 386 303 386 320 404 c 0,56,57
 335 421 335 421 344 445 c 128,-1,58
 353 469 353 469 353 491 c 0,59,60
 353 517 353 517 339 534 c 1,61,-1
 267 469 l 1,62,-1
 176 546 l 1,0,1
71 409 m 256,63,64
 71 386 71 386 87 370 c 128,-1,65
 103 354 103 354 125 354 c 256,66,67
 148 354 148 354 163.5 370 c 128,-1,68
 179 386 179 386 179 409 c 256,69,70
 179 431 179 431 163.5 447 c 128,-1,71
 148 463 148 463 125 463 c 256,72,73
 103 463 103 463 87 447 c 128,-1,74
 71 431 71 431 71 409 c 256,63,64
EndSplineSet
EndChar
StartChar: uni0E04
Encoding: 3588 3588 215
Width: 687
VWidth: 1507
Flags: W
HStem: 0 21G<75 209.477 494 606> 202 50<307.108 381.124> 360 53<299.719 381.011> 531 83<273.75 470.25>
VStem: 75 112<196 411.438> 395 63<265.594 346.555> 494 112<0 505.218>
Fore
430 614 m 2,0,1
 505 614 505 614 555.5 568.5 c 128,-1,2
 606 523 606 523 606 452 c 2,3,-1
 606 0 l 1,4,-1
 494 0 l 1,5,-1
 494 452 l 2,6,7
 494 481 494 481 474.5 506 c 128,-1,8
 455 531 455 531 430 531 c 2,9,-1
 323 531 l 2,10,11
 297 531 297 531 273 517 c 128,-1,12
 249 503 249 503 229.5 482 c 128,-1,13
 210 461 210 461 198.5 435 c 128,-1,14
 187 409 187 409 187 383 c 2,15,-1
 187 196 l 1,16,-1
 226 339 l 2,17,18
 238 372 238 372 269 392.5 c 128,-1,19
 300 413 300 413 341 413 c 0,20,21
 392 413 392 413 425 380.5 c 128,-1,22
 458 348 458 348 458 306 c 0,23,24
 458 262 458 262 422 232 c 128,-1,25
 386 202 386 202 341 202 c 0,26,27
 323 202 323 202 308.5 205 c 128,-1,28
 294 208 294 208 282 214 c 1,29,-1
 202 0 l 1,30,-1
 75 0 l 1,31,-1
 75 383 l 2,32,33
 75 425 75 425 95.5 466.5 c 128,-1,34
 116 508 116 508 150 540.5 c 128,-1,35
 184 573 184 573 227.5 593.5 c 128,-1,36
 271 614 271 614 318 614 c 2,37,-1
 430 614 l 2,0,1
286 306 m 256,38,39
 286 283 286 283 302 267.5 c 128,-1,40
 318 252 318 252 341 252 c 256,41,42
 363 252 363 252 379 267.5 c 128,-1,43
 395 283 395 283 395 306 c 256,44,45
 395 329 395 329 379 344.5 c 128,-1,46
 363 360 363 360 341 360 c 256,47,48
 318 360 318 360 302 344.5 c 128,-1,49
 286 329 286 329 286 306 c 256,38,39
EndSplineSet
EndChar
StartChar: uni0E05
Encoding: 3589 3589 216
Width: 691
VWidth: 1507
Flags: W
HStem: 0 21G<494 606> 203 50<307.341 381.124> 362 53<299.719 381.011> 595 20G<270.5 307.14 440.391 468>
VStem: 75 112<197 460.108> 395 63<266.707 348.297> 494 112<0 479.594>
Fore
75 384 m 2,0,1
 75 425 75 425 95.5 465.5 c 128,-1,2
 116 506 116 506 147.5 538.5 c 128,-1,3
 179 571 179 571 216 591.5 c 128,-1,4
 253 612 253 612 288 615 c 1,5,-1
 377 522 l 1,6,-1
 458 614 l 1,7,8
 478 612 478 612 503.5 599 c 128,-1,9
 529 586 529 586 551.5 564.5 c 128,-1,10
 574 543 574 543 590 514 c 128,-1,11
 606 485 606 485 606 454 c 2,12,-1
 606 0 l 1,13,-1
 494 0 l 1,14,-1
 494 454 l 2,15,16
 494 475 494 475 485 496 c 128,-1,17
 476 517 476 517 460 526 c 1,18,-1
 377 437 l 1,19,-1
 288 526 l 1,20,21
 246 514 246 514 216.5 472 c 128,-1,22
 187 430 187 430 187 384 c 2,23,-1
 187 197 l 1,24,-1
 226 341 l 2,25,26
 238 374 238 374 269 394.5 c 128,-1,27
 300 415 300 415 341 415 c 0,28,29
 392 415 392 415 425 382.5 c 128,-1,30
 458 350 458 350 458 308 c 0,31,32
 458 264 458 264 422 233.5 c 128,-1,33
 386 203 386 203 341 203 c 0,34,35
 323 203 323 203 308.5 206.5 c 128,-1,36
 294 210 294 210 282 216 c 1,37,-1
 202 2 l 1,38,-1
 75 2 l 1,39,-1
 75 384 l 2,0,1
286 308 m 256,40,41
 286 285 286 285 302 269 c 128,-1,42
 318 253 318 253 341 253 c 256,43,44
 363 253 363 253 379 269 c 128,-1,45
 395 285 395 285 395 308 c 256,46,47
 395 330 395 330 379 346 c 128,-1,48
 363 362 363 362 341 362 c 256,49,50
 318 362 318 362 302 346 c 128,-1,51
 286 330 286 330 286 308 c 256,40,41
EndSplineSet
EndChar
StartChar: uni0E06
Encoding: 3590 3590 217
Width: 771
VWidth: 1507
Flags: W
HStem: 0 21G<260 298.5 563 684> 146 101<401.054 495.156> 308 46<85.9641 167.022> 463 45<109.468 149.285> 594 20G<576 684>
VStem: 8 64<390.067 449.21> 143 71<86.355 155.327> 181 45<367.924 439.989> 265 112<54 146 247 294.669 294.669 304.101 304.101 318 335 348.593> 354 65<455.689 533.204> 576 108<143 614>
Fore
374 247 m 1,0,1
 439 231 439 231 489.5 202 c 128,-1,2
 540 173 540 173 576 143 c 1,3,-1
 576 614 l 1,4,-1
 684 614 l 1,5,-1
 684 0 l 1,6,-1
 583 0 l 1,7,8
 543 56 543 56 488.5 92 c 128,-1,9
 434 128 434 128 377 146 c 1,10,-1
 377 54 l 1,11,12
 360 29 360 29 342 13.5 c 128,-1,13
 324 -2 324 -2 273 -2 c 0,14,15
 247 -2 247 -2 223.5 9 c 128,-1,16
 200 20 200 20 182 38 c 128,-1,17
 164 56 164 56 153.5 77.5 c 128,-1,18
 143 99 143 99 143 122 c 0,19,20
 143 143 143 143 153 164 c 128,-1,21
 163 185 163 185 180 202.5 c 128,-1,22
 197 220 197 220 218.5 230.5 c 128,-1,23
 240 241 240 241 262 241 c 1,24,-1
 262 271 l 2,25,26
 262 300 262 300 265 318 c 128,-1,27
 268 336 268 336 275 349 c 128,-1,28
 282 362 282 362 293 374 c 128,-1,29
 304 386 304 386 321 404 c 0,30,31
 336 421 336 421 345 445 c 128,-1,32
 354 469 354 469 354 491 c 0,33,34
 354 517 354 517 341 534 c 1,35,-1
 268 469 l 1,36,-1
 178 546 l 1,37,38
 148 543 148 543 132 531 c 128,-1,39
 116 519 116 519 109 508 c 1,40,-1
 128 508 l 2,41,42
 143 508 143 508 160.5 500.5 c 128,-1,43
 178 493 178 493 193 479.5 c 128,-1,44
 208 466 208 466 217 448 c 128,-1,45
 226 430 226 430 226 409 c 0,46,47
 226 363 226 363 198 335.5 c 128,-1,48
 170 308 170 308 127 308 c 0,49,50
 98 308 98 308 75.5 320 c 128,-1,51
 53 332 53 332 38 350.5 c 128,-1,52
 23 369 23 369 15.5 393.5 c 128,-1,53
 8 418 8 418 8 443 c 0,54,55
 8 479 8 479 23 510 c 128,-1,56
 38 541 38 541 64 564.5 c 128,-1,57
 90 588 90 588 123.5 602.5 c 128,-1,58
 157 617 157 617 193 617 c 1,59,-1
 270 552 l 1,60,-1
 339 617 l 1,61,62
 383 597 383 597 401 558 c 128,-1,63
 419 519 419 519 419 473 c 0,64,65
 419 451 419 451 412 428 c 128,-1,66
 405 405 405 405 396 382 c 128,-1,67
 387 359 387 359 380.5 335 c 128,-1,68
 374 311 374 311 374 286 c 2,69,-1
 374 247 l 1,0,1
72 409 m 256,70,71
 72 386 72 386 88 370 c 128,-1,72
 104 354 104 354 127 354 c 256,73,74
 149 354 149 354 165 370 c 128,-1,75
 181 386 181 386 181 409 c 256,76,77
 181 431 181 431 165 447 c 128,-1,78
 149 463 149 463 127 463 c 256,79,80
 104 463 104 463 88 447 c 128,-1,81
 72 431 72 431 72 409 c 256,70,71
214 119 m 0,82,83
 214 95 214 95 229 75.5 c 128,-1,84
 244 56 244 56 265 45 c 1,85,-1
 265 191 l 1,86,87
 240 185 240 185 227 165 c 128,-1,88
 214 145 214 145 214 119 c 0,82,83
EndSplineSet
EndChar
StartChar: uni0E07
Encoding: 3591 3591 218
Width: 563
VWidth: 1507
Flags: W
HStem: 0 21G<366 481> 402 50<341.018 368.729> 561 49<321.804 394.615>
VStem: 250 58<476.361 547.101> 369 112<89 402> 416 65<468.501 531.969>
Fore
369 402 m 1,0,1
 347 402 347 402 325.5 410.5 c 128,-1,2
 304 419 304 419 287 433.5 c 128,-1,3
 270 448 270 448 260 467.5 c 128,-1,4
 250 487 250 487 250 508 c 0,5,6
 250 549 250 549 285.5 579.5 c 128,-1,7
 321 610 321 610 366 610 c 0,8,9
 389 610 389 610 409.5 602 c 128,-1,10
 430 594 430 594 445.5 580.5 c 128,-1,11
 461 567 461 567 471 548 c 128,-1,12
 481 529 481 529 481 510 c 2,13,-1
 481 0 l 1,14,-1
 390 0 l 2,15,16
 342 0 342 0 305 22 c 128,-1,17
 268 44 268 44 244 78 c 0,18,19
 190 155 190 155 130.5 244 c 128,-1,20
 71 333 71 333 18 410 c 1,21,-1
 143 410 l 1,22,-1
 347 104 l 2,23,24
 353 96 353 96 357.5 94 c 128,-1,25
 362 92 362 92 369 89 c 1,26,-1
 369 402 l 1,0,1
308 506 m 256,27,28
 308 484 308 484 323.5 468 c 128,-1,29
 339 452 339 452 362 452 c 256,30,31
 384 452 384 452 400 468 c 128,-1,32
 416 484 416 484 416 506 c 256,33,34
 416 529 416 529 400 545 c 128,-1,35
 384 561 384 561 362 561 c 256,36,37
 339 561 339 561 323.5 545 c 128,-1,38
 308 529 308 529 308 506 c 256,27,28
EndSplineSet
EndChar
StartChar: uni0E08
Encoding: 3592 3592 219
Width: 628
VWidth: 1507
Flags: W
HStem: 0 21G<274 391> 193 50<246.223 273.729> 351 50<226.184 299.954> 531 83<197.136 421.206>
VStem: 155 58<266.603 337.987> 274 112<101 193> 321 65<258.986 322.624> 445 98<123.63 504.187>
Fore
274 193 m 1,0,1
 252 193 252 193 231 201.5 c 128,-1,2
 210 210 210 210 192.5 224 c 128,-1,3
 175 238 175 238 165 257.5 c 128,-1,4
 155 277 155 277 155 298 c 0,5,6
 155 339 155 339 190.5 370 c 128,-1,7
 226 401 226 401 271 401 c 0,8,9
 294 401 294 401 314.5 392.5 c 128,-1,10
 335 384 335 384 350.5 370.5 c 128,-1,11
 366 357 366 357 376 338.5 c 128,-1,12
 386 320 386 320 386 300 c 2,13,-1
 386 101 l 1,14,15
 407 103 407 103 426 123 c 128,-1,16
 445 143 445 143 445 184 c 2,17,-1
 445 451 l 2,18,19
 445 479 445 479 425 505 c 128,-1,20
 405 531 405 531 380 531 c 2,21,-1
 270 531 l 2,22,23
 222 531 222 531 177.5 496 c 128,-1,24
 133 461 133 461 112 415 c 1,25,-1
 26 443 l 1,26,27
 57 516 57 516 122 564 c 128,-1,28
 187 612 187 612 270 614 c 2,29,-1
 369 614 l 2,30,31
 404 614 404 614 435.5 600 c 128,-1,32
 467 586 467 586 490.5 563.5 c 128,-1,33
 514 541 514 541 528.5 511.5 c 128,-1,34
 543 482 543 482 543 451 c 2,35,-1
 543 157 l 2,36,37
 543 127 543 127 528.5 99 c 128,-1,38
 514 71 514 71 490.5 49 c 128,-1,39
 467 27 467 27 437 13.5 c 128,-1,40
 407 0 407 0 375 0 c 2,41,-1
 274 0 l 1,42,-1
 274 193 l 1,0,1
213 297 m 256,43,44
 213 274 213 274 228.5 258.5 c 128,-1,45
 244 243 244 243 267 243 c 256,46,47
 289 243 289 243 305 258.5 c 128,-1,48
 321 274 321 274 321 297 c 256,49,50
 321 320 321 320 305 335.5 c 128,-1,51
 289 351 289 351 267 351 c 256,52,53
 244 351 244 351 228.5 335.5 c 128,-1,54
 213 320 213 320 213 297 c 256,43,44
EndSplineSet
EndChar
StartChar: uni0E09
Encoding: 3593 3593 220
Width: 661
VWidth: 1507
Flags: W
HStem: 0 60<486.841 557.457> 128 50<115.26 165.516 158.062 172.875> 286 50<103.941 177.954> 531 83<185.577 443.35>
VStem: 33 57<202.277 272.536> 199 65<194.501 257.624> 466 111<238 504.187> 582 68<83.8212 155.327>
Fore
90 232 m 256,0,1
 90 210 90 210 106 194 c 128,-1,2
 122 178 122 178 145 178 c 256,3,4
 167 178 167 178 183 194 c 128,-1,5
 199 210 199 210 199 232 c 256,6,7
 199 255 199 255 183 270.5 c 128,-1,8
 167 286 167 286 145 286 c 256,9,10
 122 286 122 286 106 270.5 c 128,-1,11
 90 255 90 255 90 232 c 256,0,1
410 98 m 1,12,13
 374 77 374 77 335.5 49 c 128,-1,14
 297 21 297 21 262 0 c 1,15,-1
 173 0 l 1,16,-1
 173 131 l 1,17,18
 169 130 169 130 164 130 c 2,19,20
 160 128 160 128 152 128 c 0,21,22
 130 128 130 128 108.5 136.5 c 128,-1,23
 87 145 87 145 70 159 c 128,-1,24
 53 173 53 173 43 193 c 128,-1,25
 33 213 33 213 33 234 c 0,26,27
 33 274 33 274 68.5 305 c 128,-1,28
 104 336 104 336 149 336 c 0,29,30
 172 336 172 336 192.5 328 c 128,-1,31
 213 320 213 320 228.5 306 c 128,-1,32
 244 292 244 292 254 273.5 c 128,-1,33
 264 255 264 255 264 235 c 2,34,-1
 264 106 l 1,35,36
 314 136 314 136 363.5 172 c 128,-1,37
 413 208 413 208 466 238 c 1,38,-1
 466 449 l 2,39,40
 466 479 466 479 447 505 c 128,-1,41
 428 531 428 531 399 531 c 2,42,-1
 264 531 l 2,43,44
 207 531 207 531 164 494 c 128,-1,45
 121 457 121 457 106 410 c 1,46,-1
 18 410 l 1,47,48
 23 445 23 445 41 481 c 128,-1,49
 59 517 59 517 90 546.5 c 128,-1,50
 121 576 121 576 164.5 595 c 128,-1,51
 208 614 208 614 264 614 c 2,52,-1
 402 614 l 2,53,54
 437 614 437 614 468.5 600 c 128,-1,55
 500 586 500 586 524.5 563.5 c 128,-1,56
 549 541 549 541 563 511.5 c 128,-1,57
 577 482 577 482 577 449 c 2,58,-1
 577 222 l 1,59,60
 612 208 612 208 631 180 c 128,-1,61
 650 152 650 152 650 118 c 0,62,63
 650 93 650 93 639.5 72 c 128,-1,64
 629 51 629 51 610.5 35.5 c 128,-1,65
 592 20 592 20 569 10 c 128,-1,66
 546 0 546 0 522 0 c 0,67,68
 469 0 469 0 439.5 29.5 c 128,-1,69
 410 59 410 59 410 98 c 1,12,13
473 115 m 256,70,71
 473 92 473 92 489 76 c 128,-1,72
 505 60 505 60 528 60 c 256,73,74
 550 60 550 60 566 76 c 128,-1,75
 582 92 582 92 582 115 c 256,76,77
 582 137 582 137 566 153 c 128,-1,78
 550 169 550 169 528 169 c 256,79,80
 505 169 505 169 489 153 c 128,-1,81
 473 137 473 137 473 115 c 256,70,71
EndSplineSet
EndChar
StartChar: uni0E0A
Encoding: 3594 3594 221
Width: 621
VWidth: 1507
Flags: W
HStem: 0 83<360 408.673> 323 52<102.807 183.294> 547 67<159.415 227.612>
VStem: 20 69<405.598 470.301> 197 52<388.88 470.293> 250 110<83 295.125> 436 95<107.983 386> 484 113<630.003 699>
Fore
436 377 m 2,0,1
 436 384 436 384 413 398.5 c 128,-1,2
 390 413 390 413 360 413 c 1,3,-1
 360 83 l 1,4,5
 383 83 383 83 409.5 103.5 c 128,-1,6
 436 124 436 124 436 154 c 2,7,-1
 436 377 l 2,0,1
188 614 m 0,8,9
 261 612 261 612 304 573.5 c 128,-1,10
 347 535 347 535 357 473 c 1,11,12
 395 490 395 490 418.5 511 c 128,-1,13
 442 532 442 532 455.5 560 c 128,-1,14
 469 588 469 588 475 622.5 c 128,-1,15
 481 657 481 657 484 699 c 1,16,-1
 597 699 l 1,17,18
 591 660 591 660 583.5 621.5 c 128,-1,19
 576 583 576 583 562.5 548.5 c 128,-1,20
 549 514 549 514 526 485.5 c 128,-1,21
 503 457 503 457 467 439 c 1,22,23
 488 427 488 427 505.5 412.5 c 128,-1,24
 523 398 523 398 531 386 c 1,25,-1
 531 163 l 2,26,27
 531 131 531 131 517 101.5 c 128,-1,28
 503 72 503 72 480.5 49.5 c 128,-1,29
 458 27 458 27 428 13.5 c 128,-1,30
 398 0 398 0 365 0 c 2,31,-1
 338 0 l 2,32,33
 303 0 303 0 276.5 23.5 c 128,-1,34
 250 47 250 47 250 78 c 2,35,-1
 250 258 l 2,36,37
 250 285 250 285 256 306 c 128,-1,38
 262 327 262 327 270.5 346.5 c 128,-1,39
 279 366 279 366 285 387.5 c 128,-1,40
 291 409 291 409 291 436 c 0,41,42
 291 458 291 458 282 477.5 c 128,-1,43
 273 497 273 497 258.5 513 c 128,-1,44
 244 529 244 529 225.5 538 c 128,-1,45
 207 547 207 547 188 547 c 0,46,47
 172 547 172 547 163.5 542.5 c 128,-1,48
 155 538 155 538 152 535 c 1,49,50
 196 535 196 535 222.5 502 c 128,-1,51
 249 469 249 469 249 430 c 0,52,53
 249 387 249 387 220 355 c 128,-1,54
 191 323 191 323 145 323 c 0,55,56
 115 323 115 323 92 334 c 128,-1,57
 69 345 69 345 52.5 363 c 128,-1,58
 36 381 36 381 28 404 c 128,-1,59
 20 427 20 427 20 449 c 0,60,61
 20 469 20 469 24.5 490 c 128,-1,62
 29 511 29 511 39 531 c 0,63,64
 62 570 62 570 99.5 592 c 128,-1,65
 137 614 137 614 188 614 c 0,8,9
89 430 m 256,66,67
 89 407 89 407 105 391 c 128,-1,68
 121 375 121 375 143 375 c 256,69,70
 166 375 166 375 181.5 391 c 128,-1,71
 197 407 197 407 197 430 c 256,72,73
 197 452 197 452 181.5 468 c 128,-1,74
 166 484 166 484 143 484 c 256,75,76
 121 484 121 484 105 468 c 128,-1,77
 89 452 89 452 89 430 c 256,66,67
EndSplineSet
EndChar
StartChar: uni0E0B
Encoding: 3595 3595 222
Width: 622
VWidth: 1507
Flags: W
HStem: 0 83<369 417.673> 308 46<82.9641 164.022> 463 45<106.468 146.285>
VStem: 5 64<390.067 449.21> 178 45<367.924 439.989> 259 110<83 317.435> 445 96<107.983 154 154 378> 494 104<599.969 636.5 660 667.081 667.081 682 682 704>
Fore
175 546 m 1,0,1
 145 543 145 543 129 531 c 128,-1,2
 113 519 113 519 106 508 c 1,3,-1
 125 508 l 2,4,5
 140 508 140 508 157.5 500.5 c 128,-1,6
 175 493 175 493 190 479.5 c 128,-1,7
 205 466 205 466 214 448 c 128,-1,8
 223 430 223 430 223 409 c 0,9,10
 223 363 223 363 195 335.5 c 128,-1,11
 167 308 167 308 124 308 c 0,12,13
 95 308 95 308 72.5 320 c 128,-1,14
 50 332 50 332 35 350.5 c 128,-1,15
 20 369 20 369 12.5 393.5 c 128,-1,16
 5 418 5 418 5 443 c 0,17,18
 5 479 5 479 20 510 c 128,-1,19
 35 541 35 541 61 564.5 c 128,-1,20
 87 588 87 588 120.5 602.5 c 128,-1,21
 154 617 154 617 190 617 c 1,22,-1
 267 552 l 1,23,-1
 336 617 l 1,24,25
 371 600 371 600 390 570.5 c 128,-1,26
 409 541 409 541 413 506 c 1,27,28
 439 522 439 522 453 540.5 c 128,-1,29
 467 559 467 559 475.5 583 c 128,-1,30
 484 607 484 607 487.5 636.5 c 128,-1,31
 491 666 491 666 494 704 c 1,32,-1
 604 704 l 1,33,-1
 598 660 l 2,34,35
 595 630 595 630 589 599 c 128,-1,36
 583 568 583 568 572 541 c 128,-1,37
 561 514 561 514 540.5 490 c 128,-1,38
 520 466 520 466 488 449 c 1,39,40
 541 418 541 418 541 393 c 2,41,-1
 541 163 l 2,42,43
 541 131 541 131 527.5 101.5 c 128,-1,44
 514 72 514 72 490.5 49.5 c 128,-1,45
 467 27 467 27 436 13.5 c 128,-1,46
 405 0 405 0 372 0 c 2,47,-1
 347 0 l 2,48,49
 314 0 314 0 286.5 23.5 c 128,-1,50
 259 47 259 47 259 78 c 2,51,-1
 259 271 l 2,52,53
 259 300 259 300 262 318 c 128,-1,54
 265 336 265 336 272 349 c 128,-1,55
 279 362 279 362 290 374 c 128,-1,56
 301 386 301 386 318 404 c 0,57,58
 332 419 332 419 341.5 444 c 128,-1,59
 351 469 351 469 351 493 c 0,60,61
 351 520 351 520 338 534 c 1,62,-1
 265 469 l 1,63,-1
 175 546 l 1,0,1
402 407 m 1,64,65
 390 377 390 377 379.5 347 c 128,-1,66
 369 317 369 317 369 286 c 2,67,-1
 369 83 l 1,68,69
 392 83 392 83 418.5 103.5 c 128,-1,70
 445 124 445 124 445 154 c 2,71,-1
 445 378 l 1,72,73
 442 386 442 386 430 396.5 c 128,-1,74
 418 407 418 407 402 407 c 1,64,65
69 409 m 256,75,76
 69 386 69 386 85 370 c 128,-1,77
 101 354 101 354 124 354 c 256,78,79
 146 354 146 354 162 370 c 128,-1,80
 178 386 178 386 178 409 c 256,81,82
 178 431 178 431 162 447 c 128,-1,83
 146 463 146 463 124 463 c 256,84,85
 101 463 101 463 85 447 c 128,-1,86
 69 431 69 431 69 409 c 256,75,76
EndSplineSet
EndChar
StartChar: uni0E0C
Encoding: 3596 3596 223
Width: 921
VWidth: 1507
Flags: W
HStem: 0 53<179.527 260.632> 161 52<211.639 246.079> 531 83<256.375 421.602>
VStem: 99 67<87 145.014> 99 112<213 365.343> 274 52<66.382 138.512> 353 46<63.917 158.208> 443 113<44 130 225 505.733> 718 110<124 614>
Fore
399 110 m 0,0,1
 399 89 399 89 413 68.5 c 128,-1,2
 427 48 427 48 443 44 c 1,3,-1
 443 175 l 1,4,5
 425 173 425 173 412 153 c 128,-1,6
 399 133 399 133 399 110 c 0,0,1
443 452 m 2,7,8
 443 482 443 482 424 506.5 c 128,-1,9
 405 531 405 531 380 531 c 2,10,-1
 282 531 l 2,11,12
 262 531 262 531 242 522.5 c 128,-1,13
 222 514 222 514 202 499.5 c 128,-1,14
 182 485 182 485 167 467 c 128,-1,15
 152 449 152 449 145 431 c 1,16,17
 179 415 179 415 195 380 c 128,-1,18
 211 345 211 345 211 318 c 2,19,-1
 211 213 l 1,20,-1
 220 213 l 2,21,22
 243 213 243 213 262.5 203.5 c 128,-1,23
 282 194 282 194 295.5 179 c 128,-1,24
 309 164 309 164 317.5 145.5 c 128,-1,25
 326 127 326 127 326 107 c 0,26,27
 326 63 326 63 297 31.5 c 128,-1,28
 268 0 268 0 220 0 c 0,29,30
 178 0 178 0 142 25 c 128,-1,31
 106 50 106 50 99 87 c 1,32,-1
 99 320 l 2,33,34
 99 345 99 345 79.5 366 c 128,-1,35
 60 387 60 387 32 390 c 1,36,37
 36 437 36 437 58.5 478 c 128,-1,38
 81 519 81 519 116 549 c 128,-1,39
 151 579 151 579 194.5 596.5 c 128,-1,40
 238 614 238 614 286 614 c 2,41,-1
 380 614 l 2,42,43
 413 614 413 614 444.5 600 c 128,-1,44
 476 586 476 586 501 564.5 c 128,-1,45
 526 543 526 543 541 513.5 c 128,-1,46
 556 484 556 484 556 452 c 2,47,-1
 556 213 l 1,48,49
 600 197 600 197 641.5 175.5 c 128,-1,50
 683 154 683 154 718 124 c 1,51,-1
 718 614 l 1,52,-1
 828 614 l 1,53,-1
 828 0 l 1,54,-1
 727 0 l 1,55,56
 683 44 683 44 643.5 78.5 c 128,-1,57
 604 113 604 113 556 130 c 1,58,-1
 556 44 l 1,59,60
 537 27 537 27 513.5 14.5 c 128,-1,61
 490 2 490 2 464 2 c 0,62,63
 412 2 412 2 382.5 32.5 c 128,-1,64
 353 63 353 63 353 109 c 128,-1,65
 353 155 353 155 374.5 186 c 128,-1,66
 396 217 396 217 443 225 c 1,67,-1
 443 452 l 2,7,8
166 107 m 256,68,69
 166 84 166 84 181.5 68.5 c 128,-1,70
 197 53 197 53 220 53 c 256,71,72
 243 53 243 53 258.5 68.5 c 128,-1,73
 274 84 274 84 274 107 c 256,74,75
 274 130 274 130 258.5 145.5 c 128,-1,76
 243 161 243 161 220 161 c 256,77,78
 197 161 197 161 181.5 145.5 c 128,-1,79
 166 130 166 130 166 107 c 256,68,69
EndSplineSet
EndChar
StartChar: uni0E0D
Encoding: 3597 3597 224
Width: 927
VWidth: 1507
Flags: W
HStem: -261 73<618 691.5> -71 42<500.921 574.373> 0 53<186.895 268.533> 0 98<565 704.076> 161 52<219.621 253.772> 531 83<264.041 430.764>
VStem: 107 66<87 145.014> 107 112<213 365.343> 282 65<66.382 137.319> 422 57<-165.538 -97.6726> 454 111<98 452 452 505.733> 588 60<-157.14 -84.6804> 728 112<125.751 614> 764 97<-118.921 -56>
Fore
648 -131 m 0,0,1
 648 -149 648 -149 639 -162.5 c 128,-1,2
 630 -176 630 -176 618 -188 c 1,3,-1
 624 -188 l 2,4,5
 672 -188 672 -188 712 -150 c 128,-1,6
 752 -112 752 -112 764 -56 c 1,7,-1
 861 -56 l 1,8,9
 852 -98 852 -98 828.5 -135.5 c 128,-1,10
 805 -173 805 -173 772 -201 c 128,-1,11
 739 -229 739 -229 698 -245 c 128,-1,12
 657 -261 657 -261 614 -261 c 0,13,14
 579 -261 579 -261 545 -252.5 c 128,-1,15
 511 -244 511 -244 484 -228.5 c 128,-1,16
 457 -213 457 -213 439.5 -188.5 c 128,-1,17
 422 -164 422 -164 422 -131 c 0,18,19
 422 -112 422 -112 431 -93 c 128,-1,20
 440 -74 440 -74 455 -59.5 c 128,-1,21
 470 -45 470 -45 491.5 -37 c 128,-1,22
 513 -29 513 -29 535 -29 c 0,23,24
 582 -29 582 -29 615 -58 c 128,-1,25
 648 -87 648 -87 648 -131 c 0,0,1
387 614 m 2,26,27
 421 614 421 614 453 600 c 128,-1,28
 485 586 485 586 510 564.5 c 128,-1,29
 535 543 535 543 550 513.5 c 128,-1,30
 565 484 565 484 565 452 c 2,31,-1
 565 98 l 1,32,-1
 665 98 l 2,33,34
 690 101 690 101 709 125 c 128,-1,35
 728 149 728 149 728 179 c 2,36,-1
 728 614 l 1,37,-1
 840 614 l 1,38,-1
 840 164 l 2,39,40
 840 133 840 133 826 102.5 c 128,-1,41
 812 72 812 72 788 49.5 c 128,-1,42
 764 27 764 27 732.5 13.5 c 128,-1,43
 701 0 701 0 665 0 c 2,44,-1
 546 0 l 2,45,46
 508 0 508 0 482.5 23.5 c 128,-1,47
 457 47 457 47 454 77 c 2,48,-1
 454 452 l 2,49,50
 454 482 454 482 433.5 506.5 c 128,-1,51
 413 531 413 531 387 531 c 2,52,-1
 289 531 l 2,53,54
 270 531 270 531 249.5 522.5 c 128,-1,55
 229 514 229 514 209.5 499.5 c 128,-1,56
 190 485 190 485 175 467 c 128,-1,57
 160 449 160 449 152 431 c 1,58,59
 187 415 187 415 203 380 c 128,-1,60
 219 345 219 345 219 318 c 2,61,-1
 219 213 l 1,62,-1
 228 213 l 2,63,64
 250 213 250 213 271 203.5 c 128,-1,65
 292 194 292 194 309.5 179 c 128,-1,66
 327 164 327 164 337 145.5 c 128,-1,67
 347 127 347 127 347 107 c 0,68,69
 347 63 347 63 311.5 31.5 c 128,-1,70
 276 0 276 0 228 0 c 0,71,72
 185 0 185 0 149 25 c 128,-1,73
 113 50 113 50 107 87 c 1,74,-1
 107 320 l 2,75,76
 107 345 107 345 87.5 366 c 128,-1,77
 68 387 68 387 39 390 c 1,78,79
 44 437 44 437 66.5 478 c 128,-1,80
 89 519 89 519 123.5 549 c 128,-1,81
 158 579 158 579 202 596.5 c 128,-1,82
 246 614 246 614 294 614 c 2,83,-1
 387 614 l 2,26,27
173 107 m 256,84,85
 173 84 173 84 189 68.5 c 128,-1,86
 205 53 205 53 228 53 c 256,87,88
 250 53 250 53 266 68.5 c 128,-1,89
 282 84 282 84 282 107 c 256,90,91
 282 130 282 130 266 145.5 c 128,-1,92
 250 161 250 161 228 161 c 256,93,94
 205 161 205 161 189 145.5 c 128,-1,95
 173 130 173 130 173 107 c 256,84,85
479 -125 m 256,96,97
 479 -148 479 -148 495 -163.5 c 128,-1,98
 511 -179 511 -179 534 -179 c 256,99,100
 556 -179 556 -179 572 -163.5 c 128,-1,101
 588 -148 588 -148 588 -125 c 256,102,103
 588 -103 588 -103 572 -87 c 128,-1,104
 556 -71 556 -71 534 -71 c 256,105,106
 511 -71 511 -71 495 -87 c 128,-1,107
 479 -103 479 -103 479 -125 c 256,96,97
EndSplineSet
Substitution2: "Single Substitution lookup 22 subtable" uni0E0D.alt1
Substitution2: "Single Substitution lookup 22 subtable" uni0E0D.alt1
EndChar
StartChar: uni0E0E
Encoding: 3598 3598 225
Width: 666
VWidth: 1507
Flags: W
HStem: -292 55<174.849 245.502> -128 48<164.36 245.525> 0 53<116.183 182.331> 161 52<111.501 156.685> 531 83<281.706 447.477>
VStem: 33 62<75.4913 147.378> 90 61<-215.05 -141.897> 157 111<213 331.22> 203 65<77.9551 145.014> 470 110<-112 505.733>
Fore
404 614 m 2,0,1
 437 614 437 614 468.5 600 c 128,-1,2
 500 586 500 586 525 564.5 c 128,-1,3
 550 543 550 543 565 513.5 c 128,-1,4
 580 484 580 484 580 452 c 2,5,-1
 580 -134 l 1,6,7
 553 -188 553 -188 509.5 -232 c 128,-1,8
 466 -276 466 -276 401 -301 c 1,9,-1
 303 -228 l 1,10,11
 297 -258 297 -258 270 -275 c 128,-1,12
 243 -292 243 -292 210 -292 c 0,13,14
 187 -292 187 -292 166 -283 c 128,-1,15
 145 -274 145 -274 127.5 -260 c 128,-1,16
 110 -246 110 -246 100 -226.5 c 128,-1,17
 90 -207 90 -207 90 -185 c 0,18,19
 90 -142 90 -142 126.5 -111 c 128,-1,20
 163 -80 163 -80 210 -80 c 0,21,22
 234 -80 234 -80 255.5 -88 c 128,-1,23
 277 -96 277 -96 294 -109 c 2,24,-1
 410 -182 l 1,25,26
 442 -161 442 -161 470 -112 c 1,27,-1
 470 452 l 2,28,29
 470 482 470 482 450 506.5 c 128,-1,30
 430 531 430 531 404 531 c 2,31,-1
 306 531 l 2,32,33
 288 531 288 531 267 522.5 c 128,-1,34
 246 514 246 514 225.5 500.5 c 128,-1,35
 205 487 205 487 188.5 470.5 c 128,-1,36
 172 454 172 454 163 437 c 1,37,38
 187 434 187 434 206.5 420.5 c 128,-1,39
 226 407 226 407 239.5 389 c 128,-1,40
 253 371 253 371 260.5 352 c 128,-1,41
 268 333 268 333 268 320 c 2,42,-1
 268 101 l 2,43,44
 268 81 268 81 258.5 63 c 128,-1,45
 249 45 249 45 231.5 31 c 128,-1,46
 214 17 214 17 193 8.5 c 128,-1,47
 172 0 172 0 149 0 c 0,48,49
 125 0 125 0 104 9 c 128,-1,50
 83 18 83 18 67 33 c 128,-1,51
 51 48 51 48 42 67 c 128,-1,52
 33 86 33 86 33 106 c 0,53,54
 33 149 33 149 68.5 181 c 128,-1,55
 104 213 104 213 151 213 c 2,56,-1
 157 213 l 1,57,-1
 157 318 l 2,58,59
 157 329 157 329 147 341.5 c 128,-1,60
 137 354 137 354 122 364.5 c 128,-1,61
 107 375 107 375 89 383.5 c 128,-1,62
 71 392 71 392 54 393 c 1,63,64
 59 440 59 440 81.5 481 c 128,-1,65
 104 522 104 522 139.5 551 c 128,-1,66
 175 580 175 580 218.5 597 c 128,-1,67
 262 614 262 614 311 614 c 2,68,-1
 404 614 l 2,0,1
95 107 m 256,69,70
 95 84 95 84 111 68.5 c 128,-1,71
 127 53 127 53 149 53 c 256,72,73
 172 53 172 53 187.5 68.5 c 128,-1,74
 203 84 203 84 203 107 c 256,75,76
 203 130 203 130 187.5 145.5 c 128,-1,77
 172 161 172 161 149 161 c 256,78,79
 127 161 127 161 111 145.5 c 128,-1,80
 95 130 95 130 95 107 c 256,69,70
151 -182 m 256,81,82
 151 -205 151 -205 166.5 -221 c 128,-1,83
 182 -237 182 -237 205 -237 c 256,84,85
 228 -237 228 -237 243.5 -221 c 128,-1,86
 259 -205 259 -205 259 -182 c 256,87,88
 259 -160 259 -160 243.5 -144 c 128,-1,89
 228 -128 228 -128 205 -128 c 256,90,91
 182 -128 182 -128 166.5 -144 c 128,-1,92
 151 -160 151 -160 151 -182 c 256,81,82
EndSplineSet
Substitution2: "Single Substitution lookup 22 subtable" uni0E0E.alt1
Substitution2: "Single Substitution lookup 22 subtable" uni0E0E.alt1
EndChar
StartChar: uni0E0F
Encoding: 3599 3599 226
Width: 664
VWidth: 1507
Flags: W
HStem: -265 54<125.739 197.362> -103 53<125.739 197.275> 0 53<116.183 182.331> 161 52<111.501 156.685> 531 83<281.706 447.477>
VStem: 33 62<75.4913 147.378> 41 62<-188.542 -125.783> 157 111<213 331.22> 203 65<77.9551 145.014> 470 110<-151 -143.638 -143.638 -137.937 -137.937 505.733>
Fore
404 614 m 2,0,1
 437 614 437 614 468.5 600 c 128,-1,2
 500 586 500 586 525 564.5 c 128,-1,3
 550 543 550 543 565 513.5 c 128,-1,4
 580 484 580 484 580 452 c 2,5,-1
 580 -119 l 2,6,7
 580 -151 580 -151 573.5 -175 c 128,-1,8
 567 -199 567 -199 552 -219.5 c 128,-1,9
 537 -240 537 -240 514 -259.5 c 128,-1,10
 491 -279 491 -279 458 -301 c 1,11,-1
 374 -167 l 1,12,13
 365 -181 365 -181 355 -200.5 c 128,-1,14
 345 -220 345 -220 334.5 -239 c 128,-1,15
 324 -258 324 -258 315 -275 c 128,-1,16
 306 -292 306 -292 298 -303 c 1,17,-1
 249 -222 l 1,18,19
 237 -244 237 -244 212 -254.5 c 128,-1,20
 187 -265 187 -265 161 -265 c 0,21,22
 137 -265 137 -265 115 -256 c 128,-1,23
 93 -247 93 -247 76.5 -233 c 128,-1,24
 60 -219 60 -219 50.5 -199 c 128,-1,25
 41 -179 41 -179 41 -158 c 0,26,27
 41 -136 41 -136 50.5 -116 c 128,-1,28
 60 -96 60 -96 76.5 -82 c 128,-1,29
 93 -68 93 -68 115 -59 c 128,-1,30
 137 -50 137 -50 161 -50 c 0,31,32
 190 -50 190 -50 215.5 -64 c 128,-1,33
 241 -78 241 -78 265 -103 c 0,34,35
 277 -113 277 -113 284 -132 c 128,-1,36
 291 -151 291 -151 298 -167 c 1,37,-1
 369 -33 l 1,38,-1
 455 -167 l 1,39,40
 460 -160 460 -160 465 -151 c 128,-1,41
 470 -142 470 -142 470 -116 c 2,42,-1
 470 452 l 2,43,44
 470 482 470 482 450 506.5 c 128,-1,45
 430 531 430 531 404 531 c 2,46,-1
 306 531 l 2,47,48
 288 531 288 531 267 522.5 c 128,-1,49
 246 514 246 514 225.5 500.5 c 128,-1,50
 205 487 205 487 188.5 470.5 c 128,-1,51
 172 454 172 454 163 437 c 1,52,53
 187 434 187 434 206.5 420.5 c 128,-1,54
 226 407 226 407 239.5 389 c 128,-1,55
 253 371 253 371 260.5 352 c 128,-1,56
 268 333 268 333 268 320 c 2,57,-1
 268 101 l 2,58,59
 268 81 268 81 258.5 63 c 128,-1,60
 249 45 249 45 231.5 31 c 128,-1,61
 214 17 214 17 193 8.5 c 128,-1,62
 172 0 172 0 149 0 c 0,63,64
 125 0 125 0 104 9 c 128,-1,65
 83 18 83 18 67 33 c 128,-1,66
 51 48 51 48 42 67 c 128,-1,67
 33 86 33 86 33 106 c 0,68,69
 33 149 33 149 68.5 181 c 128,-1,70
 104 213 104 213 151 213 c 2,71,-1
 157 213 l 1,72,-1
 157 318 l 2,73,74
 157 329 157 329 147 341.5 c 128,-1,75
 137 354 137 354 122 364.5 c 128,-1,76
 107 375 107 375 89 383.5 c 128,-1,77
 71 392 71 392 54 393 c 1,78,79
 59 440 59 440 81.5 481 c 128,-1,80
 104 522 104 522 139.5 551 c 128,-1,81
 175 580 175 580 218.5 597 c 128,-1,82
 262 614 262 614 311 614 c 2,83,-1
 404 614 l 2,0,1
95 107 m 256,84,85
 95 84 95 84 111 68.5 c 128,-1,86
 127 53 127 53 149 53 c 256,87,88
 172 53 172 53 187.5 68.5 c 128,-1,89
 203 84 203 84 203 107 c 256,90,91
 203 130 203 130 187.5 145.5 c 128,-1,92
 172 161 172 161 149 161 c 256,93,94
 127 161 127 161 111 145.5 c 128,-1,95
 95 130 95 130 95 107 c 256,84,85
103 -157 m 256,96,97
 103 -179 103 -179 118.5 -195 c 128,-1,98
 134 -211 134 -211 157 -211 c 256,99,100
 179 -211 179 -211 195 -195 c 128,-1,101
 211 -179 211 -179 211 -157 c 256,102,103
 211 -134 211 -134 195 -118.5 c 128,-1,104
 179 -103 179 -103 157 -103 c 256,105,106
 134 -103 134 -103 118.5 -118.5 c 128,-1,107
 103 -134 103 -134 103 -157 c 256,96,97
EndSplineSet
Substitution2: "Single Substitution lookup 22 subtable" uni0E0F.alt1
Substitution2: "Single Substitution lookup 22 subtable" uni0E0F.alt1
EndChar
StartChar: uni0E10
Encoding: 3600 3600 227
Width: 584
VWidth: 1507
Flags: W
HStem: -252 59<37.9888 108.823> -164 36<387.923 415> -84 49<37.8999 119.278> -35 33<384.466 456.595> 0 21G<207 316.5> 119 56<160.986 206.685> 283 53<157.993 239.883> 481 84<387.582 464.498> 537 77<169.582 250.803>
VStem: -32 56<-179.111 -97.7411> 80 65<188.592 270.033> 253 65<191.501 267.014> 333 41<-117.286 -45.3996> 372 95<130.931 163 163 318> 467 30<-114.077 -48.9232>
Fore
467 163 m 2,0,1
 467 131 467 131 454.5 102.5 c 128,-1,2
 442 74 442 74 419 51.5 c 128,-1,3
 396 29 396 29 365.5 14.5 c 128,-1,4
 335 0 335 0 298 0 c 2,5,-1
 207 0 l 1,6,-1
 207 119 l 1,7,-1
 200 119 l 2,8,9
 152 119 152 119 116 151.5 c 128,-1,10
 80 184 80 184 80 228 c 256,11,12
 80 271 80 271 116 303.5 c 128,-1,13
 152 336 152 336 200 336 c 256,14,15
 249 336 249 336 283.5 306 c 128,-1,16
 318 276 318 276 318 228 c 2,17,-1
 318 90 l 1,18,19
 336 98 336 98 354 111 c 128,-1,20
 372 124 372 124 372 163 c 2,21,-1
 372 318 l 1,22,23
 315 348 315 348 225.5 370.5 c 128,-1,24
 136 393 136 393 33 407 c 1,25,26
 33 449 33 449 46 493.5 c 128,-1,27
 59 538 59 538 93 567 c 0,28,29
 119 588 119 588 148.5 601 c 128,-1,30
 178 614 178 614 216 614 c 0,31,32
 250 614 250 614 276.5 605.5 c 128,-1,33
 303 597 303 597 329 589 c 0,34,35
 350 580 350 580 371.5 573.5 c 128,-1,36
 393 567 393 567 412 565 c 0,37,38
 434 565 434 565 464 585.5 c 128,-1,39
 494 606 494 606 538 645 c 1,40,-1
 552 562 l 1,41,42
 525 534 525 534 488.5 507.5 c 128,-1,43
 452 481 452 481 418 481 c 0,44,45
 386 481 386 481 360.5 492 c 128,-1,46
 335 503 335 503 309 513 c 256,47,48
 283 522 283 522 260 529.5 c 128,-1,49
 237 537 237 537 216 537 c 0,50,51
 190 537 190 537 168 514 c 128,-1,52
 146 491 146 491 143 466 c 1,53,54
 226 452 226 452 306 425 c 128,-1,55
 386 398 386 398 467 354 c 1,56,-1
 467 163 l 2,0,1
497 -93 m 2,57,58
 497 -190 497 -190 458 -234.5 c 128,-1,59
 419 -279 419 -279 348 -300 c 1,60,-1
 264 -182 l 1,61,-1
 196 -300 l 1,62,-1
 152 -211 l 1,63,64
 136 -232 136 -232 117 -242 c 128,-1,65
 98 -252 98 -252 80 -252 c 0,66,67
 27 -252 27 -252 -2.5 -219.5 c 128,-1,68
 -32 -187 -32 -187 -32 -143 c 256,69,70
 -32 -99 -32 -99 -3 -67 c 128,-1,71
 26 -35 26 -35 77 -35 c 0,72,73
 107 -35 107 -35 135.5 -47.5 c 128,-1,74
 164 -60 164 -60 170 -80 c 2,75,-1
 203 -170 l 1,76,-1
 264 -66 l 1,77,-1
 368 -213 l 1,78,79
 389 -208 389 -208 402 -195 c 128,-1,80
 415 -182 415 -182 415 -164 c 1,81,82
 383 -164 383 -164 358 -141.5 c 128,-1,83
 333 -119 333 -119 333 -80 c 0,84,85
 333 -48 333 -48 357 -25 c 128,-1,86
 381 -2 381 -2 416 -2 c 256,87,88
 451 -2 451 -2 474 -21.5 c 128,-1,89
 497 -41 497 -41 497 -75 c 2,90,-1
 497 -93 l 2,57,58
145 229 m 256,91,92
 145 207 145 207 160.5 191 c 128,-1,93
 176 175 176 175 199 175 c 256,94,95
 222 175 222 175 237.5 191 c 128,-1,96
 253 207 253 207 253 229 c 256,97,98
 253 252 253 252 237.5 267.5 c 128,-1,99
 222 283 222 283 199 283 c 256,100,101
 176 283 176 283 160.5 267.5 c 128,-1,102
 145 252 145 252 145 229 c 256,91,92
24 -139 m 256,103,104
 24 -161 24 -161 40 -177 c 128,-1,105
 56 -193 56 -193 78 -193 c 256,106,107
 101 -193 101 -193 117 -177 c 128,-1,108
 133 -161 133 -161 133 -139 c 256,109,110
 133 -116 133 -116 117 -100 c 128,-1,111
 101 -84 101 -84 78 -84 c 256,112,113
 56 -84 56 -84 40 -100 c 128,-1,114
 24 -116 24 -116 24 -139 c 256,103,104
374 -81 m 256,115,116
 374 -101 374 -101 387.5 -114.5 c 128,-1,117
 401 -128 401 -128 421 -128 c 256,118,119
 440 -128 440 -128 453.5 -114.5 c 128,-1,120
 467 -101 467 -101 467 -81 c 256,121,122
 467 -62 467 -62 453.5 -48.5 c 128,-1,123
 440 -35 440 -35 421 -35 c 256,124,125
 401 -35 401 -35 387.5 -48.5 c 128,-1,126
 374 -62 374 -62 374 -81 c 256,115,116
EndSplineSet
Substitution2: "Single Substitution lookup 22 subtable" uni0E10.alt1
Substitution2: "Single Substitution lookup 22 subtable" uni0E10.alt1
EndChar
StartChar: uni0E11
Encoding: 3601 3601 228
Width: 842
VWidth: 1507
Flags: W
HStem: 0 21G<261 381.063 647 755> 308 46<84.8337 165.677> 463 45<107.505 148.059> 594 20G<558.209 608>
VStem: 6 65<390.067 449.21> 179 46<367.924 439.989> 261 111<167 317.435> 353 65<455.689 533.204> 647 108<0 469.587>
Fore
261 271 m 2,0,1
 261 300 261 300 264 318 c 128,-1,2
 267 336 267 336 273.5 349 c 128,-1,3
 280 362 280 362 291.5 374 c 128,-1,4
 303 386 303 386 320 404 c 0,5,6
 335 421 335 421 344 445 c 128,-1,7
 353 469 353 469 353 491 c 0,8,9
 353 517 353 517 339 534 c 1,10,-1
 267 469 l 1,11,-1
 176 546 l 1,12,13
 146 543 146 543 130.5 531 c 128,-1,14
 115 519 115 519 107 508 c 1,15,-1
 127 508 l 2,16,17
 142 508 142 508 159 500.5 c 128,-1,18
 176 493 176 493 191.5 479.5 c 128,-1,19
 207 466 207 466 216 448 c 128,-1,20
 225 430 225 430 225 409 c 0,21,22
 225 363 225 363 197 335.5 c 128,-1,23
 169 308 169 308 125 308 c 0,24,25
 96 308 96 308 73.5 320 c 128,-1,26
 51 332 51 332 36 350.5 c 128,-1,27
 21 369 21 369 13.5 393.5 c 128,-1,28
 6 418 6 418 6 443 c 0,29,30
 6 479 6 479 21 510 c 128,-1,31
 36 541 36 541 62.5 564.5 c 128,-1,32
 89 588 89 588 122 602.5 c 128,-1,33
 155 617 155 617 191 617 c 1,34,-1
 268 552 l 1,35,-1
 338 617 l 1,36,37
 381 597 381 597 399.5 558 c 128,-1,38
 418 519 418 519 418 473 c 0,39,40
 418 451 418 451 411 428 c 128,-1,41
 404 405 404 405 395 382 c 128,-1,42
 386 359 386 359 379 335 c 128,-1,43
 372 311 372 311 372 286 c 2,44,-1
 372 167 l 1,45,46
 374 188 374 188 377 205.5 c 128,-1,47
 380 223 380 223 381 232 c 1,48,-1
 568 614 l 1,49,50
 648 614 648 614 701.5 569.5 c 128,-1,51
 755 525 755 525 755 449 c 2,52,-1
 755 0 l 1,53,-1
 647 0 l 1,54,-1
 647 418 l 2,55,56
 647 460 647 460 612 479 c 1,57,-1
 371 0 l 1,58,-1
 261 0 l 1,59,-1
 261 271 l 2,0,1
71 409 m 256,60,61
 71 386 71 386 87 370 c 128,-1,62
 103 354 103 354 125 354 c 256,63,64
 148 354 148 354 163.5 370 c 128,-1,65
 179 386 179 386 179 409 c 256,66,67
 179 431 179 431 163.5 447 c 128,-1,68
 148 463 148 463 125 463 c 256,69,70
 103 463 103 463 87 447 c 128,-1,71
 71 431 71 431 71 409 c 256,60,61
EndSplineSet
EndChar
StartChar: uni0E12
Encoding: 3602 3602 229
Width: 970
VWidth: 1507
Flags: W
HStem: 2 183<167 327> 294 53<286.492 357.474> 594 20G<247 284.791 430.353 468.5 769 880>
VStem: 75 104<96 459.776> 222 51<198.386 280.62> 381 44<198.876 272.541> 437 47<63.917 158.208> 528 96<44 130 226 466.844> 769 111<124 614>
Fore
624 226 m 1,0,1
 672 210 672 210 707.5 181 c 128,-1,2
 743 152 743 152 769 124 c 1,3,-1
 769 614 l 1,4,-1
 880 614 l 1,5,-1
 880 0 l 1,6,-1
 764 0 l 1,7,8
 739 39 739 39 705.5 76 c 128,-1,9
 672 113 672 113 624 130 c 1,10,-1
 624 44 l 1,11,12
 604 27 604 27 589 14.5 c 128,-1,13
 574 2 574 2 549 2 c 0,14,15
 496 2 496 2 466.5 32.5 c 128,-1,16
 437 63 437 63 437 109 c 128,-1,17
 437 155 437 155 459 186 c 128,-1,18
 481 217 481 217 528 225 c 1,19,-1
 528 451 l 2,20,21
 528 461 528 461 522 472.5 c 128,-1,22
 516 484 516 484 507.5 493.5 c 128,-1,23
 499 503 499 503 488.5 510 c 128,-1,24
 478 517 478 517 469 517 c 1,25,-1
 360 418 l 1,26,-1
 247 519 l 1,27,28
 226 503 226 503 202.5 463.5 c 128,-1,29
 179 424 179 424 179 375 c 2,30,-1
 179 96 l 1,31,32
 210 101 210 101 233 110 c 128,-1,33
 256 119 256 119 280 143 c 1,34,35
 256 155 256 155 239 179 c 128,-1,36
 222 203 222 203 222 240 c 0,37,38
 222 283 222 283 253.5 315 c 128,-1,39
 285 347 285 347 326 347 c 0,40,41
 345 347 345 347 363 338.5 c 128,-1,42
 381 330 381 330 395 315 c 128,-1,43
 409 300 409 300 417 281 c 128,-1,44
 425 262 425 262 425 240 c 0,45,46
 425 196 425 196 402.5 153 c 128,-1,47
 380 110 380 110 344 76 c 128,-1,48
 308 42 308 42 262 22 c 128,-1,49
 216 2 216 2 167 2 c 2,50,-1
 75 2 l 1,51,-1
 75 378 l 2,52,53
 75 421 75 421 93.5 463 c 128,-1,54
 112 505 112 505 139 539 c 128,-1,55
 166 573 166 573 199 594 c 128,-1,56
 232 615 232 615 262 615 c 1,57,-1
 360 529 l 1,58,-1
 452 614 l 1,59,60
 485 614 485 614 516 601 c 128,-1,61
 547 588 547 588 571 565.5 c 128,-1,62
 595 543 595 543 609.5 513.5 c 128,-1,63
 624 484 624 484 624 451 c 2,64,-1
 624 226 l 1,0,1
273 240 m 256,65,66
 273 217 273 217 288.5 201 c 128,-1,67
 304 185 304 185 327 185 c 256,68,69
 350 185 350 185 365.5 201 c 128,-1,70
 381 217 381 217 381 240 c 256,71,72
 381 262 381 262 365.5 278 c 128,-1,73
 350 294 350 294 327 294 c 256,74,75
 304 294 304 294 288.5 278 c 128,-1,76
 273 262 273 262 273 240 c 256,65,66
484 110 m 0,77,78
 484 89 484 89 497.5 68.5 c 128,-1,79
 511 48 511 48 528 44 c 1,80,-1
 528 175 l 1,81,82
 510 173 510 173 497 153 c 128,-1,83
 484 133 484 133 484 110 c 0,77,78
EndSplineSet
EndChar
StartChar: uni0E13
Encoding: 3603 3603 230
Width: 924
VWidth: 1507
Flags: W
HStem: 0 53<179.527 260.791 745.532 819.655> 161 52<211.639 246.607> 531 83<256.375 423.667>
VStem: 99 112<213 365.343> 99 67<87 145.014> 274 65<66.382 137.617> 448 108<125 505.733> 722 110<258 614> 837 67<83.8212 155.327>
Fore
166 107 m 256,0,1
 166 84 166 84 181.5 68.5 c 128,-1,2
 197 53 197 53 220 53 c 256,3,4
 243 53 243 53 258.5 68.5 c 128,-1,5
 274 84 274 84 274 107 c 256,6,7
 274 130 274 130 258.5 145.5 c 128,-1,8
 243 161 243 161 220 161 c 256,9,10
 197 161 197 161 181.5 145.5 c 128,-1,11
 166 130 166 130 166 107 c 256,0,1
662 103 m 1,12,13
 641 86 641 86 613 58 c 128,-1,14
 585 30 585 30 555 0 c 1,15,-1
 448 0 l 1,16,-1
 448 452 l 2,17,18
 448 482 448 482 426.5 506.5 c 128,-1,19
 405 531 405 531 380 531 c 2,20,-1
 282 531 l 2,21,22
 262 531 262 531 242 522.5 c 128,-1,23
 222 514 222 514 202 499.5 c 128,-1,24
 182 485 182 485 167 467 c 128,-1,25
 152 449 152 449 145 431 c 1,26,27
 179 415 179 415 195 380 c 128,-1,28
 211 345 211 345 211 318 c 2,29,-1
 211 213 l 1,30,-1
 220 213 l 2,31,32
 243 213 243 213 264 203.5 c 128,-1,33
 285 194 285 194 302.5 179 c 128,-1,34
 320 164 320 164 329.5 145.5 c 128,-1,35
 339 127 339 127 339 107 c 0,36,37
 339 63 339 63 303.5 31.5 c 128,-1,38
 268 0 268 0 220 0 c 0,39,40
 178 0 178 0 142 25 c 128,-1,41
 106 50 106 50 99 87 c 1,42,-1
 99 320 l 2,43,44
 99 345 99 345 79.5 366 c 128,-1,45
 60 387 60 387 32 390 c 1,46,47
 36 437 36 437 58.5 478 c 128,-1,48
 81 519 81 519 116 549 c 128,-1,49
 151 579 151 579 194.5 596.5 c 128,-1,50
 238 614 238 614 286 614 c 2,51,-1
 380 614 l 2,52,53
 413 614 413 614 444.5 600 c 128,-1,54
 476 586 476 586 501 564.5 c 128,-1,55
 526 543 526 543 541 513.5 c 128,-1,56
 556 484 556 484 556 452 c 2,57,-1
 556 125 l 1,58,59
 591 158 591 158 634 193.5 c 128,-1,60
 677 229 677 229 722 258 c 1,61,-1
 722 614 l 1,62,-1
 832 614 l 1,63,-1
 832 222 l 1,64,65
 867 208 867 208 885.5 180 c 128,-1,66
 904 152 904 152 904 118 c 0,67,68
 904 93 904 93 893.5 72 c 128,-1,69
 883 51 883 51 865 35.5 c 128,-1,70
 847 20 847 20 823.5 10 c 128,-1,71
 800 0 800 0 776 0 c 0,72,73
 724 0 724 0 693 33 c 128,-1,74
 662 66 662 66 662 103 c 1,12,13
728 115 m 256,75,76
 728 92 728 92 744 76 c 128,-1,77
 760 60 760 60 782 60 c 256,78,79
 805 60 805 60 821 76 c 128,-1,80
 837 92 837 92 837 115 c 256,81,82
 837 137 837 137 821 153 c 128,-1,83
 805 169 805 169 782 169 c 256,84,85
 760 169 760 169 744 153 c 128,-1,86
 728 137 728 137 728 115 c 256,75,76
EndSplineSet
EndChar
StartChar: uni0E14
Encoding: 3604 3604 231
Width: 691
VWidth: 1507
Flags: W
HStem: 0 95<179 235.186> 294 50<301.928 382.222> 531 83<274.329 470.695>
VStem: 75 104<95 402.11> 222 66<198.71 280.359> 396 58<198.614 280.443> 493 113<0 505.218>
Fore
179 95 m 1,0,1
 210 99 210 99 236 108.5 c 128,-1,2
 262 118 262 118 288 142 c 1,3,4
 261 154 261 154 241.5 178 c 128,-1,5
 222 202 222 202 222 238 c 0,6,7
 222 280 222 280 258 312 c 128,-1,8
 294 344 294 344 341 344 c 0,9,10
 384 344 384 344 419 313 c 128,-1,11
 454 282 454 282 454 238 c 256,12,13
 454 194 454 194 427.5 151.5 c 128,-1,14
 401 109 401 109 359 75 c 128,-1,15
 317 41 317 41 266.5 20.5 c 128,-1,16
 216 0 216 0 167 0 c 2,17,-1
 75 0 l 1,18,-1
 75 377 l 2,19,20
 75 422 75 422 97 465 c 128,-1,21
 119 508 119 508 154.5 540.5 c 128,-1,22
 190 573 190 573 236 593.5 c 128,-1,23
 282 614 282 614 332 614 c 2,24,-1
 430 614 l 2,25,26
 464 614 464 614 496 601 c 128,-1,27
 528 588 528 588 552.5 565.5 c 128,-1,28
 577 543 577 543 591.5 512.5 c 128,-1,29
 606 482 606 482 606 449 c 2,30,-1
 606 0 l 1,31,-1
 493 0 l 1,32,-1
 493 454 l 2,33,34
 493 481 493 481 473.5 506 c 128,-1,35
 454 531 454 531 430 531 c 2,36,-1
 329 531 l 2,37,38
 300 531 300 531 273.5 516.5 c 128,-1,39
 247 502 247 502 226 479.5 c 128,-1,40
 205 457 205 457 192 429 c 128,-1,41
 179 401 179 401 179 374 c 2,42,-1
 179 95 l 1,0,1
288 240 m 256,43,44
 288 217 288 217 304 201 c 128,-1,45
 320 185 320 185 342 185 c 256,46,47
 365 185 365 185 380.5 201 c 128,-1,48
 396 217 396 217 396 240 c 256,49,50
 396 262 396 262 380.5 278 c 128,-1,51
 365 294 365 294 342 294 c 256,52,53
 320 294 320 294 304 278 c 128,-1,54
 288 262 288 262 288 240 c 256,43,44
EndSplineSet
EndChar
StartChar: uni0E15
Encoding: 3605 3605 232
Width: 690
VWidth: 1507
Flags: W
HStem: 0 21G<494 606> 295 50<301.928 382.826> 595 20G<247 284.791 430.353 468.5>
VStem: 75 104<96 459.776> 222 66<200.715 281.471> 396 58<200.556 281.796> 494 112<0 486.047>
Fore
75 378 m 2,0,1
 75 421 75 421 93.5 463 c 128,-1,2
 112 505 112 505 139 539 c 128,-1,3
 166 573 166 573 199 594 c 128,-1,4
 232 615 232 615 262 615 c 1,5,-1
 360 529 l 1,6,-1
 452 614 l 1,7,8
 485 614 485 614 514 601 c 128,-1,9
 543 588 543 588 563 565.5 c 128,-1,10
 583 543 583 543 594.5 513.5 c 128,-1,11
 606 484 606 484 606 451 c 2,12,-1
 606 0 l 1,13,-1
 494 0 l 1,14,-1
 494 451 l 2,15,16
 494 472 494 472 490.5 494.5 c 128,-1,17
 487 517 487 517 469 517 c 1,18,-1
 360 418 l 1,19,-1
 247 519 l 1,20,21
 226 503 226 503 202.5 463.5 c 128,-1,22
 179 424 179 424 179 375 c 2,23,-1
 179 96 l 1,24,25
 210 101 210 101 236 110 c 128,-1,26
 262 119 262 119 288 143 c 1,27,28
 261 155 261 155 241.5 179 c 128,-1,29
 222 203 222 203 222 240 c 0,30,31
 222 282 222 282 258 313.5 c 128,-1,32
 294 345 294 345 341 345 c 0,33,34
 384 345 384 345 419 314 c 128,-1,35
 454 283 454 283 454 240 c 256,36,37
 454 196 454 196 427.5 153 c 128,-1,38
 401 110 401 110 359 76 c 128,-1,39
 317 42 317 42 266.5 22 c 128,-1,40
 216 2 216 2 167 2 c 2,41,-1
 75 2 l 1,42,-1
 75 378 l 2,0,1
288 241 m 256,43,44
 288 219 288 219 304 203 c 128,-1,45
 320 187 320 187 342 187 c 256,46,47
 365 187 365 187 380.5 203 c 128,-1,48
 396 219 396 219 396 241 c 256,49,50
 396 264 396 264 380.5 279.5 c 128,-1,51
 365 295 365 295 342 295 c 256,52,53
 320 295 320 295 304 279.5 c 128,-1,54
 288 264 288 264 288 241 c 256,43,44
EndSplineSet
EndChar
StartChar: uni0E16
Encoding: 3606 3606 233
Width: 643
VWidth: 1507
Flags: W
HStem: 0 53<179.527 260.791> 161 52<211.639 246.607> 531 83<256.375 423.667>
VStem: 99 67<87 145.014> 99 112<213 365.343> 274 65<66.382 137.617> 448 108<0 505.733>
Fore
556 0 m 1,0,-1
 448 0 l 1,1,-1
 448 452 l 2,2,3
 448 482 448 482 426.5 506.5 c 128,-1,4
 405 531 405 531 380 531 c 2,5,-1
 282 531 l 2,6,7
 262 531 262 531 242 522.5 c 128,-1,8
 222 514 222 514 202 499.5 c 128,-1,9
 182 485 182 485 167 467 c 128,-1,10
 152 449 152 449 145 431 c 1,11,12
 179 415 179 415 195 380 c 128,-1,13
 211 345 211 345 211 318 c 2,14,-1
 211 213 l 1,15,-1
 220 213 l 2,16,17
 243 213 243 213 264 203.5 c 128,-1,18
 285 194 285 194 302.5 179 c 128,-1,19
 320 164 320 164 329.5 145.5 c 128,-1,20
 339 127 339 127 339 107 c 0,21,22
 339 63 339 63 303.5 31.5 c 128,-1,23
 268 0 268 0 220 0 c 0,24,25
 178 0 178 0 142 25 c 128,-1,26
 106 50 106 50 99 87 c 1,27,-1
 99 320 l 2,28,29
 99 345 99 345 79.5 366 c 128,-1,30
 60 387 60 387 32 390 c 1,31,32
 36 437 36 437 58.5 478 c 128,-1,33
 81 519 81 519 116 549 c 128,-1,34
 151 579 151 579 194.5 596.5 c 128,-1,35
 238 614 238 614 286 614 c 2,36,-1
 380 614 l 2,37,38
 413 614 413 614 444.5 600 c 128,-1,39
 476 586 476 586 501 564.5 c 128,-1,40
 526 543 526 543 541 513.5 c 128,-1,41
 556 484 556 484 556 452 c 2,42,-1
 556 0 l 1,0,-1
166 107 m 256,43,44
 166 84 166 84 181.5 68.5 c 128,-1,45
 197 53 197 53 220 53 c 256,46,47
 243 53 243 53 258.5 68.5 c 128,-1,48
 274 84 274 84 274 107 c 256,49,50
 274 130 274 130 258.5 145.5 c 128,-1,51
 243 161 243 161 220 161 c 256,52,53
 197 161 197 161 181.5 145.5 c 128,-1,54
 166 130 166 130 166 107 c 256,43,44
EndSplineSet
EndChar
StartChar: uni0E17
Encoding: 3607 3607 234
Width: 729
VWidth: 1507
Flags: W
HStem: 0 21G<154 270.16 534 645> 402 50<125.352 153.685> 561 49<105.941 179.314>
VStem: 35 57<476.046 547.101> 154 111<179 402> 200 65<468.501 532.562> 534 111<0 473.984>
Fore
440 614 m 1,0,1
 479 614 479 614 516 601.5 c 128,-1,2
 553 589 553 589 581.5 568 c 128,-1,3
 610 547 610 547 627.5 517 c 128,-1,4
 645 487 645 487 645 449 c 2,5,-1
 645 0 l 1,6,-1
 534 0 l 1,7,-1
 534 439 l 2,8,9
 534 458 534 458 521 474.5 c 128,-1,10
 508 491 508 491 490 500 c 1,11,-1
 261 0 l 1,12,-1
 154 0 l 1,13,-1
 154 402 l 1,14,15
 131 402 131 402 110 410.5 c 128,-1,16
 89 419 89 419 71.5 433.5 c 128,-1,17
 54 448 54 448 44.5 467.5 c 128,-1,18
 35 487 35 487 35 508 c 0,19,20
 35 549 35 549 70.5 579.5 c 128,-1,21
 106 610 106 610 151 610 c 0,22,23
 173 610 173 610 193.5 602 c 128,-1,24
 214 594 214 594 230 580.5 c 128,-1,25
 246 567 246 567 255.5 548 c 128,-1,26
 265 529 265 529 265 510 c 2,27,-1
 265 179 l 1,28,29
 267 200 267 200 270 221.5 c 128,-1,30
 273 243 273 243 276 250 c 2,31,-1
 440 614 l 1,0,1
92 506 m 256,32,33
 92 484 92 484 108 468 c 128,-1,34
 124 452 124 452 146 452 c 256,35,36
 169 452 169 452 184.5 468 c 128,-1,37
 200 484 200 484 200 506 c 256,38,39
 200 529 200 529 184.5 545 c 128,-1,40
 169 561 169 561 146 561 c 256,41,42
 124 561 124 561 108 545 c 128,-1,43
 92 529 92 529 92 506 c 256,32,33
EndSplineSet
EndChar
StartChar: uni0E18
Encoding: 3608 3608 235
Width: 569
VWidth: 1507
Flags: W
HStem: 0 90<205 354.795> 479 79<378.122 446.993> 531 83<200.184 288.128>
VStem: 93 112<90 329> 378 112<117.329 317>
Fore
409 558 m 0,0,1
 443 558 443 558 474 588 c 128,-1,2
 505 618 505 618 532 653 c 1,3,-1
 550 574 l 1,4,5
 540 558 540 558 523 541.5 c 128,-1,6
 506 525 506 525 486.5 511 c 128,-1,7
 467 497 467 497 446 488 c 128,-1,8
 425 479 425 479 405 479 c 0,9,10
 375 479 375 479 353.5 489 c 128,-1,11
 332 499 332 499 311 510 c 0,12,13
 268 531 268 531 232 531 c 0,14,15
 219 531 219 531 203 526.5 c 128,-1,16
 187 522 187 522 173.5 514 c 128,-1,17
 160 506 160 506 150 495 c 128,-1,18
 140 484 140 484 139 469 c 1,19,20
 226 457 226 457 315.5 428 c 128,-1,21
 405 399 405 399 490 356 c 1,22,-1
 490 163 l 2,23,24
 490 131 490 131 475 101.5 c 128,-1,25
 460 72 460 72 435 49.5 c 128,-1,26
 410 27 410 27 377.5 13.5 c 128,-1,27
 345 0 345 0 311 0 c 2,28,-1
 185 0 l 2,29,30
 151 0 151 0 122 22.5 c 128,-1,31
 93 45 93 45 93 80 c 2,32,-1
 93 351 l 1,33,-1
 205 329 l 1,34,-1
 205 90 l 1,35,-1
 314 90 l 2,36,37
 339 90 339 90 358.5 116.5 c 128,-1,38
 378 143 378 143 378 172 c 2,39,-1
 378 317 l 1,40,41
 321 347 321 347 233 368.5 c 128,-1,42
 145 390 145 390 38 407 c 1,43,44
 38 448 38 448 50.5 491 c 128,-1,45
 63 534 63 534 95 565 c 0,46,47
 119 589 119 589 156.5 601.5 c 128,-1,48
 194 614 194 614 234 614 c 0,49,50
 259 614 259 614 283.5 606 c 128,-1,51
 308 598 308 598 330 588 c 0,52,53
 348 580 348 580 366 569 c 128,-1,54
 384 558 384 558 409 558 c 0,0,1
EndSplineSet
EndChar
StartChar: uni0E19
Encoding: 3609 3609 236
Width: 663
VWidth: 1507
Flags: W
HStem: 0 60<486.726 557.457> 402 50<127.018 154.729> 561 49<106.941 180.615>
VStem: 36 57<476.361 547.101> 155 112<127 402> 202 65<468.501 531.969> 407 66<73.8134 127.638> 464 113<246 614> 582 68<83.8212 155.327>
Fore
155 402 m 1,0,1
 133 402 133 402 111.5 410.5 c 128,-1,2
 90 419 90 419 73 433.5 c 128,-1,3
 56 448 56 448 46 467.5 c 128,-1,4
 36 487 36 487 36 508 c 0,5,6
 36 549 36 549 71.5 579.5 c 128,-1,7
 107 610 107 610 152 610 c 0,8,9
 175 610 175 610 195.5 602 c 128,-1,10
 216 594 216 594 231.5 580.5 c 128,-1,11
 247 567 247 567 257 548 c 128,-1,12
 267 529 267 529 267 510 c 2,13,-1
 267 127 l 1,14,15
 279 142 279 142 303 160 c 128,-1,16
 327 178 327 178 355 195.5 c 128,-1,17
 383 213 383 213 412.5 226.5 c 128,-1,18
 442 240 442 240 464 246 c 1,19,-1
 464 614 l 1,20,-1
 577 614 l 1,21,-1
 577 222 l 1,22,23
 612 208 612 208 631 180 c 128,-1,24
 650 152 650 152 650 118 c 0,25,26
 650 93 650 93 639.5 72 c 128,-1,27
 629 51 629 51 610.5 35.5 c 128,-1,28
 592 20 592 20 569 10 c 128,-1,29
 546 0 546 0 522 0 c 0,30,31
 469 0 469 0 438 34.5 c 128,-1,32
 407 69 407 69 407 112 c 0,33,34
 407 116 407 116 409.5 123 c 128,-1,35
 412 130 412 130 415 133 c 1,36,37
 377 112 377 112 334 73.5 c 128,-1,38
 291 35 291 35 259 0 c 1,39,-1
 155 0 l 1,40,-1
 155 402 l 1,0,1
93 506 m 256,41,42
 93 484 93 484 109 468 c 128,-1,43
 125 452 125 452 148 452 c 256,44,45
 170 452 170 452 186 468 c 128,-1,46
 202 484 202 484 202 506 c 256,47,48
 202 529 202 529 186 545 c 128,-1,49
 170 561 170 561 148 561 c 256,50,51
 125 561 125 561 109 545 c 128,-1,52
 93 529 93 529 93 506 c 256,41,42
473 115 m 256,53,54
 473 92 473 92 489 76 c 128,-1,55
 505 60 505 60 528 60 c 256,56,57
 550 60 550 60 566 76 c 128,-1,58
 582 92 582 92 582 115 c 256,59,60
 582 137 582 137 566 153 c 128,-1,61
 550 169 550 169 528 169 c 256,62,63
 505 169 505 169 489 153 c 128,-1,64
 473 137 473 137 473 115 c 256,53,54
EndSplineSet
EndChar
StartChar: uni0E1A
Encoding: 3610 3610 237
Width: 706
VWidth: 1507
Flags: W
HStem: 0 98<270 486.407> 402 50<130.018 157.729> 561 49<109.941 183.615>
VStem: 39 57<476.361 547.101> 158 112<98 402> 205 65<468.501 531.969> 508 110<122.236 614>
Fore
158 402 m 1,0,1
 136 402 136 402 114.5 410.5 c 128,-1,2
 93 419 93 419 76 433.5 c 128,-1,3
 59 448 59 448 49 467.5 c 128,-1,4
 39 487 39 487 39 508 c 0,5,6
 39 549 39 549 74.5 579.5 c 128,-1,7
 110 610 110 610 155 610 c 0,8,9
 178 610 178 610 198.5 602 c 128,-1,10
 219 594 219 594 234.5 580.5 c 128,-1,11
 250 567 250 567 260 548 c 128,-1,12
 270 529 270 529 270 510 c 2,13,-1
 270 98 l 1,14,-1
 443 98 l 2,15,16
 469 98 469 98 488.5 121.5 c 128,-1,17
 508 145 508 145 508 175 c 2,18,-1
 508 614 l 1,19,-1
 618 614 l 1,20,-1
 618 155 l 2,21,22
 618 124 618 124 603.5 96 c 128,-1,23
 589 68 589 68 565 46 c 128,-1,24
 541 24 541 24 509.5 12 c 128,-1,25
 478 0 478 0 443 0 c 2,26,-1
 244 0 l 2,27,28
 210 0 210 0 184 23.5 c 128,-1,29
 158 47 158 47 158 77 c 2,30,-1
 158 402 l 1,0,1
96 506 m 256,31,32
 96 484 96 484 112 468 c 128,-1,33
 128 452 128 452 151 452 c 256,34,35
 173 452 173 452 189 468 c 128,-1,36
 205 484 205 484 205 506 c 256,37,38
 205 529 205 529 189 545 c 128,-1,39
 173 561 173 561 151 561 c 256,40,41
 128 561 128 561 112 545 c 128,-1,42
 96 529 96 529 96 506 c 256,31,32
EndSplineSet
EndChar
StartChar: uni0E1B
Encoding: 3611 3611 238
Width: 706
VWidth: 1507
Flags: W
HStem: 0 98<270 486.407> 402 50<130.018 157.729> 561 49<109.941 183.615>
VStem: 39 57<476.361 547.101> 158 112<98 402> 205 65<468.501 531.969> 508 110<122.236 907>
Fore
158 402 m 1,0,1
 136 402 136 402 114.5 410.5 c 128,-1,2
 93 419 93 419 76 433.5 c 128,-1,3
 59 448 59 448 49 467.5 c 128,-1,4
 39 487 39 487 39 508 c 0,5,6
 39 549 39 549 74.5 579.5 c 128,-1,7
 110 610 110 610 155 610 c 0,8,9
 178 610 178 610 198.5 602 c 128,-1,10
 219 594 219 594 234.5 580.5 c 128,-1,11
 250 567 250 567 260 548 c 128,-1,12
 270 529 270 529 270 510 c 2,13,-1
 270 98 l 1,14,-1
 443 98 l 2,15,16
 469 98 469 98 488.5 121.5 c 128,-1,17
 508 145 508 145 508 175 c 2,18,-1
 508 907 l 1,19,-1
 618 907 l 1,20,-1
 618 155 l 2,21,22
 618 124 618 124 603.5 96 c 128,-1,23
 589 68 589 68 565 46 c 128,-1,24
 541 24 541 24 509.5 12 c 128,-1,25
 478 0 478 0 443 0 c 2,26,-1
 244 0 l 2,27,28
 210 0 210 0 184 23.5 c 128,-1,29
 158 47 158 47 158 77 c 2,30,-1
 158 402 l 1,0,1
96 506 m 256,31,32
 96 484 96 484 112 468 c 128,-1,33
 128 452 128 452 151 452 c 256,34,35
 173 452 173 452 189 468 c 128,-1,36
 205 484 205 484 205 506 c 256,37,38
 205 529 205 529 189 545 c 128,-1,39
 173 561 173 561 151 561 c 256,40,41
 128 561 128 561 112 545 c 128,-1,42
 96 529 96 529 96 506 c 256,31,32
EndSplineSet
EndChar
